<?xml version="1.0" standalone="no"?>
<!DOCTYPE svg PUBLIC "-//W3C//DTD SVG 1.1//EN" "http://www.w3.org/Graphics/SVG/1.1/DTD/svg11.dtd" >
<svg xmlns="http://www.w3.org/2000/svg">
<metadata></metadata>
<defs>
<font id="mapleregular" horiz-adv-x="573" >
<font-face units-per-em="2048" ascent="1536" descent="-512" />
<missing-glyph horiz-adv-x="440" />
<glyph unicode="&#xfb01;" horiz-adv-x="1265" d="M14 778v193h133q-14 50 -14 114q0 139 85 220t245 81q82 0 147 -25.5t131 -80.5l-108 -176q-64 53 -98 53q-72 0 -72 -84q0 -46 20 -102h205v-193h-186v-778h-344v778h-144zM793 0v971h346v-971h-346zM793 1044v322h346v-322h-346z" />
<glyph unicode="&#xfb02;" horiz-adv-x="1275" d="M14 778v193h133q-14 50 -14 114q0 139 85 220t245 81q82 0 147 -25.5t131 -80.5l-108 -176q-64 53 -98 53q-35 0 -53.5 -22.5t-18.5 -61.5q0 -46 20 -102h205v-193h-186v-778h-344v778h-144zM803 0v1366h346v-1366h-346z" />
<glyph unicode="&#xfb03;" horiz-adv-x="2060" d="M37 778v193h133q-14 50 -14 114q0 139 84 220t245 81q81 0 146 -25.5t133 -80.5l-109 -176q-68 53 -100 53q-34 0 -52 -22.5t-18 -61.5q0 -49 19 -102h258h133q-14 50 -14 114q0 139 84 220t245 81q81 0 146 -25.5t133 -80.5l-109 -176q-68 53 -100 53q-34 0 -52 -22.5 t-18 -61.5q0 -49 19 -102h207v-193h-187v-778h-344v778h-143h-238v-778h-344v778h-143zM1636 0v971h344v-971h-344zM1636 1044v322h344v-322h-344z" />
<glyph unicode="&#xfb04;" horiz-adv-x="2064" d="M33 778v193h133q-14 50 -14 114q0 139 84 220t245 81q81 0 146 -25.5t133 -80.5l-109 -176q-68 53 -100 53q-34 0 -52 -22.5t-18 -61.5q0 -49 19 -102h258h133q-14 50 -14 114q0 139 84 220t245 81q81 0 146 -25.5t133 -80.5l-109 -176q-68 53 -100 53q-34 0 -52 -22.5 t-18 -61.5q0 -49 19 -102h207v-193h-187v-778h-344v778h-143h-238v-778h-344v778h-143zM1626 0v1366h344v-1366h-344z" />
<glyph horiz-adv-x="0" />
<glyph horiz-adv-x="682" />
<glyph unicode=" "  horiz-adv-x="440" />
<glyph unicode="&#x09;" horiz-adv-x="440" />
<glyph unicode="&#xa0;" horiz-adv-x="440" />
<glyph unicode="!" horiz-adv-x="606" d="M125 883v483h356v-483l-119 -486h-118zM131 0v340h344v-340h-344z" />
<glyph unicode="&#x22;" horiz-adv-x="876" d="M111 803v563h256v-563h-256zM510 803v563h256v-563h-256z" />
<glyph unicode="#" horiz-adv-x="1531" d="M96 322l33 210h240q30 187 45 285h-240l33 211h239q8 55 28 166.5t26 146.5h225l-49 -313h309q1 5 51 313h228l-52 -313h244l-35 -211h-241q-8 -57 -24 -153.5t-21 -131.5h241l-33 -210h-239q-9 -58 -28 -170t-25 -152h-228l49 322h-307q-13 -84 -51 -322h-229l51 322 h-240zM596 532h309q7 41 22.5 134.5t24.5 150.5h-309z" />
<glyph unicode="$" horiz-adv-x="1273" d="M88 219l150 217q81 -87 190 -150t225 -63q79 0 119.5 32t40.5 87q0 56 -48 100t-175 95q-247 96 -340.5 195.5t-93.5 250.5t106 247t299 113v222h221v-234q101 -17 192.5 -66.5t190.5 -140.5l-159 -198q-103 88 -188.5 133t-182.5 45q-76 0 -116 -29.5t-40 -81.5 q0 -60 48.5 -98t185.5 -94q232 -98 327 -192t95 -238q0 -148 -103 -254t-299 -131v-222h-221v232q-240 51 -424 223z" />
<glyph unicode="%" horiz-adv-x="1892" d="M96 958q0 161 101.5 274.5t271.5 113.5t271.5 -113.5t101.5 -274.5t-101.5 -274t-271.5 -113t-271.5 113t-101.5 274zM362 958q0 -81 27.5 -133.5t79.5 -52.5q53 0 79.5 52t26.5 134t-26.5 135.5t-79.5 53.5q-52 0 -79.5 -54t-27.5 -135zM469 0l707 1327h239l-706 -1327 h-240zM1040 367q0 160 101.5 273.5t271.5 113.5t271.5 -113.5t101.5 -273.5q0 -161 -101.5 -274t-271.5 -113t-271.5 113t-101.5 274zM1307 367q0 -81 27 -134t79 -53q53 0 80 52.5t27 134.5t-27 135t-80 53q-52 0 -79 -53.5t-27 -134.5z" />
<glyph unicode="&#x26;" horiz-adv-x="1802" d="M96 375q0 340 494 432q-84 150 -84 276q0 140 102.5 223t300.5 83q127 0 211 -69.5t84 -191.5q0 -116 -61.5 -199.5t-184.5 -148.5q76 -120 103 -159q8 -14 43.5 -72.5t66.5 -106.5q27 64 27 119q0 93 -78 174l201 160q68 -45 103.5 -115t35.5 -153q0 -91 -43.5 -186.5 t-126.5 -172.5q55 -84 129 -84q37 0 57.5 17.5t20.5 44.5q0 37 -59 78l94 129q96 -9 150.5 -68t54.5 -143q0 -106 -91 -186.5t-260 -80.5q-98 0 -185 27t-142 84q-86 -52 -192.5 -81.5t-213.5 -29.5q-272 0 -414.5 108.5t-142.5 291.5zM475 401q0 -99 65 -155t179 -56 q127 0 221 56q-76 113 -268 418q-41 -25 -70.5 -47t-61.5 -54.5t-48.5 -73.5t-16.5 -88zM819 1102q0 -84 68 -201q108 73 108 191q0 41 -22.5 69.5t-63.5 28.5q-45 0 -67.5 -24t-22.5 -64z" />
<glyph unicode="'" horiz-adv-x="462" d="M102 803v563h258v-563h-258z" />
<glyph unicode="(" horiz-adv-x="835" d="M121 616q0 281 135.5 510.5t400.5 442.5l170 -166q-194 -208 -278 -383.5t-84 -403.5q0 -230 84 -405t278 -381l-170 -166q-265 211 -400.5 440.5t-135.5 511.5z" />
<glyph unicode=")" horiz-adv-x="835" d="M8 -170q130 138 206 252.5t116.5 246t40.5 287.5q0 228 -84.5 403.5t-278.5 383.5l170 166q265 -213 401 -443t136 -510q0 -282 -136 -511.5t-401 -440.5z" />
<glyph unicode="*" horiz-adv-x="1046" d="M90 1038l135 234l250 -244q-26 96 -88 338h272l-88 -338q34 33 125 123t123 121l137 -234l-331 -94q60 -16 174.5 -47.5t154.5 -42.5l-135 -233l-248 241q35 -128 88 -338h-272l88 338q-24 -24 -78 -77.5t-94 -92t-76 -71.5l-133 233l326 90q-54 15 -166 47t-164 47z" />
<glyph unicode="+" horiz-adv-x="1155" d="M94 365v241h350v365h267v-365h350v-241h-350v-365h-267v365h-350z" />
<glyph unicode="," d="M109 -135q71 20 105.5 52t37.5 83h-137v340h344v-272q0 -136 -77 -223.5t-239 -112.5z" />
<glyph unicode="-" horiz-adv-x="917" d="M111 414v268h696v-268h-696z" />
<glyph unicode="." d="M115 0v340h344v-340h-344z" />
<glyph unicode="/" horiz-adv-x="1005" d="M61 -326l625 1809h268l-624 -1809h-269z" />
<glyph unicode="0" horiz-adv-x="1216" d="M76 664q0 108 18 205t58.5 185t101 152t151 102t203.5 38t204 -38t151.5 -102t101 -152t58.5 -185t18 -205t-18 -205t-58.5 -185.5t-101 -153t-151.5 -102.5t-204 -38t-204 38t-151 102.5t-100.5 153t-58.5 185.5t-18 205zM420 664q0 -99 9 -174t30 -134t58.5 -89.5 t90.5 -30.5t90.5 30.5t58.5 89.5t30.5 134t9.5 174t-9.5 174t-30.5 134t-58.5 89.5t-90.5 30.5t-90.5 -30.5t-58.5 -89.5t-30 -134t-9 -174z" />
<glyph unicode="1" horiz-adv-x="761" d="M10 997v193h80q187 0 291 137h242v-1327h-344v997h-269z" />
<glyph unicode="2" horiz-adv-x="1169" d="M84 934q0 185 134 298.5t366 113.5q231 0 366 -111t135 -293q0 -54 -5.5 -94t-25 -94t-55 -103t-99.5 -111t-155 -128v2q-2 -2 -49 -37q-96 -72 -166 -121h555v-256h-989v203q130 104 422 352q110 95 161.5 185t51.5 188q0 77 -41 120.5t-117 43.5q-82 0 -123.5 -49.5 t-41.5 -129.5q0 -108 75 -235l-360 61q-39 104 -39 195z" />
<glyph unicode="3" horiz-adv-x="1177" d="M84 328q0 64 29 153l336 23q-41 -86 -41 -135q0 -62 43 -101t122 -39q83 0 129 50.5t46 126.5q0 101 -63.5 145.5t-199.5 44.5h-79v205h67q117 0 176.5 44.5t59.5 123.5q0 60 -41 94.5t-107 34.5q-62 0 -97.5 -31.5t-35.5 -81.5q0 -47 41 -125l-330 35q-18 77 -18 123 q0 149 122.5 238.5t323.5 89.5q219 0 349.5 -87.5t130.5 -238.5q0 -208 -230 -303q131 -29 204 -117t73 -209q0 -80 -31 -151.5t-92 -130.5t-164.5 -94t-235.5 -35q-244 0 -365.5 96.5t-121.5 251.5z" />
<glyph unicode="4" horiz-adv-x="1241" d="M55 279v225l602 823h340v-807h183v-241h-183v-279h-338v279h-604zM358 520h301v424q-32 -45 -135 -189.5t-166 -234.5z" />
<glyph unicode="5" horiz-adv-x="1146" d="M111 317q0 35 6 62l332 45q-7 -51 -7 -74q0 -63 34 -101t93 -38q83 0 121.5 66.5t38.5 166.5q0 40 -6.5 74t-21.5 66t-44.5 50.5t-70.5 18.5q-52 0 -90 -44.5t-52 -114.5l-319 57l70 776h813v-256h-549q-11 -91 -31 -285q91 119 256 119q86 0 153.5 -25t111 -66.5t72 -99 t40.5 -119.5t12 -132q0 -96 -32 -181.5t-92.5 -153.5t-158 -108t-219.5 -40q-134 0 -234.5 33t-163 110.5t-62.5 193.5z" />
<glyph unicode="6" horiz-adv-x="1171" d="M80 623q0 119 21 225t65.5 197.5t110 158t160 104.5t208.5 38q200 0 304 -88.5t104 -245.5q0 -27 -2 -33q0 -3 -1 -13l-1 -10l-308 -53q0 1 1 18.5t1 18.5q2 10 2 31q0 61 -27.5 96t-82.5 35q-94 0 -146.5 -100t-64.5 -281q99 129 291 129q176 0 280.5 -111t104.5 -295 q0 -89 -30.5 -170t-89.5 -147.5t-157.5 -106.5t-224.5 -40q-110 0 -198 33.5t-147.5 92t-98.5 140.5t-56.5 175.5t-17.5 201.5zM440 418q0 -84 44 -137.5t114 -53.5q78 0 120 58t42 145q0 82 -38.5 140.5t-121.5 58.5q-79 0 -119.5 -61.5t-40.5 -149.5z" />
<glyph unicode="7" horiz-adv-x="1003" d="M8 1065v262h1004v-199q-110 -122 -183 -229t-128.5 -235.5t-81 -279.5t-25.5 -339v-45h-344q3 344 109 624t300 441h-651z" />
<glyph unicode="8" horiz-adv-x="1208" d="M82 385q0 114 67.5 201.5t176.5 128.5q-93 44 -141 118.5t-48 170.5q0 157 126 249.5t341 92.5t341 -92.5t126 -249.5q0 -96 -47.5 -170.5t-140.5 -118.5q115 -37 179 -122.5t64 -207.5q0 -127 -69 -219.5t-186 -139t-267 -46.5t-267 46.5t-186 139t-69 219.5zM422 406 q0 -82 49.5 -133.5t132.5 -51.5t132.5 51.5t49.5 133.5q0 78 -46.5 136t-135.5 58t-135.5 -58t-46.5 -136zM463 973q0 -78 38 -124t103 -46t103 46t38 124q0 66 -38 108.5t-103 42.5t-103 -42.5t-38 -108.5z" />
<glyph unicode="9" horiz-adv-x="1167" d="M72 889q0 73 18.5 139t58 124.5t97.5 101t141.5 67.5t185.5 25q128 0 228 -47t163 -131t95.5 -198t32.5 -251q0 -123 -15.5 -227.5t-54 -201t-98.5 -163.5t-154 -107t-215 -40q-206 0 -327.5 92.5t-121.5 249.5v10l326 53v-33q0 -61 31 -95t94 -34q96 0 140.5 103 t52.5 288q-98 -137 -293 -137q-175 0 -280 115.5t-105 296.5zM412 897q0 -52 12.5 -94.5t49 -74.5t93.5 -32q80 0 122 63t42 150q0 78 -43 134.5t-117 56.5t-116.5 -56.5t-42.5 -146.5z" />
<glyph unicode=":" d="M115 0v340h344v-340h-344zM115 510v342h344v-342h-344z" />
<glyph unicode=";" d="M109 -135q71 20 105.5 52t37.5 83h-137v340h344v-272q0 -136 -77 -223.5t-239 -112.5zM115 510v342h344v-342h-344z" />
<glyph unicode="&#x3c;" horiz-adv-x="1009" d="M61 395v178l836 433v-299l-537 -222q360 -149 537 -221v-299z" />
<glyph unicode="=" horiz-adv-x="1081" d="M113 178v230h856v-230h-856zM113 555v229h856v-229h-856z" />
<glyph unicode="&#x3e;" horiz-adv-x="1009" d="M113 -35v299l536 221l-536 222v299l835 -433v-178z" />
<glyph unicode="?" horiz-adv-x="1144" d="M90 1004q0 167 137 277t361 110q231 0 357 -111.5t126 -296.5q0 -186 -115 -324t-397 -256l-106 179q258 160 258 383q0 59 -33 98t-96 39q-66 0 -103 -33t-37 -84q0 -57 56 -143l-303 -121q-105 146 -105 283zM403 0v346h345v-346h-345z" />
<glyph unicode="@" horiz-adv-x="1552" d="M119 492q0 129 46.5 245t132 205.5t216.5 142t289 52.5q179 0 317 -67t214.5 -191.5t76.5 -288.5q0 -69 -19.5 -135t-56.5 -123t-99.5 -92t-141.5 -35q-172 0 -205 147q-37 -68 -99 -107.5t-133 -39.5q-60 0 -104.5 20.5t-68.5 56.5t-35 76.5t-11 87.5q0 162 82 262.5 t215 100.5q140 0 185 -131q6 18 19.5 54.5t18.5 49.5h158l-55 -321q-6 -27 -6 -51q0 -56 49 -56q58 0 94.5 73.5t36.5 160.5q0 182 -116.5 284.5t-317.5 102.5q-221 0 -358.5 -140t-137.5 -348q0 -214 137.5 -348.5t378.5 -134.5q239 0 467 143l70 -141q-244 -162 -543 -162 q-165 0 -297.5 49.5t-219.5 137t-133 205.5t-46 256zM682 444q0 -35 10.5 -51t36.5 -16q34 0 64.5 35.5t42.5 91.5q4 40 4 53q0 78 -49 78q-51 0 -80 -55.5t-29 -135.5z" />
<glyph unicode="A" horiz-adv-x="1507" d="M35 0l530 1366h391l521 -1366h-377l-88 254h-543q-46 -127 -90 -254h-344zM555 518h369q-23 66 -185 518z" />
<glyph unicode="B" horiz-adv-x="1388" d="M139 0v1366h666q101 0 180.5 -17.5t132.5 -47.5t88 -73t50.5 -92t15.5 -106q0 -234 -236 -323q137 -26 211 -111t74 -215q0 -79 -27.5 -146t-83.5 -120.5t-150.5 -84t-217.5 -30.5h-703zM496 266h274q201 0 201 152q0 70 -59 108.5t-158 38.5h-258v-299zM496 829h229 q96 0 146.5 39t50.5 101q0 61 -44.5 97t-138.5 36h-243v-273z" />
<glyph unicode="C" horiz-adv-x="1464" d="M70 684q0 143 47 270.5t133.5 225t221.5 154.5t300 57q255 0 406 -120t190 -341l-309 -121q-28 135 -96 217t-187 82q-102 0 -180 -58t-118 -154t-40 -212q0 -188 97 -307t260 -119q74 0 128 22t88.5 65.5t55.5 93t37 118.5l301 -108q-38 -207 -202.5 -340.5 t-407.5 -133.5q-173 0 -313 57t-228.5 155t-136 225.5t-47.5 271.5z" />
<glyph unicode="D" horiz-adv-x="1468" d="M141 0v1366h580q316 0 500 -187t184 -495q0 -309 -184 -496.5t-500 -187.5h-580zM498 276h198q165 0 259 111t94 297q0 184 -94 295t-259 111h-198v-814z" />
<glyph unicode="E" horiz-adv-x="1255" d="M137 0v1366h1024v-276h-667v-261h507v-276h-507v-277h675v-276h-1032z" />
<glyph unicode="F" horiz-adv-x="1183" d="M137 0v1366h1037v-276h-680v-271h520v-276h-520v-543h-357z" />
<glyph unicode="G" horiz-adv-x="1554" d="M70 684q0 155 48.5 284.5t139.5 223.5t228 146.5t307 52.5q227 0 377 -105.5t200 -294.5l-295 -125q-32 112 -102.5 179t-184.5 67q-110 0 -189 -59.5t-116 -155t-37 -213.5q0 -195 89.5 -313.5t252.5 -118.5q119 0 199 71t92 179h-227v237h565v-739h-225l-29 195 q-54 -99 -159 -159.5t-252 -60.5q-132 0 -243.5 37.5t-191.5 104t-136.5 156t-83.5 193.5t-27 218z" />
<glyph unicode="H" horiz-adv-x="1517" d="M139 0v1366h357v-528h526v528h356v-1366h-356v549h-526v-549h-357z" />
<glyph unicode="I" horiz-adv-x="626" d="M135 0v1366h357v-1366h-357z" />
<glyph unicode="J" horiz-adv-x="1167" d="M45 354q0 139 107 273l292 -121q-55 -80 -55 -141q0 -49 36.5 -79t100.5 -30q154 0 154 201v909h356v-881q0 -510 -520 -510q-219 0 -345 110t-126 269z" />
<glyph unicode="K" horiz-adv-x="1443" d="M141 0v1366h357v-563q79 93 238.5 281.5t238.5 281.5h426l-508 -586q70 -106 250 -376t268 -404h-412l-344 547q-20 -22 -73 -83.5t-84 -94.5v-369h-357z" />
<glyph unicode="L" horiz-adv-x="1202" d="M135 0v1366h359v-1090h657v-276h-1016z" />
<glyph unicode="M" horiz-adv-x="1867" d="M145 0v1366h451l332 -932q46 129 157.5 447t171.5 485h465v-1366h-336v918q-52 -147 -167 -463t-164 -455h-258l-336 920v-920h-316z" />
<glyph unicode="N" horiz-adv-x="1529" d="M139 0v1366h338l578 -850v850h336v-1366h-334l-582 844v-844h-336z" />
<glyph unicode="O" horiz-adv-x="1564" d="M72 684q0 143 47 270.5t135 225t224.5 154.5t303.5 57q134 0 249 -37t199 -102.5t144 -154.5t89.5 -194t29.5 -219q0 -144 -47.5 -271.5t-135.5 -225.5t-224.5 -155t-303.5 -57t-303.5 57t-224.5 155t-135 225.5t-47 271.5zM432 684q0 -183 94.5 -306.5t255.5 -123.5 t256 123.5t95 306.5q0 118 -41 214t-122 155t-188 59t-188 -59t-121.5 -155t-40.5 -214z" />
<glyph unicode="P" horiz-adv-x="1351" d="M139 0v1366h664q252 0 392 -120t140 -316q0 -195 -137.5 -316.5t-388.5 -121.5h-313v-492h-357zM496 741h266q109 0 163 48t54 126q0 76 -55.5 122t-161.5 46h-266v-342z" />
<glyph unicode="Q" horiz-adv-x="1564" d="M72 684q0 143 47 270.5t135 225t224.5 154.5t303.5 57q134 0 249 -37t199 -102.5t144 -154.5t89.5 -194t29.5 -219q0 -169 -62 -313t-187.5 -246.5t-297.5 -134.5v-29q0 -42 22 -63t70 -21q93 0 236 45l43 -180q-169 -86 -369 -86q-190 0 -277 81.5t-87 225.5v35 q-163 39 -280 141t-174.5 241.5t-57.5 303.5zM432 684q0 -183 94.5 -306.5t255.5 -123.5t256 123.5t95 306.5q0 118 -41 214t-122 155t-188 59t-188 -59t-121.5 -155t-40.5 -214z" />
<glyph unicode="R" horiz-adv-x="1488" d="M141 0v1366h725q136 0 239.5 -31t164.5 -84.5t91 -120.5t30 -145q0 -129 -69 -221.5t-202 -134.5q66 -27 100 -89.5t68 -185.5q31 -117 63.5 -195.5t92.5 -158.5h-400q-73 104 -108 240q-3 14 -12 43t-13 43q-23 79 -32 123q-16 61 -88 61h-293v-510h-357zM498 750h315 q107 0 164 50.5t57 127.5q0 155 -213 155h-323v-333z" />
<glyph unicode="S" horiz-adv-x="1363" d="M59 274l199 220q221 -248 481 -248q91 0 140 29.5t49 86.5q0 59 -58.5 95t-185.5 63q-144 31 -243 69t-171 93t-105.5 130.5t-33.5 178.5q0 180 148 290t417 110q349 0 602 -244l-176 -213q-204 188 -434 188q-91 0 -146 -29.5t-55 -84.5q0 -59 66 -99t217 -78 q131 -32 223 -68.5t159.5 -87t99.5 -118t32 -154.5q0 -193 -144.5 -310.5t-412.5 -117.5q-199 0 -372 79.5t-296 219.5z" />
<glyph unicode="T" horiz-adv-x="1290" d="M27 1090v276h1237v-276h-441v-1090h-356v1090h-440z" />
<glyph unicode="U" horiz-adv-x="1497" d="M129 504v862h356v-858q0 -117 69 -183.5t202 -66.5t200.5 66.5t67.5 183.5v858h344v-862q0 -83 -22 -159t-70 -144t-118 -118t-172.5 -79t-227.5 -29q-131 0 -237.5 29t-178.5 79t-120.5 118.5t-70.5 144t-22 158.5z" />
<glyph unicode="V" horiz-adv-x="1357" d="M12 1366h365l332 -948q44 134 151 456t162 492h338l-486 -1366h-350z" />
<glyph unicode="W" horiz-adv-x="2070" d="M47 1366h369l207 -874q234 758 270 874h332l256 -870q91 376 215 870h340l-381 -1366h-350l-250 907q-49 -167 -141 -473t-130 -434h-348z" />
<glyph unicode="X" horiz-adv-x="1525" d="M47 0l516 690q-233 338 -471 676h402l288 -428q107 164 283 428h391l-493 -659q89 -120 267 -365t249 -342h-404l-309 434q-55 -71 -166.5 -217.5t-165.5 -216.5h-387z" />
<glyph unicode="Y" horiz-adv-x="1327" d="M-14 1366h395l299 -537q223 397 305 537h373l-510 -834v-532h-356v532q-437 723 -506 834z" />
<glyph unicode="Z" horiz-adv-x="1386" d="M125 0v215l686 883h-674v268h1106v-223l-678 -875h703v-268h-1143z" />
<glyph unicode="[" horiz-adv-x="800" d="M180 -305v1806h563v-215h-219v-1376h219v-215h-563z" />
<glyph unicode="\" horiz-adv-x="1005" d="M51 1483h268l625 -1809h-268z" />
<glyph unicode="]" horiz-adv-x="800" d="M57 -90h219v1376h-219v215h564v-1806h-564v215z" />
<glyph unicode="^" horiz-adv-x="1007" d="M55 799l318 567h262l317 -567h-315l-133 321q-126 -304 -133 -321h-316z" />
<glyph unicode="_" horiz-adv-x="913" d="M-10 25h934v-144h-934v144z" />
<glyph unicode="`" horiz-adv-x="630" d="M74 1366h336l112 -334h-219z" />
<glyph unicode="a" horiz-adv-x="1163" d="M92 252q0 258 406 258q78 0 164 -6v86q0 164 -115 164q-52 0 -81.5 -21t-29.5 -61q0 -18 10 -60l-307 -71q-28 74 -28 143q0 141 117 223t331 82q228 0 337.5 -107.5t109.5 -322.5v-295q0 -35 13 -51t42 -16q18 0 72 14v-160q-75 -69 -187 -69q-199 0 -248 145 q-92 -147 -295 -147q-145 0 -228 73t-83 199zM428 252q0 -31 20.5 -47.5t57.5 -16.5q69 0 110 48t46 122q-97 -9 -149 -23.5t-68.5 -33t-16.5 -49.5z" />
<glyph unicode="b" horiz-adv-x="1191" d="M125 0v1366h346v-528q97 151 272 151q190 0 294 -140t104 -364q0 -223 -114.5 -364t-321.5 -141q-109 0 -192 66t-124 159q-8 -36 -23 -105.5t-22 -99.5h-219zM471 485q0 -118 47.5 -189t118.5 -71q76 0 118 71t42 189q0 117 -42 188.5t-118 71.5q-71 0 -118.5 -71 t-47.5 -189z" />
<glyph unicode="c" horiz-adv-x="1040" d="M53 485q0 230 135 367t377 137q370 0 416 -381l-276 -59q0 84 -33.5 140t-100.5 56q-83 0 -128.5 -69.5t-45.5 -190.5q0 -118 47 -189t134 -71q70 0 106 53t39 138l270 -76q-17 -176 -125.5 -268t-294.5 -92q-255 0 -387.5 136t-132.5 369z" />
<glyph unicode="d" horiz-adv-x="1191" d="M49 485q0 145 45.5 258t138 179.5t220.5 66.5q173 0 268 -145v522h344v-1366h-215l-47 221q-94 -241 -342 -241q-194 0 -303 141.5t-109 363.5zM395 485q0 -118 42 -189t118 -71q71 0 118.5 71t47.5 189t-47.5 189t-118.5 71q-76 0 -118 -71.5t-42 -188.5z" />
<glyph unicode="e" horiz-adv-x="1044" d="M53 485q0 141 55.5 253.5t170 181.5t272.5 69q198 0 307 -112t109 -310q0 -70 -17 -166h-549q9 -91 54.5 -140.5t126.5 -49.5q95 0 129 92l262 -59q-28 -135 -133 -199.5t-260 -64.5q-133 0 -236.5 40.5t-165.5 111t-93.5 160t-31.5 193.5zM408 600h264v25 q0 64 -28.5 101.5t-84.5 37.5q-121 0 -151 -164z" />
<glyph unicode="f" horiz-adv-x="702" d="M8 778v193h133q-14 50 -14 114q0 139 84 220t246 81q81 0 145.5 -25.5t132.5 -80.5l-108 -176q-68 53 -101 53q-69 0 -69 -84q0 -52 18 -102h207v-193h-186v-778h-344v778h-144z" />
<glyph unicode="g" horiz-adv-x="1130" d="M25 -102q0 60 52.5 106.5t133.5 71.5q-137 50 -137 176q0 127 168 174q-113 85 -113 231q0 148 125 240t332 92q110 0 192 -26q4 16 4 22q0 50 -100 53l119 187q97 -3 155 -50.5t58 -121.5q0 -91 -96 -156q126 -91 126 -240q0 -139 -122.5 -234t-335.5 -95 q-122 0 -207 28q-27 -18 -27 -37q0 -45 101 -45h219q224 0 341 -77t117 -211q0 -162 -145.5 -246t-417.5 -84q-116 0 -212 14t-171 42.5t-117 75.5t-42 110zM350 -57q0 -44 60.5 -68.5t169.5 -24.5t170 27.5t61 75.5q0 31 -34.5 50.5t-100.5 19.5h-156q-170 0 -170 -80z M453 657q0 -57 34 -96t99 -39q62 0 98.5 38.5t36.5 96.5q0 59 -35 97.5t-100 38.5t-99 -39.5t-34 -96.5z" />
<glyph unicode="h" horiz-adv-x="1216" d="M125 0v1366h344v-578q45 99 120.5 150t172.5 51q172 0 256 -110.5t84 -313.5v-565h-344v565q0 63 -25.5 100t-77.5 37q-64 0 -107 -59.5t-61 -150.5t-18 -207v-285h-344z" />
<glyph unicode="i" d="M115 0v971h344v-971h-344zM115 1044v322h344v-322h-344z" />
<glyph unicode="j" horiz-adv-x="567" d="M-53 -299l8 193q67 -17 96 -17q34 0 47 16t13 50v1028h346v-1006q0 -155 -68.5 -232t-226.5 -77q-113 0 -215 45zM111 1044v322h346v-322h-346z" />
<glyph unicode="k" horiz-adv-x="1157" d="M127 0v1366h344v-735q109 132 285 340h393l-361 -404q177 -276 365 -567h-367l-221 373q-17 -19 -51.5 -55t-42.5 -44v-274h-344z" />
<glyph unicode="l" d="M115 0v1366h344v-1366h-344z" />
<glyph unicode="m" horiz-adv-x="1869" d="M135 0v971h246l51 -258q42 131 128.5 203.5t211.5 72.5q262 0 322 -248q88 248 309 248q173 0 257.5 -111t84.5 -313v-565h-346v565q0 137 -101 137q-48 0 -85.5 -37.5t-58.5 -99.5t-31.5 -133t-10.5 -147v-285h-344v565q0 63 -25 100t-75 37q-65 0 -108 -59.5 t-61 -150.5t-18 -207v-285h-346z" />
<glyph unicode="n" horiz-adv-x="1216" d="M125 0v971h246l49 -258q42 131 129 203.5t213 72.5q172 0 256 -110.5t84 -313.5v-565h-344v565q0 63 -25.5 100t-77.5 37q-64 0 -107 -59.5t-61 -150.5t-18 -207v-285h-344z" />
<glyph unicode="o" horiz-adv-x="1142" d="M55 485q0 223 146 363.5t370 140.5q222 0 369 -140.5t147 -363.5t-147 -364t-369 -141q-223 0 -369.5 140.5t-146.5 364.5zM399 485q0 -119 46.5 -189.5t125.5 -70.5t125.5 70.5t46.5 189.5t-46.5 189.5t-125.5 70.5t-125.5 -70.5t-46.5 -189.5z" />
<glyph unicode="p" horiz-adv-x="1191" d="M125 -326v1297h217l47 -223q94 241 342 241q130 0 224 -66.5t140 -179.5t46 -258t-45 -258t-137 -180t-220 -67q-174 0 -268 147v-453h-346zM471 485q0 -118 47.5 -189t118.5 -71q76 0 118 71t42 189q0 117 -42 188.5t-118 71.5q-71 0 -118.5 -71t-47.5 -189z" />
<glyph unicode="q" horiz-adv-x="1191" d="M49 485q0 145 49 258t149.5 179.5t239.5 66.5q109 0 192 -65.5t124 -157.5q8 36 23 105.5t22 99.5h217v-1297h-344v455q-93 -149 -272 -149q-190 0 -295 141t-105 364zM395 485q0 -118 42 -189t118 -71q71 0 118.5 71t47.5 189t-47.5 189t-118.5 71q-76 0 -118 -71.5 t-42 -188.5z" />
<glyph unicode="r" horiz-adv-x="919" d="M123 0v971h235l52 -262q27 132 94.5 206t167.5 74q118 0 179.5 -66.5t61.5 -174.5q0 -121 -82 -263l-229 -16q45 113 45 166q0 63 -45 63q-68 0 -101.5 -127.5t-33.5 -326.5v-244h-344z" />
<glyph unicode="s" horiz-adv-x="974" d="M35 209l170 172q66 -85 142.5 -130.5t152.5 -45.5q80 0 80 55q0 26 -30.5 46t-103.5 44q-201 66 -277.5 144t-76.5 206q0 98 53 164.5t141 95.5t206 29q246 0 436 -180l-133 -180q-69 61 -146 99t-147 38t-70 -45q0 -20 18 -36t40.5 -26t78.5 -32q24 -12 39 -17 q82 -32 134 -59.5t95.5 -64.5t63 -84t19.5 -109q0 -148 -110.5 -230.5t-299.5 -82.5q-285 0 -475 229z" />
<glyph unicode="t" horiz-adv-x="751" d="M4 778v193h143v260l345 33v-293h217v-193h-217v-483q0 -42 14.5 -65t56.5 -23q74 0 150 20v-186q-103 -61 -250 -61q-166 0 -241 83.5t-75 241.5v473h-143z" />
<glyph unicode="u" horiz-adv-x="1216" d="M115 406v565h344v-565q0 -63 25 -100.5t77 -37.5q48 0 85 34t58.5 93t32.5 132t11 159v285h344v-971h-246l-49 258q-42 -131 -129 -204.5t-213 -73.5q-172 0 -256 111.5t-84 314.5z" />
<glyph unicode="v" horiz-adv-x="1077" d="M-2 971h358l209 -619q173 521 205 619h324l-377 -971h-322z" />
<glyph unicode="w" horiz-adv-x="1597" d="M-8 971h338l141 -588q10 35 76 255.5t98 332.5h307l174 -588q100 410 142 588h338l-320 -971h-321l-166 588q-32 -115 -96.5 -342t-69.5 -246h-322z" />
<glyph unicode="x" horiz-adv-x="1116" d="M20 0l365 492q-62 85 -195 264t-159 215h362l166 -271q66 110 164 271h362l-354 -479q65 -89 198 -268t167 -224h-363l-176 270q-150 -231 -174 -270h-363z" />
<glyph unicode="y" horiz-adv-x="1069" d="M-14 971h358l207 -619q40 117 115.5 343.5t91.5 275.5h323l-370 -955q-37 -94 -73.5 -157t-86 -111t-114.5 -70t-150 -22q-49 0 -114 12.5t-116 34.5l11 205q28 -9 76.5 -18t68.5 -9q35 0 63 9.5t44 22t30 35t19.5 37.5t13.5 40q-70 164 -205.5 488t-191.5 458z" />
<glyph unicode="z" horiz-adv-x="1026" d="M88 0v178l457 561h-443v232h838v-215l-416 -525h422v-231h-858z" />
<glyph unicode="{" horiz-adv-x="751" d="M68 522v152h57q50 0 72 24t22 70v403q0 80 19 139t50.5 95t80 58t100.5 30t119 8h117v-207h-80q-32 0 -47 -16.5t-15 -60.5v-306q0 -131 -39.5 -206t-128.5 -107q89 -32 128.5 -107t39.5 -206v-305q0 -44 15 -61t47 -17h80v-207h-117q-67 0 -119 8t-100.5 30t-80 58 t-50.5 95t-19 139v403q0 46 -22 70t-72 24h-57z" />
<glyph unicode="|" horiz-adv-x="483" d="M143 -326v1909h197v-1909h-197z" />
<glyph unicode="}" horiz-adv-x="751" d="M47 -98h80q32 0 46.5 17t14.5 61v305q0 131 39.5 206t128.5 107q-89 32 -128.5 107t-39.5 206v306q0 44 -14.5 60.5t-46.5 16.5h-80v207h117q67 0 119 -8t100.5 -30t80 -58t50 -95t18.5 -139v-403q0 -94 95 -94h57v-152h-57q-95 0 -95 -94v-403q0 -80 -18.5 -139t-50 -95 t-80 -58t-100.5 -30t-119 -8h-117v207z" />
<glyph unicode="~" horiz-adv-x="954" d="M90 502q0 86 53 146.5t152 60.5q105 0 209 -74q34 -24 48 -33.5t37.5 -20t41.5 -10.5q15 0 23 10t8 25q0 30 -33 101h170q63 -85 63 -187q0 -85 -50 -141.5t-150 -56.5q-50 0 -94.5 18t-110.5 57q-91 60 -131 60q-29 0 -29 -29q0 -34 39 -104h-178q-68 84 -68 178z" />
<glyph unicode="&#xa1;" horiz-adv-x="606" d="M125 158l121 413h114l121 -413v-484h-356v484zM131 629v342h344v-342h-344z" />
<glyph unicode="&#xa2;" horiz-adv-x="1105" d="M84 664q0 203 103 335t298 162v205h213v-205q136 -24 214.5 -120.5t99.5 -254.5l-277 -59q0 85 -33.5 141t-99.5 56q-83 0 -128.5 -69.5t-45.5 -190.5q0 -118 46.5 -189.5t133.5 -71.5q70 0 106.5 53t39.5 138l270 -76q-17 -154 -100.5 -244t-225.5 -112v-201h-213v205 q-191 36 -296 169t-105 329z" />
<glyph unicode="&#xa3;" horiz-adv-x="1447" d="M63 211q0 119 84 182.5t224 63.5q86 0 159 -33q-3 52 -26 96h-275v189h154q-92 146 -92 266q0 176 126.5 273.5t362.5 97.5q201 0 323 -86t122 -238q0 -132 -129 -274l-234 122q41 74 41 117q0 44 -31 70t-88 26q-66 0 -100.5 -34t-34.5 -95t22.5 -115t73.5 -130h285 l-10 -189h-201q10 -34 10 -78q0 -83 -41 -174q106 -106 213 -106q44 0 66.5 22t22.5 54q0 38 -32.5 66t-82.5 36l129 215q131 -7 202.5 -84t71.5 -192q0 -57 -20 -108t-61 -95t-114.5 -70t-170.5 -26q-187 0 -328 124q-118 -124 -322 -124q-135 0 -217 65t-82 166zM309 217 q0 -23 17 -39t49 -16q87 0 123 78q-59 30 -117 30q-34 0 -53 -14.5t-19 -38.5z" />
<glyph unicode="&#xa4;" horiz-adv-x="1134" d="M106 274l121 119q-82 129 -82 289q0 74 22 150.5t60 136.5q-91 87 -121 118l148 146l127 -127q82 37 186 37q110 0 185 -37l129 127l149 -148l-125 -118q84 -135 84 -285q0 -152 -84 -287q83 -79 123 -121l-147 -145l-129 129q-83 -39 -185 -39q-110 0 -184 39l-129 -129 zM430 682q0 -116 39 -176t98 -60t98.5 60.5t39.5 175.5q0 114 -39.5 175t-98.5 61t-98 -61t-39 -175z" />
<glyph unicode="&#xa5;" horiz-adv-x="1271" d="M10 1327h381l250 -514q48 98 141.5 280t120.5 234h359l-301 -522h159v-199h-272q-7 -15 -22 -40t-21 -36v-22h315v-197h-315v-311h-344v311h-316v197h316v22q-4 7 -19.5 32.5t-23.5 43.5h-273v199h162q-43 76 -145 255t-152 267z" />
<glyph unicode="&#xa6;" horiz-adv-x="483" d="M143 -326v836h197v-836h-197zM143 748v835h197v-835h-197z" />
<glyph unicode="&#xa7;" horiz-adv-x="1314" d="M90 -115l141 183q102 -88 209.5 -130t237.5 -42q174 0 174 92q0 41 -55 70t-185 63q-256 71 -366.5 158.5t-110.5 232.5q0 84 52.5 147t140.5 95q-160 103 -160 290q0 161 124.5 254t371.5 93q131 0 268 -43t239 -121l-116 -211q-80 56 -185.5 94.5t-197.5 38.5 q-72 0 -120 -21t-48 -65q0 -47 47.5 -77.5t185.5 -67.5q240 -67 338.5 -151t98.5 -228q0 -67 -39 -137.5t-103 -122.5q156 -78 156 -261q0 -73 -27.5 -135.5t-86 -114.5t-162 -82t-242.5 -30q-173 0 -329 61.5t-251 167.5zM453 551q0 -40 47 -71.5t145 -63.5q31 -11 170 -51 q27 19 41 50t14 62q0 47 -32.5 78.5t-122.5 60.5l2 -2q-7 2 -21 7t-22 6q-36 11 -133 39q-88 -57 -88 -115z" />
<glyph unicode="&#xa8;" horiz-adv-x="870" d="M100 1047v278h275v-278h-275zM496 1047v278h274v-278h-274z" />
<glyph unicode="&#xa9;" horiz-adv-x="1585" d="M82 684q0 198 92.5 360t255.5 254.5t363 92.5q150 0 282.5 -54.5t226 -148.5t147.5 -225t54 -279q0 -149 -54 -280.5t-147.5 -225.5t-225.5 -148.5t-283 -54.5q-150 0 -282 54.5t-226 148.5t-148.5 225.5t-54.5 280.5zM258 684q0 -149 67.5 -273.5t191 -199t276.5 -74.5 t276 74.5t190.5 199t67.5 273.5t-67.5 273t-190.5 198t-276 74t-276.5 -74t-191 -198t-67.5 -273zM467 684q0 147 96.5 251.5t253.5 104.5q117 0 197.5 -70.5t99.5 -187.5l-184 -55q-5 59 -33 99t-76 40q-66 0 -103.5 -48.5t-37.5 -133.5q0 -78 37 -129t104 -51 q61 0 93.5 46.5t35.5 121.5l178 -51q-6 -127 -87.5 -210t-229.5 -83q-162 0 -253 100.5t-91 255.5z" />
<glyph unicode="&#xaa;" horiz-adv-x="718" d="M88 1001q0 76 67.5 117t182.5 41q31 0 49 -2v43q0 49 -49 49q-51 0 -51 -28q0 -13 18 -50l-182 -55q-27 62 -27 101q0 78 65.5 126t184.5 48q130 0 186 -56.5t56 -165.5v-161q0 -23 12 -23q3 0 51 23v-115q-38 -41 -98 -41q-93 0 -131 61q-50 -61 -162 -61 q-76 0 -124 38.5t-48 110.5zM283 1001q0 -16 26 -16q25 0 46 15t28 40q-100 0 -100 -39z" />
<glyph unicode="&#xab;" horiz-adv-x="1456" d="M78 397v174l627 373v-311l-359 -148q64 -26 187.5 -77.5t171.5 -71.5v-309zM700 397v174l627 373v-311l-358 -148q59 -24 179.5 -75t178.5 -74v-309z" />
<glyph unicode="&#xac;" horiz-adv-x="1175" d="M84 489v242h967v-606h-267v364h-700z" />
<glyph unicode="&#xad;" horiz-adv-x="917" d="M111 414v268h696v-268h-696z" />
<glyph unicode="&#xae;" horiz-adv-x="915" d="M80 1020q0 71 25.5 137.5t72.5 118.5t120 83.5t161 31.5t160.5 -31.5t119 -83.5t72 -118.5t25.5 -137.5t-25.5 -137.5t-72 -118.5t-119 -83.5t-160.5 -31.5t-161 31.5t-120 83.5t-72.5 118.5t-25.5 137.5zM215 1020q0 -106 63 -178t181 -72q120 0 186 80h-123 q-7 6 -13 12.5t-10.5 14l-7.5 12.5t-6.5 13t-4.5 11.5t-3.5 12t-3.5 10.5q-4 17 -2 16q-5 13 -10 13h-27v-115h-127v346h193q64 0 95.5 -27.5t31.5 -76.5q0 -50 -41 -78q10 -12 18 -45q7 -48 55 -101q41 65 41 152q0 106 -61.5 178t-179.5 72t-181 -72t-63 -178zM434 1063 h45q21 0 21 10q0 12 -23 12h-43v-22z" />
<glyph unicode="&#xaf;" horiz-adv-x="823" d="M80 1069v215h663v-215h-663z" />
<glyph unicode="&#xb0;" horiz-adv-x="643" d="M55 1135q0 109 79 182.5t188 73.5t187.5 -73.5t78.5 -182.5t-78.5 -182.5t-187.5 -73.5t-188 73.5t-79 182.5zM231 1135q0 -42 27.5 -70.5t63.5 -28.5t63 28.5t27 70.5t-27 69t-63 27t-63.5 -27.5t-27.5 -68.5z" />
<glyph unicode="&#xb1;" horiz-adv-x="1236" d="M135 0v227h350v217h-350v232h350v313h267v-313h350v-232h-350v-217h350v-227h-967z" />
<glyph unicode="&#xb2;" d="M115 489v340h344v-340h-344z" />
<glyph unicode="&#xb3;" d="M115 489v340h344v-340h-344z" />
<glyph unicode="&#xb4;" horiz-adv-x="630" d="M109 1032l112 334h336l-229 -334h-219z" />
<glyph unicode="&#xb5;" horiz-adv-x="1216" d="M115 -326v1297h344v-565q0 -63 25 -100.5t77 -37.5q48 0 85 34t58.5 93t32.5 132t11 159v285h344v-971h-246l-49 258q-42 -131 -127.5 -204t-210.5 -74v-306h-344z" />
<glyph unicode="&#xb6;" horiz-adv-x="1300" d="M59 926q0 203 176 321.5t478 118.5h450v-1366h-213v1180h-78v-1180h-213v485q-119 9 -224.5 41t-190.5 85t-135 134.5t-50 180.5zM414 928q0 -93 69 -160.5t176 -89.5v502q-106 -9 -175.5 -77t-69.5 -175z" />
<glyph unicode="&#xb7;" d="M115 489v340h344v-340h-344z" />
<glyph unicode="&#xb8;" horiz-adv-x="661" d="M82 -279l41 109q4 -2 11 -5t11 -5l93 252h145l-39 -113q38 10 74 10q80 0 118.5 -40.5t38.5 -108.5q0 -77 -70.5 -120.5t-185.5 -43.5q-123 0 -237 65zM147 -180q65 -29 125 -29q74 0 74 27q0 20 -61 20q-53 0 -138 -18z" />
<glyph unicode="&#xb9;" d="M115 489v340h344v-340h-344z" />
<glyph unicode="&#xba;" horiz-adv-x="692" d="M68 1120q0 120 79 195.5t199 75.5t199.5 -75.5t79.5 -195.5q0 -119 -79.5 -193.5t-199.5 -74.5t-199 74.5t-79 193.5zM268 1120q0 -56 21.5 -87.5t56.5 -31.5q36 0 57 31.5t21 87.5t-21 87.5t-57 31.5q-35 0 -56.5 -31.5t-21.5 -87.5z" />
<glyph unicode="&#xbb;" horiz-adv-x="1456" d="M129 27v309l358 149l-358 148v311l627 -373v-174zM752 27v309l360 149l-360 148v311l626 -373v-174z" />
<glyph unicode="&#xbc;" d="M115 489v340h344v-340h-344z" />
<glyph unicode="&#xbd;" d="M115 489v340h344v-340h-344z" />
<glyph unicode="&#xbe;" d="M115 489v340h344v-340h-344z" />
<glyph unicode="&#xbf;" horiz-adv-x="1169" d="M74 63q0 158 114.5 281t397.5 242l106 -178q-142 -88 -200 -159.5t-58 -166.5q0 -59 33 -98t96 -39q66 0 102.5 32t36.5 84q0 59 -55 144l303 121q105 -149 105 -285q0 -166 -137.5 -275.5t-360.5 -109.5q-231 0 -357 111t-126 296zM389 625v346h344v-346h-344z" />
<glyph unicode="&#xc0;" horiz-adv-x="1507" d="M35 0l530 1366h391l521 -1366h-377l-88 254h-543q-46 -127 -90 -254h-344zM432 1679h346l99 -264h-242zM555 518h369q-23 66 -185 518z" />
<glyph unicode="&#xc1;" horiz-adv-x="1507" d="M35 0l530 1366h391l521 -1366h-377l-88 254h-543q-46 -127 -90 -254h-344zM555 518h369q-23 66 -185 518zM623 1415l100 264h346l-207 -264h-239z" />
<glyph unicode="&#xc2;" horiz-adv-x="1507" d="M35 0l530 1366h391l521 -1366h-377l-88 254h-543q-46 -127 -90 -254h-344zM371 1419l223 260h309l221 -260h-303l-73 117q-51 -81 -74 -117h-303zM555 518h369q-23 66 -185 518z" />
<glyph unicode="&#xc3;" horiz-adv-x="1507" d="M35 0l530 1366h391l521 -1366h-377l-88 254h-543q-46 -127 -90 -254h-344zM397 1563q0 70 53.5 118t145.5 48q52 0 92.5 -16t95.5 -52h-2q7 -5 43 -29q44 -35 68 -35q12 0 12 17q0 18 -47 41l94 96q67 -22 102.5 -68.5t35.5 -101.5q0 -71 -50 -124.5t-137 -53.5 q-68 0 -172 67q1 0 -4.5 5t-13.5 12t-15 12v-2q-23 18 -31.5 23.5t-23 12.5t-27.5 7q-18 0 -18 -16q0 -20 37 -45l-121 -101q-57 39 -87 89t-30 96zM555 518h369q-23 66 -185 518z" />
<glyph unicode="&#xc4;" horiz-adv-x="1507" d="M35 0l530 1366h391l521 -1366h-377l-88 254h-543q-46 -127 -90 -254h-344zM373 1440v254h295v-254h-295zM555 518h369q-23 66 -185 518zM811 1440v254h295v-254h-295z" />
<glyph unicode="&#xc5;" horiz-adv-x="1507" d="M35 0l518 1337q-14 35 -14 84q0 92 61.5 148.5t161.5 56.5t161.5 -56.5t61.5 -148.5q0 -51 -18 -88q66 -173 242.5 -632.5t267.5 -700.5h-377l-88 254h-543q-46 -127 -90 -254h-344zM555 518h369q-23 66 -185 518zM715 1421q0 -22 12 -38.5t35 -16.5q22 0 34.5 16.5 t12.5 38.5q0 25 -12 43.5t-35 18.5q-24 0 -35.5 -18.5t-11.5 -43.5z" />
<glyph unicode="&#xc6;" horiz-adv-x="2023" d="M43 0l530 1366h1342v-276h-846q40 -108 100 -261h586v-276h-483q41 -104 104 -277h547v-276h-815l-90 254h-543q-12 -35 -27.5 -79.5t-33.5 -96.5l-27 -78h-344zM563 518h369q-52 149 -184 518z" />
<glyph unicode="&#xc7;" horiz-adv-x="1464" d="M70 684q0 143 47 270.5t133.5 225t221.5 154.5t300 57q255 0 406 -120t190 -341l-303 -117q-57 295 -289 295q-102 0 -180 -58t-118 -154t-40 -212q0 -190 93.5 -308t263.5 -118q74 0 128.5 21.5t89.5 64t56.5 92t38.5 119.5l297 -106q-36 -198 -185.5 -327.5 t-373.5 -144.5q-4 -4 -8 -18q42 10 73 10q80 0 119 -40.5t39 -108.5q0 -76 -70.5 -120t-183.5 -44q-126 0 -237 65l40 107q15 -7 65 -22t85 -15t52.5 10t19.5 23q0 35 -58 33q-22 0 -53.5 -2.5t-52.5 -4.5l-21 -2l45 132q-154 13 -276 74t-198 156.5t-116 216t-40 257.5z " />
<glyph unicode="&#xc8;" horiz-adv-x="1255" d="M137 0v1366h1024v-276h-667v-261h507v-276h-507v-277h675v-276h-1032zM354 1679h344l101 -264h-242z" />
<glyph unicode="&#xc9;" horiz-adv-x="1255" d="M137 0v1366h1024v-276h-667v-261h507v-276h-507v-277h675v-276h-1032zM506 1415l100 264h346l-207 -264h-239z" />
<glyph unicode="&#xca;" horiz-adv-x="1255" d="M137 0v1366h1024v-276h-667v-261h507v-276h-507v-277h675v-276h-1032zM281 1419l223 260h307l223 -260h-303l-74 117q-13 -20 -38 -60.5t-35 -56.5h-303z" />
<glyph unicode="&#xcb;" horiz-adv-x="1255" d="M137 0v1366h1024v-276h-667v-261h507v-276h-507v-277h675v-276h-1032zM287 1440v254h295v-254h-295zM725 1440v254h295v-254h-295z" />
<glyph unicode="&#xcc;" horiz-adv-x="626" d="M-4 1679h344l100 -264h-241zM133 0v1366h356v-1366h-356z" />
<glyph unicode="&#xcd;" horiz-adv-x="626" d="M137 0v1366h357v-1366h-357zM186 1415l101 264h346l-207 -264h-240z" />
<glyph unicode="&#xce;" horiz-adv-x="626" d="M-63 1419l223 260h307l223 -260h-303l-74 117q-13 -20 -38 -60.5t-35 -56.5h-303zM135 0v1366h357v-1366h-357z" />
<glyph unicode="&#xcf;" horiz-adv-x="626" d="M-53 1440v254h295v-254h-295zM135 0v1366h357v-1366h-357zM385 1440v254h295v-254h-295z" />
<glyph unicode="&#xd0;" horiz-adv-x="1548" d="M51 571v224h166v571h580q316 0 501 -187t185 -495q0 -203 -82 -357.5t-238 -240.5t-366 -86h-580v571h-166zM573 276h201q164 0 258 111.5t94 296.5q0 184 -94 295t-258 111h-201v-295h306v-224h-306v-295z" />
<glyph unicode="&#xd1;" horiz-adv-x="1529" d="M139 0v1366h338l578 -850v850h336v-1366h-334l-582 844v-844h-336zM406 1563q0 71 53 118.5t145 47.5q52 0 93 -16t96 -52h-2q7 -5 43 -29q44 -35 67 -35q12 0 12 17q0 18 -47 41l95 96q66 -22 101.5 -68.5t35.5 -101.5q0 -71 -50 -124.5t-137 -53.5q-68 0 -172 67 q1 0 -4 5t-13 12t-15 12v-2q-23 18 -31.5 23.5t-23 12.5t-27.5 7q-19 0 -19 -16q0 -20 37 -45l-121 -101q-57 39 -86.5 89t-29.5 96z" />
<glyph unicode="&#xd2;" horiz-adv-x="1564" d="M72 684q0 143 47 270.5t135 225t224.5 154.5t303.5 57q134 0 249 -37t199 -102.5t144 -154.5t89.5 -194t29.5 -219q0 -144 -47.5 -271.5t-135.5 -225.5t-224.5 -155t-303.5 -57t-303.5 57t-224.5 155t-135 225.5t-47 271.5zM432 684q0 -183 94.5 -306.5t255.5 -123.5 t256 123.5t95 306.5q0 118 -41 214t-122 155t-188 59t-188 -59t-121.5 -155t-40.5 -214zM459 1679h346l98 -264h-241z" />
<glyph unicode="&#xd3;" horiz-adv-x="1564" d="M72 684q0 143 47 270.5t135 225t224.5 154.5t303.5 57q134 0 249 -37t199 -102.5t144 -154.5t89.5 -194t29.5 -219q0 -144 -47.5 -271.5t-135.5 -225.5t-224.5 -155t-303.5 -57t-303.5 57t-224.5 155t-135 225.5t-47 271.5zM432 684q0 -183 94.5 -306.5t255.5 -123.5 t256 123.5t95 306.5q0 118 -41 214t-122 155t-188 59t-188 -59t-121.5 -155t-40.5 -214zM643 1415l100 264h347l-207 -264h-240z" />
<glyph unicode="&#xd4;" horiz-adv-x="1564" d="M72 684q0 143 47 270.5t135 225t224.5 154.5t303.5 57q134 0 249 -37t199 -102.5t144 -154.5t89.5 -194t29.5 -219q0 -144 -47.5 -271.5t-135.5 -225.5t-224.5 -155t-303.5 -57t-303.5 57t-224.5 155t-135 225.5t-47 271.5zM406 1419l223 260h307l223 -260h-303l-74 117 q-13 -20 -38 -60.5t-35 -56.5h-303zM432 684q0 -183 94.5 -306.5t255.5 -123.5t256 123.5t95 306.5q0 118 -41 214t-122 155t-188 59t-188 -59t-121.5 -155t-40.5 -214z" />
<glyph unicode="&#xd5;" horiz-adv-x="1564" d="M72 684q0 143 47 270.5t135 225t224.5 154.5t303.5 57q134 0 249 -37t199 -102.5t144 -154.5t89.5 -194t29.5 -219q0 -144 -47.5 -271.5t-135.5 -225.5t-224.5 -155t-303.5 -57t-303.5 57t-224.5 155t-135 225.5t-47 271.5zM420 1563q0 71 53 118.5t145 47.5q52 0 93 -16 t96 -52h-2q7 -5 43 -29q44 -35 67 -35q15 0 15 17t-49 41l94 96q66 -22 101.5 -68.5t35.5 -101.5q0 -72 -49 -125t-137 -53q-68 0 -172 67q1 0 -4.5 5t-13.5 12t-15 12v-2q-53 43 -82 43q-7 0 -12.5 -4.5t-5.5 -11.5q0 -19 36 -45l-120 -101q-57 39 -87 89t-30 96zM432 684 q0 -183 94.5 -306.5t255.5 -123.5t256 123.5t95 306.5q0 118 -41 214t-122 155t-188 59t-188 -59t-121.5 -155t-40.5 -214z" />
<glyph unicode="&#xd6;" horiz-adv-x="1564" d="M72 684q0 143 47 270.5t135 225t224.5 154.5t303.5 57q134 0 249 -37t199 -102.5t144 -154.5t89.5 -194t29.5 -219q0 -144 -47.5 -271.5t-135.5 -225.5t-224.5 -155t-303.5 -57t-303.5 57t-224.5 155t-135 225.5t-47 271.5zM416 1440v254h295v-254h-295zM432 684 q0 -183 94.5 -306.5t255.5 -123.5t256 123.5t95 306.5q0 118 -41 214t-122 155t-188 59t-188 -59t-121.5 -155t-40.5 -214zM854 1440v254h295v-254h-295z" />
<glyph unicode="&#xd7;" horiz-adv-x="1003" d="M74 250l254 256l-254 252l170 176l256 -254q41 40 127.5 127.5t126.5 126.5l178 -178l-256 -252l256 -256l-176 -170l-254 252q-40 -38 -128.5 -126.5t-127.5 -125.5z" />
<glyph unicode="&#xd8;" horiz-adv-x="1564" d="M61 88l152 145q-141 188 -141 451q0 143 47 270.5t135 225t224.5 154.5t303.5 57q263 0 451 -144l151 152l117 -117l-153 -152q145 -189 145 -446q0 -144 -47.5 -271.5t-135.5 -225.5t-224.5 -155t-303.5 -57q-267 0 -452 142q-49 -45 -152 -148zM432 684q0 -102 33 -199 q93 92 270.5 270.5t270.5 270.5q-83 86 -224 86q-107 0 -188 -59t-121.5 -155t-40.5 -214zM557 340q83 -86 225 -86q161 0 256 123.5t95 306.5q0 84 -35 195q-355 -355 -541 -539z" />
<glyph unicode="&#xd9;" horiz-adv-x="1497" d="M129 504v862h356v-858q0 -117 69 -183.5t202 -66.5t200.5 66.5t67.5 183.5v858h344v-862q0 -83 -22 -159t-70 -144t-118 -118t-172.5 -79t-227.5 -29q-131 0 -237.5 29t-178.5 79t-120.5 118.5t-70.5 144t-22 158.5zM461 1679h344l98 -264h-241z" />
<glyph unicode="&#xda;" horiz-adv-x="1497" d="M129 504v862h356v-858q0 -117 69 -183.5t202 -66.5t200.5 66.5t67.5 183.5v858h344v-862q0 -83 -22 -159t-70 -144t-118 -118t-172.5 -79t-227.5 -29q-131 0 -237.5 29t-178.5 79t-120.5 118.5t-70.5 144t-22 158.5zM600 1415l100 264h347l-207 -264h-240z" />
<glyph unicode="&#xdb;" horiz-adv-x="1497" d="M129 504v862h356v-858q0 -117 69 -183.5t202 -66.5t200.5 66.5t67.5 183.5v858h344v-862q0 -83 -22 -159t-70 -144t-118 -118t-172.5 -79t-227.5 -29q-131 0 -237.5 29t-178.5 79t-120.5 118.5t-70.5 144t-22 158.5zM375 1419l223 260h307l223 -260h-303l-73 117 q-14 -20 -39 -61t-35 -56h-303z" />
<glyph unicode="&#xdc;" horiz-adv-x="1497" d="M129 504v862h356v-858q0 -117 69 -183.5t202 -66.5t200.5 66.5t67.5 183.5v858h344v-862q0 -83 -22 -159t-70 -144t-118 -118t-172.5 -79t-227.5 -29q-131 0 -237.5 29t-178.5 79t-120.5 118.5t-70.5 144t-22 158.5zM381 1440v254h295v-254h-295zM819 1440v254h295v-254 h-295z" />
<glyph unicode="&#xdd;" horiz-adv-x="1327" d="M-14 1366h395l299 -537q223 397 305 537h373l-510 -834v-532h-356v532q-437 723 -506 834zM549 1415l98 264h348l-207 -264h-239z" />
<glyph unicode="&#xde;" horiz-adv-x="1351" d="M139 0v1366h357v-242h307q252 0 392 -120t140 -316q0 -195 -137.5 -316.5t-388.5 -121.5h-313v-250h-357zM496 500h266q109 0 163 48t54 126q0 76 -55.5 122t-161.5 46h-266v-342z" />
<glyph unicode="&#xdf;" horiz-adv-x="1343" d="M129 0v915q0 471 510 471q220 0 348.5 -92t128.5 -250q0 -56 -20 -108t-84 -117l-35 -33q-26 -25 -38.5 -38.5t-24 -32.5t-11.5 -35q0 -29 21 -43.5t80 -36.5l30 -12q273 -107 273 -305q0 -140 -96.5 -221.5t-290.5 -81.5q-205 0 -402 110l90 205q158 -88 275 -88 q88 0 88 49q0 51 -105 84q-172 57 -238.5 125.5t-66.5 187.5q0 63 33 115t100 119q49 47 69.5 81.5t20.5 73.5q0 47 -39 73t-108 26q-164 0 -164 -187v-954h-344z" />
<glyph unicode="&#xe0;" horiz-adv-x="1163" d="M92 252q0 258 406 258q78 0 164 -6v86q0 164 -115 164q-52 0 -81.5 -21t-29.5 -61q0 -18 10 -60l-307 -71q-28 74 -28 143q0 141 117 223t331 82q228 0 337.5 -107.5t109.5 -322.5v-295q0 -35 13 -51t42 -16q18 0 72 14v-160q-75 -69 -187 -69q-199 0 -248 145 q-92 -147 -295 -147q-145 0 -228 73t-83 199zM238 1366h337l113 -334h-221zM428 252q0 -31 20.5 -47.5t57.5 -16.5q69 0 110 48t46 122q-97 -9 -149 -23.5t-68.5 -33t-16.5 -49.5z" />
<glyph unicode="&#xe1;" horiz-adv-x="1163" d="M92 252q0 258 406 258q78 0 164 -6v86q0 164 -115 164q-52 0 -81.5 -21t-29.5 -61q0 -18 10 -60l-307 -71q-28 74 -28 143q0 141 117 223t331 82q228 0 337.5 -107.5t109.5 -322.5v-295q0 -35 13 -51t42 -16q18 0 72 14v-160q-75 -69 -187 -69q-199 0 -248 145 q-92 -147 -295 -147q-145 0 -228 73t-83 199zM424 1032l113 334h337l-231 -334h-219zM428 252q0 -31 20.5 -47.5t57.5 -16.5q69 0 110 48t46 122q-97 -9 -149 -23.5t-68.5 -33t-16.5 -49.5z" />
<glyph unicode="&#xe2;" horiz-adv-x="1163" d="M92 252q0 258 406 258q78 0 164 -6v86q0 164 -115 164q-52 0 -81.5 -21t-29.5 -61q0 -18 10 -60l-307 -71q-28 74 -28 143q0 141 117 223t331 82q228 0 337.5 -107.5t109.5 -322.5v-295q0 -35 13 -51t42 -16q18 0 72 14v-160q-75 -69 -187 -69q-199 0 -248 145 q-92 -147 -295 -147q-145 0 -228 73t-83 199zM221 1028l211 338h281l213 -338h-277l-76 166q-26 -54 -77 -166h-275zM428 252q0 -31 20.5 -47.5t57.5 -16.5q69 0 110 48t46 122q-97 -9 -149 -23.5t-68.5 -33t-16.5 -49.5z" />
<glyph unicode="&#xe3;" horiz-adv-x="1163" d="M92 252q0 258 406 258q78 0 164 -6v86q0 164 -115 164q-52 0 -81.5 -21t-29.5 -61q0 -18 10 -60l-307 -71q-28 74 -28 143q0 141 117 223t331 82q228 0 337.5 -107.5t109.5 -322.5v-295q0 -35 13 -51t42 -16q18 0 72 14v-160q-75 -69 -187 -69q-199 0 -248 145 q-92 -147 -295 -147q-145 0 -228 73t-83 199zM207 1182q0 80 53.5 131t149.5 51q54 0 92.5 -17.5t89.5 -58.5q2 -2 8 -5t8 -5l-2 2q25 -20 35 -28.5t27.5 -17.5t31.5 -9q17 0 17 18q0 25 -45 64l104 94q61 -33 95 -87.5t34 -113.5q0 -76 -50.5 -129t-143.5 -53 q-83 0 -170 69q-2 1 -5.5 5.5t-17.5 13.5q-70 51 -96 51q-16 0 -16 -14q0 -21 45 -72l-127 -86q-117 83 -117 197zM428 252q0 -31 20.5 -47.5t57.5 -16.5q69 0 110 48t46 122q-97 -9 -149 -23.5t-68.5 -33t-16.5 -49.5z" />
<glyph unicode="&#xe4;" horiz-adv-x="1163" d="M92 252q0 258 406 258q78 0 164 -6v86q0 164 -115 164q-52 0 -81.5 -21t-29.5 -61q0 -18 10 -60l-307 -71q-28 74 -28 143q0 141 117 223t331 82q228 0 337.5 -107.5t109.5 -322.5v-295q0 -35 13 -51t42 -16q18 0 72 14v-160q-75 -69 -187 -69q-199 0 -248 145 q-92 -147 -295 -147q-145 0 -228 73t-83 199zM246 1047v278h276v-278h-276zM428 252q0 -31 20.5 -47.5t57.5 -16.5q69 0 110 48t46 122q-97 -9 -149 -23.5t-68.5 -33t-16.5 -49.5zM643 1047v278h275v-278h-275z" />
<glyph unicode="&#xe5;" horiz-adv-x="1163" d="M92 252q0 258 406 258q78 0 164 -6v86q0 164 -115 164q-52 0 -81.5 -21t-29.5 -61q0 -18 10 -60l-307 -71q-28 74 -28 143q0 141 117 223t331 82q228 0 337.5 -107.5t109.5 -322.5v-295q0 -35 13 -51t42 -16q18 0 72 14v-160q-75 -69 -187 -69q-199 0 -248 145 q-92 -147 -295 -147q-145 0 -228 73t-83 199zM344 1210q0 92 62.5 147.5t162.5 55.5t162 -55.5t62 -147.5t-62 -147t-162 -55t-162.5 55t-62.5 147zM428 252q0 -31 20.5 -47.5t57.5 -16.5q69 0 110 48t46 122q-97 -9 -149 -23.5t-68.5 -33t-16.5 -49.5zM524 1210 q0 -23 12 -39t33 -16q20 0 31.5 16t11.5 39q0 22 -12 40t-31 18q-20 0 -32.5 -18t-12.5 -40z" />
<glyph unicode="&#xe6;" horiz-adv-x="1671" d="M100 254q0 258 406 258q23 0 50 -1t60.5 -2.5t53.5 -2.5v86q0 72 -27.5 118t-87.5 46q-111 0 -111 -84q0 -14 11 -60l-310 -65q-26 76 -26 139q0 140 116 221.5t322 81.5q209 0 303 -155q112 155 320 155q195 0 295 -98t100 -270q0 -86 -29 -218h-528q19 -190 180 -190 q102 0 135 109l260 -62q-17 -95 -77 -159.5t-140.5 -91.5t-179.5 -27q-127 0 -218.5 48.5t-137.5 125.5q-122 -174 -361 -174q-181 0 -280 76t-99 196zM436 254q0 -64 78 -64q70 0 110.5 47.5t45.5 122.5q-97 -9 -149 -23.5t-68.5 -33t-16.5 -49.5zM1024 600h266v35 q0 61 -28 95t-82 34q-123 0 -156 -164z" />
<glyph unicode="&#xe7;" horiz-adv-x="1040" d="M53 485q0 230 135 367t377 137q370 0 416 -381l-276 -59q0 84 -33.5 140t-100.5 56q-83 0 -128.5 -69.5t-45.5 -190.5q0 -118 47 -189t134 -71q70 0 106 53t39 138l270 -76q-17 -165 -117.5 -257t-267.5 -103q-1 -1 -1.5 -3t-1.5 -6.5t-3 -9.5q31 8 70 8q81 0 120 -40.5 t39 -108.5q0 -77 -70.5 -120.5t-185.5 -43.5q-123 0 -237 65l41 109q22 -11 69.5 -25t79.5 -14q34 -1 54 8.5t20 22.5q0 11 -15.5 21t-45.5 10l-133 -19l55 154q-203 30 -306.5 160t-103.5 337z" />
<glyph unicode="&#xe8;" horiz-adv-x="1044" d="M53 485q0 141 55.5 253.5t170 181.5t272.5 69q198 0 307 -112t109 -310q0 -70 -17 -166h-549q9 -91 54.5 -140.5t126.5 -49.5q95 0 129 92l262 -59q-28 -135 -133 -199.5t-260 -64.5q-133 0 -236.5 40.5t-165.5 111t-93.5 160t-31.5 193.5zM219 1366h336l113 -334h-219z M408 600h264v25q0 64 -28.5 101.5t-84.5 37.5q-121 0 -151 -164z" />
<glyph unicode="&#xe9;" horiz-adv-x="1044" d="M53 485q0 141 55.5 253.5t170 181.5t272.5 69q198 0 307 -112t109 -310q0 -70 -17 -166h-549q9 -91 54.5 -140.5t126.5 -49.5q95 0 129 92l262 -59q-28 -135 -133 -199.5t-260 -64.5q-133 0 -236.5 40.5t-165.5 111t-93.5 160t-31.5 193.5zM408 600h264v25 q0 64 -28.5 101.5t-84.5 37.5q-121 0 -151 -164zM418 1032l112 334h336l-229 -334h-219z" />
<glyph unicode="&#xea;" horiz-adv-x="1044" d="M53 485q0 141 55.5 253.5t170 181.5t272.5 69q198 0 307 -112t109 -310q0 -70 -17 -166h-549q9 -91 54.5 -140.5t126.5 -49.5q95 0 129 92l262 -59q-28 -135 -133 -199.5t-260 -64.5q-133 0 -236.5 40.5t-165.5 111t-93.5 160t-31.5 193.5zM199 1028l213 338h280 l213 -338h-276l-78 166q-3 -7 -33.5 -71.5t-42.5 -94.5h-276zM408 600h264v25q0 64 -28.5 101.5t-84.5 37.5q-121 0 -151 -164z" />
<glyph unicode="&#xeb;" horiz-adv-x="1044" d="M53 485q0 141 55.5 253.5t170 181.5t272.5 69q198 0 307 -112t109 -310q0 -70 -17 -166h-549q9 -91 54.5 -140.5t126.5 -49.5q95 0 129 92l262 -59q-28 -135 -133 -199.5t-260 -64.5q-133 0 -236.5 40.5t-165.5 111t-93.5 160t-31.5 193.5zM227 1047v278h275v-278h-275z M408 600h264v25q0 64 -28.5 101.5t-84.5 37.5q-121 0 -151 -164zM623 1047v278h276v-278h-276z" />
<glyph unicode="&#xec;" d="M-43 1366h338l113 -334h-222zM113 0v971h344v-971h-344z" />
<glyph unicode="&#xed;" d="M117 0v971h344v-971h-344zM176 1032l113 334h338l-230 -334h-221z" />
<glyph unicode="&#xee;" d="M-66 1028l211 338h283l211 -338h-274l-78 166q-39 -79 -78 -166h-275zM115 0v971h344v-971h-344z" />
<glyph unicode="&#xef;" d="M-47 1047v278h274v-278h-274zM115 0v971h344v-971h-344zM348 1047v278h275v-278h-275z" />
<glyph unicode="&#xf0;" horiz-adv-x="1136" d="M84 414q0 182 107 299.5t282 117.5q145 0 240 -110q-22 122 -115 256q-10 -6 -94.5 -56.5t-124.5 -72.5l-92 156l192 110q-113 110 -305 213l10 39h351q94 -44 178 -113q98 57 170 97l92 -156l-127 -76q194 -237 194 -588q0 -92 -18 -173t-57 -150.5t-95.5 -119.5 t-138 -78.5t-180.5 -28.5q-114 0 -205.5 36t-148 97.5t-86 138.5t-29.5 162zM428 406q0 -78 34.5 -135.5t100.5 -57.5q69 0 109.5 55.5t40.5 137.5q0 79 -36 135.5t-104 56.5t-106.5 -53.5t-38.5 -138.5z" />
<glyph unicode="&#xf1;" horiz-adv-x="1216" d="M125 0v971h246l49 -258q42 131 129 203.5t213 72.5q172 0 256 -110.5t84 -313.5v-565h-344v565q0 63 -25.5 100t-77.5 37q-64 0 -107 -59.5t-61 -150.5t-18 -207v-285h-344zM262 1182q0 80 53.5 131t149.5 51q54 0 92.5 -17.5t89.5 -58.5q0 -1 15 -8q25 -20 35 -28.5 t27.5 -17.5t31.5 -9q16 0 16 18q0 25 -45 64l104 94q61 -33 95.5 -87.5t34.5 -113.5q0 -76 -51 -129t-144 -53q-83 0 -170 69q-2 1 -5.5 5.5t-17.5 13.5q-70 51 -96 51q-14 0 -14 -14q0 -23 43 -72l-127 -86q-117 83 -117 197z" />
<glyph unicode="&#xf2;" horiz-adv-x="1142" d="M55 485q0 223 146 363.5t370 140.5q222 0 369 -140.5t147 -363.5t-147 -364t-369 -141q-223 0 -369.5 140.5t-146.5 364.5zM231 1366h336l113 -334h-219zM399 485q0 -119 46.5 -189.5t125.5 -70.5t125.5 70.5t46.5 189.5t-46.5 189.5t-125.5 70.5t-125.5 -70.5 t-46.5 -189.5z" />
<glyph unicode="&#xf3;" horiz-adv-x="1142" d="M55 485q0 223 146 363.5t370 140.5q222 0 369 -140.5t147 -363.5t-147 -364t-369 -141q-223 0 -369.5 140.5t-146.5 364.5zM399 485q0 -119 46.5 -189.5t125.5 -70.5t125.5 70.5t46.5 189.5t-46.5 189.5t-125.5 70.5t-125.5 -70.5t-46.5 -189.5zM463 1032l112 334h336 l-229 -334h-219z" />
<glyph unicode="&#xf4;" horiz-adv-x="1142" d="M55 485q0 223 146 363.5t370 140.5q222 0 369 -140.5t147 -363.5t-147 -364t-369 -141q-223 0 -369.5 140.5t-146.5 364.5zM219 1028l211 338h283l211 -338h-275l-78 166q-26 -54 -77 -166h-275zM399 485q0 -119 46.5 -189.5t125.5 -70.5t125.5 70.5t46.5 189.5 t-46.5 189.5t-125.5 70.5t-125.5 -70.5t-46.5 -189.5z" />
<glyph unicode="&#xf5;" horiz-adv-x="1142" d="M55 485q0 223 146 363.5t370 140.5q222 0 369 -140.5t147 -363.5t-147 -364t-369 -141q-223 0 -369.5 140.5t-146.5 364.5zM215 1182q0 80 53.5 131t151.5 51q53 0 92 -17.5t90 -58.5q1 -2 6.5 -5t7.5 -5l-2 2q66 -55 95 -55q16 0 16 18q0 25 -45 64l104 94 q61 -33 95 -87.5t34 -113.5q0 -76 -50 -129t-142 -53q-82 0 -172 69q-2 1 -5.5 5.5t-17.5 13.5q-70 51 -96 51q-14 0 -14 -14q0 -23 43 -72l-127 -86q-117 83 -117 197zM399 485q0 -119 46.5 -189.5t125.5 -70.5t125.5 70.5t46.5 189.5t-46.5 189.5t-125.5 70.5 t-125.5 -70.5t-46.5 -189.5z" />
<glyph unicode="&#xf6;" horiz-adv-x="1142" d="M55 485q0 223 146 363.5t370 140.5q222 0 369 -140.5t147 -363.5t-147 -364t-369 -141q-223 0 -369.5 140.5t-146.5 364.5zM238 1047v278h274v-278h-274zM399 485q0 -119 46.5 -189.5t125.5 -70.5t125.5 70.5t46.5 189.5t-46.5 189.5t-125.5 70.5t-125.5 -70.5 t-46.5 -189.5zM633 1047v278h274v-278h-274z" />
<glyph unicode="&#xf7;" horiz-adv-x="1155" d="M94 369v233h967v-233h-967zM424 0v293h309v-293h-309zM424 678v293h309v-293h-309z" />
<glyph unicode="&#xf8;" horiz-adv-x="1167" d="M57 68l109 104q-98 131 -98 313q0 223 146 363.5t370 140.5q179 0 319 -100q61 61 111 108l94 -94l-109 -106q101 -135 101 -312q0 -223 -147 -364t-369 -141q-176 0 -320 100q-92 -92 -110 -109zM412 485q0 -46 4 -71q43 42 135 132t145 142q-45 57 -112 57 q-79 0 -125.5 -70.5t-46.5 -189.5zM471 279q45 -54 113 -54q79 0 125.5 70.5t46.5 189.5q0 31 -6 68q-47 -47 -139 -136.5t-140 -137.5z" />
<glyph unicode="&#xf9;" horiz-adv-x="1216" d="M115 406v565h344v-565q0 -63 25 -100.5t77 -37.5q48 0 85 34t58.5 93t32.5 132t11 159v285h344v-971h-246l-49 258q-42 -131 -129 -204.5t-213 -73.5q-172 0 -256 111.5t-84 314.5zM299 1366h336l115 -334h-222z" />
<glyph unicode="&#xfa;" horiz-adv-x="1216" d="M115 406v565h344v-565q0 -63 25 -100.5t77 -37.5q48 0 85 34t58.5 93t32.5 132t11 159v285h344v-971h-246l-49 258q-42 -131 -129 -204.5t-213 -73.5q-172 0 -256 111.5t-84 314.5zM473 1032l113 334h338l-232 -334h-219z" />
<glyph unicode="&#xfb;" horiz-adv-x="1216" d="M115 406v565h344v-565q0 -63 25 -100.5t77 -37.5q48 0 85 34t58.5 93t32.5 132t11 159v285h344v-971h-246l-49 258q-42 -131 -129 -204.5t-213 -73.5q-172 0 -256 111.5t-84 314.5zM268 1028l211 338h281l213 -338h-277l-75 166q-39 -79 -78 -166h-275z" />
<glyph unicode="&#xfc;" horiz-adv-x="1216" d="M115 406v565h344v-565q0 -63 25 -100.5t77 -37.5q48 0 85 34t58.5 93t32.5 132t11 159v285h344v-971h-246l-49 258q-42 -131 -129 -204.5t-213 -73.5q-172 0 -256 111.5t-84 314.5zM285 1047v278h276v-278h-276zM682 1047v278h274v-278h-274z" />
<glyph unicode="&#xfd;" horiz-adv-x="1069" d="M-14 971h358l207 -619q40 117 115.5 343.5t91.5 275.5h323l-370 -955q-37 -94 -73.5 -157t-86 -111t-114.5 -70t-150 -22q-49 0 -114 12.5t-116 34.5l11 205q28 -9 76.5 -18t68.5 -9q35 0 63 9.5t44 22t30 35t19.5 37.5t13.5 40q-70 164 -205.5 488t-191.5 458zM416 1032 l112 334h336l-229 -334h-219z" />
<glyph unicode="&#xfe;" horiz-adv-x="1185" d="M125 -326v1692h346v-506q93 129 260 129q130 0 224 -66.5t140 -179.5t46 -258t-45 -258t-137 -180t-220 -67q-83 0 -152.5 42t-115.5 105v-453h-346zM471 485q0 -118 47.5 -189t118.5 -71q76 0 118 71t42 189q0 117 -42 188.5t-118 71.5q-71 0 -118.5 -71t-47.5 -189z " />
<glyph unicode="&#xff;" horiz-adv-x="1069" d="M-14 971h358l207 -619q40 117 115.5 343.5t91.5 275.5h323l-370 -955q-37 -94 -73.5 -157t-86 -111t-114.5 -70t-150 -22q-49 0 -114 12.5t-116 34.5l11 205q28 -9 76.5 -18t68.5 -9q35 0 63 9.5t44 22t30 35t19.5 37.5t13.5 40q-70 164 -205.5 488t-191.5 458zM219 1047 v278h277v-278h-277zM616 1047v278h275v-278h-275z" />
<glyph unicode="&#x152;" horiz-adv-x="2281" d="M84 684q0 114 29.5 219t88.5 194t143 154.5t199.5 102.5t250.5 37q205 0 350 -109v84h1026v-276h-670v-261h508v-276h-508v-277h676v-276h-1032v84q-138 -109 -350 -109q-135 0 -250.5 37t-199.5 103t-143 155t-88.5 194t-29.5 220zM444 684q0 -184 94.5 -307t256.5 -123 q161 0 255.5 123.5t94.5 306.5q0 118 -40.5 214t-121.5 155t-188 59q-108 0 -189 -59t-121.5 -155t-40.5 -214z" />
<glyph unicode="&#x153;" horiz-adv-x="1757" d="M66 485q0 223 146 363.5t370 140.5q220 0 336 -162q133 162 335 162q206 0 312 -106.5t106 -302.5q0 -62 -20 -179h-549q19 -190 180 -190q101 0 135 108l260 -55q-22 -145 -128.5 -214.5t-268.5 -69.5q-118 0 -214 47.5t-146 115.5q-52 -70 -137.5 -116.5t-200.5 -46.5 q-223 0 -369.5 140.5t-146.5 364.5zM410 485q0 -119 46.5 -189.5t125.5 -70.5t125.5 70.5t46.5 189.5t-46.5 189.5t-125.5 70.5t-125.5 -70.5t-46.5 -189.5zM1108 600h266v33q0 63 -27.5 97t-82.5 34q-122 0 -156 -164z" />
<glyph unicode="&#x178;" horiz-adv-x="1327" d="M-14 1366h395l299 -537q223 397 305 537h373l-510 -834v-532h-356v532q-437 723 -506 834zM311 1440v254h295v-254h-295zM750 1440v254h294v-254h-294z" />
<glyph unicode="&#x2c6;" horiz-adv-x="827" d="M61 1028l211 338h283l211 -338h-274l-78 166q-39 -79 -78 -166h-275z" />
<glyph unicode="&#x2dc;" horiz-adv-x="847" d="M80 1182q0 80 53.5 131t149.5 51q54 0 92.5 -17.5t89.5 -58.5q2 -2 8 -5t8 -5l-2 2q25 -20 35 -28.5t27.5 -17.5t31.5 -9q17 0 17 18q0 25 -45 64l104 94q61 -33 95 -87.5t34 -113.5q0 -76 -50.5 -129t-143.5 -53q-83 0 -170 69q-2 1 -5.5 5.5t-17.5 13.5q-70 51 -96 51 q-16 0 -16 -14q0 -21 45 -72l-127 -86q-117 83 -117 197z" />
<glyph unicode="&#x2000;" horiz-adv-x="875" />
<glyph unicode="&#x2001;" horiz-adv-x="1751" />
<glyph unicode="&#x2002;" horiz-adv-x="875" />
<glyph unicode="&#x2003;" horiz-adv-x="1751" />
<glyph unicode="&#x2004;" horiz-adv-x="583" />
<glyph unicode="&#x2005;" horiz-adv-x="437" />
<glyph unicode="&#x2006;" horiz-adv-x="291" />
<glyph unicode="&#x2007;" horiz-adv-x="291" />
<glyph unicode="&#x2008;" horiz-adv-x="218" />
<glyph unicode="&#x2009;" horiz-adv-x="350" />
<glyph unicode="&#x200a;" horiz-adv-x="97" />
<glyph unicode="&#x2010;" horiz-adv-x="917" d="M111 414v268h696v-268h-696z" />
<glyph unicode="&#x2011;" horiz-adv-x="917" d="M111 414v268h696v-268h-696z" />
<glyph unicode="&#x2012;" horiz-adv-x="917" d="M111 414v268h696v-268h-696z" />
<glyph unicode="&#x2013;" horiz-adv-x="1220" d="M115 414v268h991v-268h-991z" />
<glyph unicode="&#x2014;" horiz-adv-x="1581" d="M121 414v268h1339v-268h-1339z" />
<glyph unicode="&#x2018;" horiz-adv-x="552" d="M115 784v273q0 136 76.5 223.5t238.5 114.5l35 -135q-71 -20 -106.5 -52.5t-39.5 -83.5h140v-340h-344z" />
<glyph unicode="&#x2019;" horiz-adv-x="542" d="M88 891q71 20 105.5 52t37.5 83h-137v340h344v-272q0 -136 -76.5 -223.5t-238.5 -114.5z" />
<glyph unicode="&#x201a;" d="M109 -135q71 20 105.5 52t37.5 83h-137v340h344v-272q0 -136 -77 -223.5t-239 -112.5z" />
<glyph unicode="&#x201c;" horiz-adv-x="1026" d="M123 784v273q0 136 76.5 223.5t236.5 114.5l37 -135q-72 -20 -106 -52.5t-39 -83.5h139v-340h-344zM580 784v273q0 136 77 223.5t238 114.5l35 -135q-71 -20 -105.5 -52.5t-38.5 -83.5h138v-340h-344z" />
<glyph unicode="&#x201d;" horiz-adv-x="1015" d="M96 891q71 20 105.5 52t38.5 83h-138v340h344v-272q0 -136 -77 -223.5t-238 -114.5zM553 891q72 20 106.5 52t38.5 83h-139v340h344v-272q0 -136 -76.5 -223.5t-236.5 -114.5z" />
<glyph unicode="&#x201e;" horiz-adv-x="1046" d="M117 -135q71 20 105 52t38 83h-137v340h344v-272q0 -136 -77.5 -223.5t-237.5 -112.5zM573 -135q72 20 107 52t39 83h-139v340h344v-272q0 -136 -77 -223.5t-237 -112.5z" />
<glyph unicode="&#x2022;" horiz-adv-x="712" d="M78 655q0 116 81.5 197.5t196.5 81.5q116 0 197.5 -82t81.5 -197t-81.5 -196.5t-197.5 -81.5t-197 81.5t-81 196.5z" />
<glyph unicode="&#x2026;" horiz-adv-x="1720" d="M133 0v340h344v-340h-344zM688 0v340h344v-340h-344zM1243 0v340h344v-340h-344z" />
<glyph unicode="&#x202f;" horiz-adv-x="350" />
<glyph unicode="&#x2039;" horiz-adv-x="813" d="M68 397v174l626 373v-311l-358 -148q64 -26 186.5 -77.5t171.5 -71.5v-309z" />
<glyph unicode="&#x203a;" horiz-adv-x="813" d="M119 27v309l360 149l-360 148v311l626 -373v-174z" />
<glyph unicode="&#x205f;" horiz-adv-x="437" />
<glyph unicode="&#x20ac;" horiz-adv-x="1511" d="M51 461v162h187v82h-187v161h205q44 221 194 350.5t410 129.5q228 0 363 -121t170 -328l-291 -88q-9 75 -38.5 136.5t-81.5 101.5t-118 40q-191 0 -256 -221h314v-161h-336v-41v-41h336v-162h-310q32 -102 101.5 -161.5t169.5 -59.5q221 0 262 319l285 -84 q-10 -76 -35 -145.5t-71 -134t-108 -111.5t-151.5 -75.5t-196.5 -28.5q-252 0 -408 130t-202 351h-207z" />
<glyph unicode="&#x2122;" horiz-adv-x="1239" d="M55 1217v149h484v-149h-156v-365h-170v365h-158zM563 852v514h195l100 -283q58 159 103 283h202v-514h-166v215q-13 -36 -38.5 -108t-38.5 -107h-123l-80 219v-219h-154z" />
<glyph unicode="&#x25fc;" horiz-adv-x="972" d="M0 0v973h973v-973h-973z" />
</font>
</defs>
</svg>
