<?xml version="1.0" standalone="no"?>
<!DOCTYPE svg PUBLIC "-//W3C//DTD SVG 1.1//EN" "http://www.w3.org/Graphics/SVG/1.1/DTD/svg11.dtd" >
<svg xmlns="http://www.w3.org/2000/svg">
<metadata></metadata>
<defs>
<font id="maple_regularregular" horiz-adv-x="552" >
<font-face units-per-em="2048" ascent="1536" descent="-512" />
<missing-glyph horiz-adv-x="440" />
<glyph unicode="&#xfb01;" horiz-adv-x="1185" d="M41 825v129h152q-27 88 -27 162q0 124 70.5 196t207.5 72q148 0 248 -94l-74 -114q-65 61 -145 61q-119 0 -119 -129q0 -80 33 -154h262v-129h-254v-825h-196v825h-158zM825 0v954h197v-954h-197zM825 1108v256h197v-256h-197z" />
<glyph unicode="&#xfb02;" horiz-adv-x="1185" d="M41 825v129h152q-29 92 -29 162q0 124 71.5 196t208.5 72q148 0 248 -94l-74 -114q-65 61 -145 61q-61 0 -91 -34t-30 -95q0 -73 35 -154h240v-129h-232v-825h-196v825h-158zM825 0v1364h197v-1364h-197z" />
<glyph unicode="&#xfb03;" horiz-adv-x="1847" d="M41 829v125h152q-27 88 -27 162q0 124 70.5 196t207.5 72q148 0 248 -94l-74 -114q-65 61 -145 61q-119 0 -119 -129q0 -80 33 -154h467q-27 88 -27 162q0 124 71 196t208 72q148 0 248 -94l-74 -114q-65 61 -145 61q-119 0 -119 -129q0 -80 33 -154h262v-125h-254v-829 h-197v829h-465v-829h-196v829h-158zM1487 0v954h196v-954h-196zM1487 1108v256h196v-256h-196z" />
<glyph unicode="&#xfb04;" horiz-adv-x="1847" d="M41 829v125h152q-27 88 -27 162q0 124 70.5 196t207.5 72q148 0 248 -94l-74 -114q-65 61 -145 61q-119 0 -119 -129q0 -80 33 -154h467q-27 88 -27 162q0 124 71 196t208 72q148 0 248 -94l-74 -114q-65 61 -145 61q-119 0 -119 -129q0 -80 33 -154h239v-125h-231v-829 h-197v829h-465v-829h-196v829h-158zM1487 0v1364h196v-1364h-196z" />
<glyph horiz-adv-x="0" />
<glyph horiz-adv-x="682" />
<glyph unicode=" "  horiz-adv-x="440" />
<glyph unicode="&#x09;" horiz-adv-x="440" />
<glyph unicode="&#xa0;" horiz-adv-x="440" />
<glyph unicode="!" horiz-adv-x="569" d="M174 905v459h221v-459l-90 -549h-41zM182 0v240h205v-240h-205z" />
<glyph unicode="&#x22;" horiz-adv-x="851" d="M154 842v522h145v-522h-145zM553 842v522h145v-522h-145z" />
<glyph unicode="#" horiz-adv-x="1478" d="M123 356l18 121h250l60 379h-252l20 121h250l55 346h133l-55 -346h408l55 346h133l-55 -346h254l-21 -121h-252l-59 -379h252l-19 -121h-251l-56 -356h-133l55 356h-407l-55 -356h-134l56 356h-250zM524 477h408l59 379h-407z" />
<glyph unicode="$" horiz-adv-x="1204" d="M133 238l109 112q61 -85 172.5 -155t222.5 -70q116 0 176.5 50.5t60.5 137.5q0 82 -58 142.5t-200 126.5q-235 108 -327 204.5t-92 233.5q0 139 98.5 224t267.5 97v207h160v-217q193 -42 348 -217l-106 -119q-88 98 -171 149.5t-188 51.5q-225 0 -225 -174 q0 -91 62 -147.5t221 -131.5q217 -103 306 -196t89 -225q0 -60 -23 -116t-66.5 -103.5t-114.5 -79.5t-159 -39v-209h-159v217q-114 23 -223 89.5t-181 156.5z" />
<glyph unicode="%" horiz-adv-x="1865" d="M127 967q0 94 39 178.5t118.5 141t182.5 56.5t182.5 -56.5t118.5 -141t39 -178.5t-39 -178.5t-118.5 -140.5t-182.5 -56t-182.5 56t-118.5 140.5t-39 178.5zM295 967q0 -101 46.5 -174.5t125.5 -73.5t125.5 73.5t46.5 174.5q0 102 -46.5 176t-125.5 74t-125.5 -74 t-46.5 -176zM504 0l717 1323h149l-717 -1323h-149zM1063 354q0 94 39 179t118.5 141.5t182.5 56.5t182.5 -56.5t118.5 -141.5t39 -179q0 -70 -23.5 -136.5t-65.5 -119.5t-107.5 -85.5t-143.5 -32.5t-143.5 32.5t-107.5 85.5t-65.5 119.5t-23.5 136.5zM1231 354 q0 -101 46.5 -174.5t125.5 -73.5t125.5 73.5t46.5 174.5q0 102 -46.5 176t-125.5 74t-125.5 -74t-46.5 -176z" />
<glyph unicode="&#x26;" horiz-adv-x="1626" d="M133 365q0 87 34.5 160t95 125t134.5 88.5t162 58.5q-113 182 -113 329q0 119 83.5 188.5t242.5 69.5q130 0 202.5 -71t72.5 -187q0 -101 -67 -198.5t-196 -157.5q24 -39 64.5 -108t83.5 -138q21 -34 54 -88.5t48 -79.5q51 97 51 201q0 111 -61 195l117 79 q92 -102 92 -253q0 -183 -117 -351q74 -118 166 -118q59 0 90 30t31 72q0 63 -51 94l45 80q67 -9 107 -61.5t40 -124.5q0 -91 -72.5 -157.5t-214.5 -66.5q-85 0 -142.5 28t-117.5 99q-160 -127 -387 -127q-224 0 -350.5 109t-126.5 281zM313 369q0 -111 77.5 -188t219.5 -77 q173 0 308 109q-87 132 -134 209q-34 55 -67 109t-55 90.5t-50 80.5q-49 -24 -80.5 -41t-77.5 -49.5t-73 -64.5t-47.5 -79t-20.5 -99zM635 1122q0 -120 94 -262q76 36 118 108t42 144q0 62 -30.5 101.5t-86.5 39.5q-69 0 -103 -35t-34 -96z" />
<glyph unicode="'" horiz-adv-x="452" d="M154 842v522h145v-522h-145z" />
<glyph unicode="(" horiz-adv-x="714" d="M143 612q0 245 121.5 491t349.5 462l101 -90q-193 -215 -284 -423t-91 -440t91 -439.5t284 -422.5l-101 -90q-228 217 -349.5 462t-121.5 490z" />
<glyph unicode=")" horiz-adv-x="714" d="M0 -250q193 215 284 422.5t91 439.5t-91 440t-284 423l100 90q228 -216 349.5 -462t121.5 -491t-121.5 -490t-349.5 -462z" />
<glyph unicode="*" horiz-adv-x="1089" d="M143 1079l90 156l308 -279l-86 408h180l-88 -408l309 279l90 -156l-395 -127l393 -127l-90 -155l-307 278l88 -405h-180l86 403l-305 -276l-91 155l394 127z" />
<glyph unicode="+" horiz-adv-x="1216" d="M133 403v148h393v403h164v-403h393v-148h-393v-403h-164v403h-393z" />
<glyph unicode="," d="M154 -166q64 30 88 69.5t24 96.5h-92v240h205v-199q0 -216 -197 -279z" />
<glyph unicode="-" horiz-adv-x="1003" d="M143 471v154h717v-154h-717z" />
<glyph unicode="." d="M174 0v240h205v-240h-205z" />
<glyph unicode="/" horiz-adv-x="1003" d="M113 -336l628 1821h150l-629 -1821h-149z" />
<glyph unicode="0" horiz-adv-x="1150" d="M113 662q0 105 15 200.5t50 184t87 153.5t131.5 104t178.5 39t178.5 -39t131.5 -104t87.5 -153.5t50.5 -184t15 -200.5t-15 -200.5t-50.5 -184.5t-87.5 -154t-131.5 -104t-178.5 -39q-122 0 -214.5 58.5t-145 158t-77.5 216.5t-25 249zM309 662q0 -523 266 -523 q267 0 267 523q0 522 -267 522q-266 0 -266 -522z" />
<glyph unicode="1" horiz-adv-x="733" d="M31 1063v123h55q217 0 334 137h119v-1323h-197v1063h-311z" />
<glyph unicode="2" horiz-adv-x="1116" d="M123 965q0 166 115 272t319 106q194 0 310 -100.5t116 -265.5q0 -122 -63 -238.5t-209 -259.5q-213 -209 -363 -317h635v-162h-848v162q142 125 397 360q138 128 196 223t58 213q0 109 -58 167.5t-175 58.5q-123 0 -188.5 -68t-65.5 -180q0 -102 53 -217l-190 55 q-39 95 -39 191z" />
<glyph unicode="3" horiz-adv-x="1101" d="M106 324q0 45 13 102l196 12q-20 -56 -20 -112q0 -92 61.5 -146.5t178.5 -54.5q130 0 194 72t64 178q0 127 -80.5 190.5t-235.5 63.5h-71v149h53q142 0 216.5 60t74.5 163q0 94 -61 145.5t-167 51.5q-95 0 -150 -44.5t-55 -119.5q0 -60 27 -110l-192 26q-15 49 -15 97 q0 131 107.5 213.5t285.5 82.5q186 0 300 -82.5t114 -230.5q0 -52 -14.5 -99.5t-45.5 -91t-86.5 -77t-131.5 -51.5q158 -10 240.5 -102.5t82.5 -235.5q0 -53 -13.5 -105.5t-47.5 -105.5t-84.5 -92.5t-131 -64.5t-180.5 -25q-211 0 -318.5 97t-107.5 247z" />
<glyph unicode="4" horiz-adv-x="1142" d="M61 309v144l625 870h197v-858h198v-156h-198v-309h-193v309h-629zM258 465h432v614z" />
<glyph unicode="5" horiz-adv-x="1058" d="M133 352l166 35v-12q0 -115 58.5 -184.5t177.5 -69.5q61 0 107.5 26.5t73.5 72.5t40.5 103t13.5 123q0 55 -10 103.5t-33 94t-68 72.5t-108 27q-77 0 -135 -56t-84 -134l-182 43l69 727h707v-156h-559l-56 -460q36 79 106 130.5t163 51.5q97 0 172.5 -34.5t121.5 -95.5 t69.5 -139t23.5 -169t-25 -172.5t-75 -149.5t-135.5 -108.5t-196.5 -40.5q-192 0 -296.5 95.5t-105.5 276.5z" />
<glyph unicode="6" horiz-adv-x="1099" d="M113 612q0 147 33.5 278t96.5 232.5t161 161t219 59.5q176 0 264 -90.5t88 -234.5l-193 -45q2 14 2 43q0 83 -41 130.5t-127 47.5q-144 0 -225 -158t-94 -424q54 115 130 174.5t189 59.5q189 0 285 -115.5t96 -310.5q0 -59 -14.5 -118t-48 -118t-81.5 -103.5t-122 -72.5 t-164 -28q-98 0 -176 32.5t-129.5 89t-85.5 137t-48.5 173t-14.5 200.5zM332 401q0 -128 64 -198t167 -70q66 0 114 22.5t75.5 63t40 90.5t12.5 111q0 116 -58.5 193t-175.5 77q-99 0 -169 -80t-70 -209z" />
<glyph unicode="7" horiz-adv-x="911" d="M16 1163v160h879v-147q-129 -148 -208 -265.5t-135.5 -256.5t-77 -294.5t-15.5 -359.5h-193q0 741 439 1163h-689z" />
<glyph unicode="8" horiz-adv-x="1142" d="M117 375q0 126 75 218t195 120q-215 95 -215 301q0 150 109.5 239.5t289.5 89.5t290 -89.5t110 -239.5q0 -100 -56 -176.5t-161 -124.5q116 -29 194 -121.5t78 -216.5q0 -180 -124.5 -287.5t-330.5 -107.5t-330 107.5t-124 287.5zM307 373q0 -108 70.5 -176t193.5 -68 t194 68t71 176q0 112 -71.5 185t-193.5 73q-121 0 -192.5 -73t-71.5 -185zM360 999q0 -99 59 -161t152 -62t152 62t59 161q0 88 -58 144.5t-153 56.5t-153 -56.5t-58 -144.5z" />
<glyph unicode="9" horiz-adv-x="1110" d="M113 907q0 62 16 122.5t50.5 117.5t84 100.5t122 69.5t157.5 26q98 0 176 -32.5t129.5 -89t85.5 -137t48.5 -173t14.5 -200.5q0 -112 -15 -214.5t-49.5 -198t-87 -165t-133 -111.5t-180.5 -42q-178 0 -280 93t-102 234l178 43q-2 -12 -2 -28q0 -87 55 -140t147 -53 q73 0 127.5 43t88 122t50.5 183t19 234q-40 -108 -122 -171t-197 -63q-117 0 -205 58.5t-132 155.5t-44 216zM305 903q0 -55 13 -103t39.5 -87.5t73 -62.5t108.5 -23q97 0 168 85.5t71 209.5q0 123 -62 195.5t-169 72.5q-120 0 -181 -84t-61 -203z" />
<glyph unicode=":" horiz-adv-x="532" d="M164 0v240h205v-240h-205zM164 578v239h205v-239h-205z" />
<glyph unicode=";" horiz-adv-x="532" d="M143 -166q64 31 88.5 70.5t24.5 95.5h-92v240h205v-199q0 -216 -197 -279zM164 578v239h205v-239h-205z" />
<glyph unicode="&#x3c;" horiz-adv-x="1046" d="M102 420v115l801 440v-178l-645 -320l645 -319v-178z" />
<glyph unicode="=" horiz-adv-x="1142" d="M154 209v139h835v-139h-835zM154 594v139h835v-139h-835z" />
<glyph unicode="&#x3e;" horiz-adv-x="1046" d="M143 -20v178l645 319l-645 320v178l801 -440v-115z" />
<glyph unicode="?" horiz-adv-x="1110" d="M156 1032q0 151 114 254t310 103t306.5 -106.5t110.5 -276.5q0 -182 -99 -331.5t-318 -281.5l-86 121q160 110 229.5 229t69.5 261q0 99 -57.5 158t-157.5 59q-110 0 -168 -55t-58 -146q0 -97 51 -186l-145 -72q-102 128 -102 270zM453 0v240h204v-240h-204z" />
<glyph unicode="@" horiz-adv-x="1587" d="M98 682q0 137 49 263.5t138 225.5t228.5 158.5t307.5 59.5q187 0 333 -73.5t228 -210.5t82 -317q0 -109 -32 -196.5t-106.5 -145t-182.5 -57.5q-94 0 -142.5 48t-48.5 130q0 30 6 60q-26 -106 -100 -172t-166 -66q-77 0 -127.5 36.5t-70 88t-19.5 113.5q0 172 86.5 275.5 t220.5 103.5q78 0 131 -50t62 -129l55 166h78l-57 -319q-9 -61 -9 -74q0 -108 107 -108q52 0 90.5 27.5t59.5 73.5t30.5 94.5t9.5 100.5q0 218 -139.5 352t-378.5 134q-135 0 -248.5 -50t-186.5 -133.5t-113 -189t-40 -219.5q0 -125 42 -233.5t119.5 -189t195.5 -127 t262 -46.5q282 0 512 164l57 -98q-137 -93 -274.5 -135t-304.5 -42q-176 0 -318.5 56t-234.5 153t-141.5 225t-49.5 273zM621 633q0 -133 100 -133q78 0 138.5 79.5t60.5 184.5q0 63 -31.5 98t-83.5 35q-87 0 -135.5 -76.5t-48.5 -187.5z" />
<glyph unicode="A" horiz-adv-x="1421" d="M72 0l528 1364h221l529 -1364h-209l-105 299h-651l-104 -299h-209zM446 471h529l-264 715z" />
<glyph unicode="B" horiz-adv-x="1327" d="M174 0v1364h547q218 0 341.5 -83t123.5 -249q0 -129 -76.5 -210t-239.5 -120h19q152 0 252 -91t100 -238q0 -80 -25.5 -145.5t-80 -117.5t-148.5 -81t-221 -29h-592zM379 164h377q141 0 210.5 63t69.5 172q0 219 -319 219h-338v-454zM379 782h323q130 0 204.5 61.5 t74.5 160.5q0 98 -62 147t-200 49h-340v-418z" />
<glyph unicode="C" horiz-adv-x="1431" d="M86 682q0 145 43.5 272t125.5 224.5t211.5 154t291.5 56.5q214 0 353.5 -104t186.5 -281l-198 -78q-31 120 -121 203t-227 83q-203 0 -328 -145.5t-125 -384.5q0 -241 128.5 -385.5t350.5 -144.5q164 0 255.5 86.5t121.5 238.5l188 -74q-17 -66 -45 -125t-75 -115.5 t-108 -97t-147.5 -65.5t-189.5 -25q-171 0 -305.5 56t-217.5 154t-126 224.5t-43 272.5z" />
<glyph unicode="D" horiz-adv-x="1409" d="M174 0v1364h502q147 0 269 -51t204.5 -141t128 -216t45.5 -274t-45.5 -274t-128 -216t-204.5 -141t-269 -51h-502zM379 176h276q210 0 336.5 132t126.5 374t-126.5 374t-336.5 132h-276v-1012z" />
<glyph unicode="E" horiz-adv-x="1234" d="M174 0v1364h942v-172h-737v-408h592v-168h-592v-444h743v-172h-948z" />
<glyph unicode="F" horiz-adv-x="1159" d="M174 0v1364h948v-180h-743v-416h598v-178h-598v-590h-205z" />
<glyph unicode="G" horiz-adv-x="1527" d="M92 682q0 323 187 515t509 192q207 0 350.5 -101.5t198.5 -265.5l-186 -76q-37 122 -129.5 193t-222.5 71q-229 0 -361.5 -137.5t-132.5 -390.5q0 -244 122 -387t347 -143q171 0 279 110t108 270h-280v177h483v-709h-145l-17 279q-18 -59 -53.5 -111.5t-88.5 -96.5 t-131 -70t-169 -26q-133 0 -243 37t-188 101.5t-132 154t-79.5 194t-25.5 220.5z" />
<glyph unicode="H" horiz-adv-x="1462" d="M174 0v1364h205v-580h704v580h205v-1364h-205v608h-704v-608h-205z" />
<glyph unicode="I" horiz-adv-x="573" d="M184 0v1364h205v-1364h-205z" />
<glyph unicode="J" horiz-adv-x="1075" d="M74 326q0 101 53 188l186 -61q-32 -65 -32 -131q0 -77 52.5 -123.5t151.5 -46.5q114 0 168 74t54 192v946h204v-938q0 -75 -13 -139t-45 -122.5t-81 -99.5t-124.5 -65.5t-172.5 -24.5q-178 0 -289.5 102.5t-111.5 248.5z" />
<glyph unicode="K" horiz-adv-x="1347" d="M174 0v1364h205v-674l633 674h248l-523 -565l557 -799h-239l-449 659l-227 -235v-424h-205z" />
<glyph unicode="L" horiz-adv-x="1161" d="M174 0v1364h205v-1188h700v-176h-905z" />
<glyph unicode="M" horiz-adv-x="1781" d="M174 0v1364h291l426 -1149l426 1149h291v-1364h-187v1174l-444 -1174h-172l-445 1174v-1174h-186z" />
<glyph unicode="N" horiz-adv-x="1470" d="M174 0v1364h188l742 -1055v1055h192v-1364h-182l-747 1051v-1051h-193z" />
<glyph unicode="O" horiz-adv-x="1521" d="M92 682q0 144 45.5 272t129 225t211.5 153.5t284 56.5t283.5 -56.5t211 -153.5t128.5 -225t45 -272t-45 -272t-128.5 -225t-211 -153.5t-283.5 -56.5t-284 56.5t-211.5 153.5t-129 225t-45.5 272zM305 682q0 -230 126.5 -380t330.5 -150t330.5 150t126.5 380t-126.5 380 t-330.5 150t-330.5 -150t-126.5 -380z" />
<glyph unicode="P" horiz-adv-x="1271" d="M174 0v1364h600q213 0 343 -114t130 -294q0 -181 -130 -296t-343 -115h-395v-545h-205zM379 717h369q147 0 220.5 65.5t73.5 173.5t-73 172t-221 64h-369v-475z" />
<glyph unicode="Q" horiz-adv-x="1521" d="M92 682q0 144 45.5 272t129 225t211.5 153.5t284 56.5t283.5 -56.5t211 -153.5t128.5 -225t45 -272q0 -182 -68.5 -334t-205.5 -252t-322 -116v-56q0 -66 28 -96.5t99 -30.5q106 0 221 39l24 -127q-123 -65 -272 -65q-151 0 -224 75t-73 205v62q-254 42 -399.5 236 t-145.5 460zM305 682q0 -230 126.5 -380t330.5 -150t330.5 150t126.5 380t-126.5 380t-330.5 150t-330.5 -150t-126.5 -380z" />
<glyph unicode="R" horiz-adv-x="1396" d="M174 0v1364h657q120 0 211.5 -31.5t145 -85t80 -118.5t26.5 -138q0 -155 -103 -248t-273 -116q51 -4 87.5 -17.5t61 -33.5t43.5 -58.5t31.5 -77.5t27.5 -104q29 -124 55.5 -199t69.5 -137h-223q-41 65 -88 229q-7 26 -29.5 114t-29.5 112q-27 94 -131 94h-414v-549h-205z M379 715h416q145 0 221 73t76 181q0 223 -297 223h-416v-477z" />
<glyph unicode="S" horiz-adv-x="1331" d="M119 262l129 125q211 -256 489 -256q131 0 204 63t73 160q0 89 -66 137.5t-207 75.5q-114 22 -196.5 46.5t-156 61t-118.5 83.5t-70.5 113t-25.5 151q0 163 132 265t372 102q300 0 541 -224l-111 -133q-68 80 -191 140.5t-243 60.5q-141 0 -218 -56t-77 -161 q0 -95 75 -150.5t271 -97.5q109 -23 185.5 -47t138 -56.5t97.5 -74t54.5 -96.5t18.5 -127q0 -170 -127 -281t-367 -111q-186 0 -340.5 72t-265.5 215z" />
<glyph unicode="T" horiz-adv-x="1179" d="M10 1188v176h1159v-176h-477v-1188h-205v1188h-477z" />
<glyph unicode="U" horiz-adv-x="1482" d="M164 469v895h205v-875q0 -156 96.5 -246.5t275.5 -90.5q180 0 276.5 91t96.5 246v875h205v-895q0 -97 -38 -184.5t-108.5 -157.5t-182.5 -111t-249 -41t-249 41t-182.5 111t-108 157.5t-37.5 184.5z" />
<glyph unicode="V" horiz-adv-x="1247" d="M20 1364h205l400 -1112l397 1112h205l-504 -1364h-197z" />
<glyph unicode="W" horiz-adv-x="1974" d="M41 1364h205l303 -1124l332 1124h213l338 -1124l297 1124h204l-387 -1364h-233l-326 1143l-325 -1143h-228z" />
<glyph unicode="X" horiz-adv-x="1458" d="M92 0l518 705l-467 659h226l360 -526l361 526h225l-465 -659l516 -705h-225l-412 571l-412 -571h-225z" />
<glyph unicode="Y" horiz-adv-x="1249" d="M0 1364h236l389 -627l389 627h235l-520 -807v-557h-209v557z" />
<glyph unicode="Z" horiz-adv-x="1347" d="M164 0v158l799 1040h-789v166h1014v-160l-797 -1038h817v-166h-1044z" />
<glyph unicode="[" horiz-adv-x="651" d="M174 -315v1818h395v-131h-198v-1554h198v-133h-395z" />
<glyph unicode="\" horiz-adv-x="1003" d="M113 1485h149l629 -1821h-150z" />
<glyph unicode="]" horiz-adv-x="651" d="M82 -182h199v1554h-199v131h395v-1818h-395v133z" />
<glyph unicode="^" horiz-adv-x="983" d="M102 825l306 539h167l306 -539h-176l-213 445l-213 -445h-177z" />
<glyph unicode="_" horiz-adv-x="962" d="M-2 -166h967v-80h-967v80z" />
<glyph unicode="`" horiz-adv-x="608" d="M143 1364h201l121 -291h-119z" />
<glyph unicode="a" horiz-adv-x="1118" d="M127 231q0 141 114.5 210t321.5 69q70 0 168 -10v108q0 108 -47.5 163.5t-151.5 55.5q-100 0 -157.5 -35t-57.5 -98q0 -38 21 -78l-176 -69q-29 72 -29 131q0 130 110 213.5t296 83.5q389 0 389 -393v-353q0 -54 18 -82t72 -28q23 0 51 8v-102q-14 -16 -43 -28.5 t-63 -12.5q-99 0 -153.5 50.5t-55.5 145.5q-45 -101 -124.5 -150.5t-207.5 -49.5q-135 0 -215 66.5t-80 184.5zM324 223q0 -47 33 -77.5t98 -30.5q124 0 200 75.5t76 204.5v11q-160 -9 -249.5 -31.5t-123.5 -58t-34 -93.5z" />
<glyph unicode="b" horiz-adv-x="1136" d="M164 0v1364h196v-623q25 93 111.5 163.5t204.5 70.5q119 0 206.5 -68.5t130 -180t42.5 -249.5t-46.5 -249.5t-141.5 -179.5t-224 -68q-71 0 -131 29t-98 74.5t-60.5 95t-27.5 95.5l-45 -274h-117zM360 477q0 -150 72 -244t176 -94q111 0 180.5 93.5t69.5 244.5 t-69.5 244.5t-180.5 93.5q-104 0 -176 -94t-72 -244z" />
<glyph unicode="c" horiz-adv-x="1024" d="M86 477q0 224 122 361t343 137q160 0 260.5 -80.5t118.5 -214.5l-174 -53q-12 89 -68 142.5t-141 53.5q-125 0 -192.5 -97t-67.5 -249q0 -148 77 -247t205 -99q184 0 217 203l166 -55q-56 -299 -389 -299q-221 0 -349 137.5t-128 359.5z" />
<glyph unicode="d" horiz-adv-x="1136" d="M82 477q0 138 42.5 249.5t130 180t206.5 68.5q118 0 203.5 -70.5t111.5 -163.5v623h197v-1364h-117l-45 274q-5 -46 -29 -95.5t-64 -95t-102 -74.5t-133 -29q-129 0 -221.5 68.5t-136 179t-43.5 249.5zM279 477q0 -154 64 -246t177 -92q105 0 180.5 94.5t75.5 243.5 q0 140 -76 239t-178 99q-110 0 -176.5 -94t-66.5 -244z" />
<glyph unicode="e" horiz-adv-x="1013" d="M86 477q0 225 125.5 361.5t325.5 136.5q182 0 281.5 -101.5t99.5 -287.5q0 -71 -19 -164h-604q0 -135 75.5 -217t196.5 -82q93 0 139 47.5t52 142.5l170 -47q-9 -144 -111 -215t-260 -71q-218 0 -344.5 129t-126.5 368zM297 559h428q6 35 6 66q0 96 -50 153.5t-142 57.5 q-106 0 -169.5 -78.5t-72.5 -198.5z" />
<glyph unicode="f" horiz-adv-x="651" d="M41 825v129h152q-27 88 -27 162q0 124 70.5 196t207.5 72q148 0 248 -94l-74 -114q-65 61 -145 61q-119 0 -119 -129q0 -80 33 -154h262v-129h-254v-825h-196v825h-158z" />
<glyph unicode="g" horiz-adv-x="1091" d="M57 -106q0 87 72.5 136t204.5 54q-112 22 -170 64t-58 118q0 58 54 98.5t133 53.5q-129 90 -129 239q0 139 113.5 227.5t295.5 88.5q110 0 197 -35q25 36 25 70q0 61 -58 86l131 100q88 -40 88 -125q0 -47 -29 -91t-89 -73q145 -90 145 -248q0 -128 -111.5 -221.5 t-298.5 -93.5q-123 0 -211 39q-67 -32 -67 -82q0 -86 162 -86h202q209 0 308.5 -69.5t99.5 -196.5q0 -97 -67 -166.5t-180 -103t-261 -33.5q-112 0 -201.5 14t-158 43t-105.5 78t-37 115zM262 -84q0 -75 81 -114.5t222 -39.5q143 0 224 45.5t81 122.5q0 59 -49 91t-145 32 h-154q-260 0 -260 -137zM365 657q0 -78 56 -133t152 -55t152.5 55.5t56.5 132.5q0 78 -56.5 133.5t-152.5 55.5t-152 -55.5t-56 -133.5z" />
<glyph unicode="h" horiz-adv-x="1165" d="M164 0v1364h196v-682q25 131 109.5 212t208.5 81q162 0 248 -101.5t86 -277.5v-596h-197v582q0 107 -47.5 161t-132.5 54q-126 0 -200.5 -134.5t-74.5 -353.5v-309h-196z" />
<glyph unicode="i" horiz-adv-x="524" d="M164 0v954h196v-954h-196zM164 1108v256h196v-256h-196z" />
<glyph unicode="j" horiz-adv-x="514" d="M-14 -330l4 125q45 -10 86 -10q88 0 88 92v1077h196v-1054q0 -127 -51.5 -191.5t-173.5 -64.5q-91 0 -149 26zM164 1108v256h196v-256h-196z" />
<glyph unicode="k" horiz-adv-x="1060" d="M164 0v1364h196v-834l408 424h244l-365 -366l373 -588h-227l-275 461l-158 -164v-297h-196z" />
<glyph unicode="l" horiz-adv-x="524" d="M164 0v1364h196v-1364h-196z" />
<glyph unicode="m" horiz-adv-x="1816" d="M164 0v954h117l49 -356q18 163 110 270t238 107q156 0 239 -94t89 -260q14 156 102 255t221 99q162 0 248 -101.5t86 -277.5v-596h-197v582q0 107 -47.5 161t-132.5 54q-132 0 -203 -140t-71 -376v-281h-197v582q0 107 -47.5 161t-132.5 54t-148 -69t-95 -183t-32 -256 v-289h-196z" />
<glyph unicode="n" horiz-adv-x="1165" d="M164 0v954h117l49 -356q18 163 110 270t238 107q162 0 248 -101.5t86 -277.5v-596h-197v582q0 107 -47.5 161t-132.5 54t-148 -69t-95 -183t-32 -256v-289h-196z" />
<glyph unicode="o" horiz-adv-x="1089" d="M82 477q0 142 63 257t169 178t231 63t231 -63t169 -178t63 -257t-63 -256.5t-169 -177.5t-231 -63t-231 63t-169 177.5t-63 256.5zM279 477q0 -146 75 -244t191 -98t191 98t75 244t-75 244t-191 98t-191 -98t-75 -244z" />
<glyph unicode="p" horiz-adv-x="1136" d="M164 -336v1290h117l45 -274q5 46 29 96t63.5 95t101.5 74.5t133 29.5q129 0 221.5 -68.5t136.5 -179.5t44 -250q0 -138 -42.5 -249.5t-130 -179.5t-206.5 -68q-118 0 -204.5 70t-111.5 163v-549h-196zM360 477q0 -140 76 -239t178 -99q110 0 177 94t67 244 q0 154 -64.5 246t-177.5 92q-105 0 -180.5 -94.5t-75.5 -243.5z" />
<glyph unicode="q" horiz-adv-x="1136" d="M82 477q0 138 46.5 249.5t141.5 180t224 68.5q71 0 131 -29t98 -75t60.5 -95.5t27.5 -95.5l45 274h117v-1290h-197v549q-25 -93 -111 -163t-204 -70q-119 0 -206.5 68t-130 179.5t-42.5 249.5zM279 477q0 -152 69 -245t180 -93q104 0 176 94t72 244t-72 244t-176 94 q-111 0 -180 -93t-69 -245z" />
<glyph unicode="r" horiz-adv-x="866" d="M164 0v954h119l55 -387q11 197 82.5 302.5t197.5 105.5q105 0 161.5 -61.5t56.5 -161.5t-52 -207l-174 -8q43 107 43 176q0 100 -86 100q-53 0 -94 -55t-65 -144.5t-36 -191t-12 -205.5v-217h-196z" />
<glyph unicode="s" horiz-adv-x="985" d="M102 174l97 113q155 -166 340 -166q80 0 119.5 28t39.5 76q0 32 -15.5 55.5t-66 51t-139.5 51.5q-104 29 -172 62.5t-104.5 75.5t-50 85.5t-13.5 102.5q0 119 98.5 192.5t256.5 73.5q124 0 222 -43.5t185 -134.5l-98 -111q-148 148 -309 148q-73 0 -117.5 -28t-44.5 -83 q0 -62 44 -91.5t187 -72.5q185 -57 257.5 -120.5t72.5 -176.5q0 -130 -95 -206t-272 -76q-126 0 -241 56.5t-181 137.5z" />
<glyph unicode="t" horiz-adv-x="696" d="M20 825v129h164v271l197 26v-297h248v-129h-248v-565q0 -57 22 -92t84 -35q88 0 148 14l-2 -127q-30 -18 -84.5 -29t-108.5 -11q-256 0 -256 280v565h-164z" />
<glyph unicode="u" horiz-adv-x="1165" d="M154 358v596h196v-581q0 -107 47.5 -161t132.5 -54t148 69t95 183t32 256v288h196v-954h-116l-49 356q-18 -163 -110.5 -269.5t-238.5 -106.5q-162 0 -247.5 101t-85.5 277z" />
<glyph unicode="v" horiz-adv-x="946" d="M0 954h201l272 -723l272 723h201l-403 -954h-140z" />
<glyph unicode="w" horiz-adv-x="1478" d="M14 954h187l215 -710l231 710h184l232 -710l215 710h186l-334 -954h-155l-236 778l-235 -778h-156z" />
<glyph unicode="x" horiz-adv-x="1015" d="M31 0l370 492l-340 462h211l236 -352l235 352h211l-340 -462l371 -492h-209l-268 381l-270 -381h-207z" />
<glyph unicode="y" horiz-adv-x="946" d="M0 954h201l272 -718l272 718h201q-325 -768 -409 -954q-52 -114 -89 -178.5t-81.5 -107t-92.5 -56.5t-120 -14q-82 0 -125 28l8 135q49 -18 88 -18q50 0 80.5 8.5t60 41t53 77.5t62.5 135z" />
<glyph unicode="z" horiz-adv-x="964" d="M113 0v127l534 686h-514v141h731v-141l-522 -672h528v-141h-757z" />
<glyph unicode="{" horiz-adv-x="663" d="M92 537v114q92 0 126 43.5t34 132.5v433q0 123 64.5 183t203.5 60h62v-131h-47q-43 0 -64.5 -22t-21.5 -84v-344q0 -81 -8.5 -132.5t-32 -93.5t-67.5 -66t-114 -36q70 -12 114 -36t67.5 -66t32 -93.5t8.5 -132.5v-344q0 -62 21.5 -84t64.5 -22h47v-131h-62 q-139 0 -203.5 60t-64.5 183v432q0 89 -34 133t-126 44z" />
<glyph unicode="|" horiz-adv-x="475" d="M184 -336v1923h107v-1923h-107z" />
<glyph unicode="}" horiz-adv-x="663" d="M82 -184h47q43 0 64.5 22t21.5 84v344q0 81 8 132.5t32 93.5t67.5 66t113.5 36q-70 12 -113.5 36t-67.5 66t-32 93.5t-8 132.5v344q0 62 -21.5 84t-64.5 22h-47v131h61q139 0 204 -60t65 -183v-433q0 -89 33.5 -132.5t125.5 -43.5v-114q-92 0 -125.5 -43.5t-33.5 -133.5 v-432q0 -123 -65 -183t-204 -60h-61v131z" />
<glyph unicode="~" horiz-adv-x="983" d="M143 502q0 69 41 116.5t123 47.5q53 0 107.5 -22t91.5 -48t80.5 -48t77.5 -22q61 0 61 62q0 34 -18 78h116q27 -62 27 -119q0 -74 -43 -122t-131 -48q-41 0 -94 22.5t-94.5 49t-86 49t-71.5 22.5q-58 0 -58 -55q0 -36 25 -88h-117q-37 56 -37 125z" />
<glyph unicode="&#xa1;" horiz-adv-x="569" d="M174 41l90 557h41l90 -557v-377h-221v377zM182 715v239h205v-239h-205z" />
<glyph unicode="&#xa2;" horiz-adv-x="1081" d="M113 662q0 202 101 334.5t286 156.5v211h151v-209q130 -19 210 -96t95 -195l-174 -53q-12 89 -68 143t-141 54q-125 0 -192.5 -97t-67.5 -249q0 -148 77.5 -247.5t205.5 -99.5q184 0 217 203l166 -55q-52 -272 -328 -297v-207h-151v211q-182 29 -284.5 161.5 t-102.5 330.5z" />
<glyph unicode="&#xa3;" horiz-adv-x="1370" d="M106 184q0 100 69 156.5t181 56.5q91 0 176 -39q-3 120 -45 189h-270v125h193q-56 70 -92.5 159t-36.5 168q0 157 104 250.5t303 93.5q177 0 281 -81.5t104 -217.5q0 -114 -61 -247l-160 57q53 101 53 162q0 87 -57 134.5t-162 47.5q-103 0 -163 -51t-60 -156 q0 -71 38 -157.5t99 -161.5h334l-12 -125h-260q32 -77 32 -172q0 -57 -12 -113q46 -39 66.5 -55.5t57 -42.5t59.5 -37t53.5 -20t60.5 -9q73 0 107 38t34 95q0 54 -32 95t-91 63l78 115q98 -19 150.5 -85.5t52.5 -172.5q0 -53 -16.5 -99t-50 -84.5t-93 -60.5t-137.5 -22 q-105 0 -182.5 37t-167.5 116q-87 -153 -283 -153q-114 0 -178 56t-64 148zM258 186q0 -42 24.5 -68t73.5 -26q115 0 158 137q-78 50 -147 50q-47 0 -78 -25t-31 -68z" />
<glyph unicode="&#xa4;" horiz-adv-x="1179" d="M174 246l152 151q-72 134 -72 283q0 146 72 283l-152 151l98 96l140 -139q75 62 178 62t178 -62l139 139l99 -96l-152 -151q72 -137 72 -283q0 -149 -72 -283l152 -151l-99 -96l-139 139q-75 -62 -178 -62t-178 62l-140 -139zM406 680q0 -334 184 -334t184 334t-184 334 t-184 -334z" />
<glyph unicode="&#xa5;" horiz-adv-x="1210" d="M61 1323h222l323 -621l322 621h221l-305 -530h231v-131h-305l-72 -125v-84h377v-131h-377v-322h-184v322h-377v131h377v84l-72 125h-305v131h230z" />
<glyph unicode="&#xa6;" horiz-adv-x="475" d="M184 -336v838h107v-838h-107zM184 750v837h107v-837h-107z" />
<glyph unicode="&#xa7;" horiz-adv-x="1249" d="M133 -102l92 98q76 -96 193.5 -157.5t245.5 -61.5q134 0 201 44t67 124q0 73 -65.5 116.5t-211.5 90.5q-106 34 -177.5 62t-134.5 62t-99 70.5t-56 83.5t-20 105q0 96 72.5 166t173.5 79q-104 42 -154.5 122.5t-50.5 178.5q0 140 109.5 224t316.5 84q266 0 442 -162 l-88 -113q-61 53 -160 96t-198 43q-119 0 -182.5 -43.5t-63.5 -122.5q0 -77 65 -128t232 -103q220 -68 316 -152.5t96 -203.5q0 -94 -48 -167.5t-131 -121.5q78 -26 134.5 -93.5t56.5 -162.5q0 -141 -119.5 -226t-333.5 -85q-145 0 -297.5 75t-222.5 179zM344 537 q0 -72 54 -114t190 -89l200 -72q58 32 89.5 88.5t31.5 114.5q0 76 -48 125.5t-181 93.5l-162 51q-76 -27 -125 -76t-49 -122z" />
<glyph unicode="&#xa8;" horiz-adv-x="845" d="M143 1094v204h172v-204h-172zM530 1094v204h172v-204h-172z" />
<glyph unicode="&#xa9;" horiz-adv-x="1601" d="M92 682q0 143 55 273.5t148.5 225.5t226 151.5t279.5 56.5t279 -56.5t226 -151.5t148.5 -225.5t54.5 -273.5t-54.5 -273.5t-148.5 -225.5t-226 -151.5t-279 -56.5t-279.5 56.5t-226 151.5t-148.5 225.5t-55 273.5zM195 682q0 -126 46.5 -239.5t127 -196t193 -130.5 t239.5 -48t239.5 48t193 130.5t127 196t46.5 239.5t-46.5 239.5t-127 196t-193 130.5t-239.5 48t-239.5 -48t-193 -130.5t-127 -196t-46.5 -239.5zM494 682q0 149 93.5 246.5t233.5 97.5q102 0 174 -56t95 -153l-115 -43q-8 59 -50 102.5t-108 43.5q-89 0 -145 -66t-56 -172 q0 -104 55 -171t146 -67q88 0 136 51.5t48 139.5l109 -35q0 -106 -79 -183t-214 -77q-141 0 -232 97.5t-91 244.5z" />
<glyph unicode="&#xaa;" horiz-adv-x="718" d="M123 1010q0 67 61 104t168 37q20 0 78 -4v53q0 55 -23 82t-75 27q-50 0 -78.5 -17.5t-28.5 -48.5q0 -13 11 -39l-93 -39q-16 36 -16 70q0 69 56 111.5t153 42.5q199 0 199 -203v-178q0 -27 8.5 -40.5t34.5 -13.5q16 0 28 4v-57q-16 -20 -55 -20q-49 0 -77.5 24t-31.5 68 q-48 -92 -166 -92q-72 0 -112.5 33.5t-40.5 95.5zM227 1012q0 -24 15 -40t47 -16q62 0 101.5 36t39.5 95q-115 -2 -159 -16t-44 -59z" />
<glyph unicode="&#xab;" horiz-adv-x="1351" d="M102 428v98l560 383v-182l-410 -250l410 -250v-182zM649 428v98l559 383v-182l-409 -250l409 -250v-182z" />
<glyph unicode="&#xac;" horiz-adv-x="1226" d="M123 535v147h950v-551h-164v404h-786z" />
<glyph unicode="&#xad;" horiz-adv-x="1003" d="M143 471v154h717v-154h-717z" />
<glyph unicode="&#xae;" horiz-adv-x="976" d="M123 1030q0 93 42 173.5t127 133t197 52.5t197 -52.5t126.5 -133t41.5 -173.5t-41.5 -173.5t-126.5 -132.5t-197 -52t-197 52t-127 132.5t-42 173.5zM193 1030q0 -123 79 -210t217 -87t216.5 87t78.5 210t-78.5 210t-216.5 87t-217 -87t-79 -210zM365 874v320h159 q56 0 83.5 -25.5t27.5 -60.5q0 -28 -22 -51t-62 -29q19 -3 31 -14t15.5 -21t8.5 -32q14 -58 37 -87h-68q-15 19 -38 105q-8 27 -25 27h-88v-132h-59zM424 1051h88q30 0 46.5 14.5t16.5 34.5q0 47 -63 47h-88v-96z" />
<glyph unicode="&#xaf;" horiz-adv-x="833" d="M123 1122v135h588v-135h-588z" />
<glyph unicode="&#xb0;" horiz-adv-x="700" d="M102 1149q0 102 72 171t176 69q102 0 175 -69t73 -171t-73 -171t-175 -69q-104 0 -176 69t-72 171zM221 1149q0 -59 37 -99t92 -40q56 0 92.5 39t36.5 100q0 62 -36.5 99.5t-92.5 37.5t-92.5 -38.5t-36.5 -98.5z" />
<glyph unicode="&#xb1;" horiz-adv-x="1216" d="M133 0v133h393v309h-393v140h393v372h164v-372h393v-140h-393v-309h393v-133h-950z" />
<glyph unicode="&#xb2;" d="M174 573v240h205v-240h-205z" />
<glyph unicode="&#xb3;" d="M174 573v240h205v-240h-205z" />
<glyph unicode="&#xb4;" horiz-adv-x="608" d="M143 1073l121 291h201l-203 -291h-119z" />
<glyph unicode="&#xb5;" horiz-adv-x="1165" d="M154 -336v1290h196v-594q0 -100 48 -151t132 -51q85 0 148 69t95 183t32 256v288h196v-954h-116l-49 356q-18 -163 -110.5 -269.5t-238.5 -106.5q-76 0 -137 22v-338h-196z" />
<glyph unicode="&#xb6;" horiz-adv-x="1267" d="M92 932q0 209 164.5 320.5t450.5 111.5h387v-1364h-158v1241h-127v-1241h-158v500q-82 5 -161 24.5t-151.5 56.5t-127 86t-87 117.5t-32.5 147.5zM338 936q0 -75 33.5 -140t106.5 -112t173 -57v614q-137 0 -225 -85t-88 -220z" />
<glyph unicode="&#xb7;" d="M174 573v240h205v-240h-205z" />
<glyph unicode="&#xb8;" horiz-adv-x="724" d="M133 -305l35 72q64 -41 154 -41q54 0 86 15.5t32 41.5q0 49 -102 49q-68 0 -117 -14l74 215h96l-47 -131q35 12 90 12q79 0 118.5 -36.5t39.5 -92.5q0 -69 -67 -105t-193 -36q-116 0 -199 51z" />
<glyph unicode="&#xb9;" d="M174 573v240h205v-240h-205z" />
<glyph unicode="&#xba;" horiz-adv-x="686" d="M102 1135q0 110 71 182t171 72q99 0 169.5 -72t70.5 -182t-70.5 -182t-169.5 -72q-100 0 -171 72t-71 182zM207 1135q0 -72 38.5 -121t98.5 -49t97.5 49t37.5 121q0 73 -37.5 121.5t-97.5 48.5q-61 0 -99 -48.5t-38 -121.5z" />
<glyph unicode="&#xbb;" horiz-adv-x="1351" d="M143 45v182l410 250l-410 250v182l559 -383v-98zM690 45v182l410 250l-410 250v182l559 -383v-98z" />
<glyph unicode="&#xbc;" d="M174 573v240h205v-240h-205z" />
<glyph unicode="&#xbd;" d="M174 573v240h205v-240h-205z" />
<glyph unicode="&#xbe;" d="M174 573v240h205v-240h-205z" />
<glyph unicode="&#xbf;" horiz-adv-x="1097" d="M113 27q0 167 113 312t296 253l86 -121q-95 -72 -153.5 -131.5t-98 -140t-39.5 -170.5q0 -99 57.5 -158t157.5 -59q111 0 165.5 53.5t54.5 140.5q0 75 -35 150l145 71q82 -111 82 -241q0 -68 -25 -128t-74 -108.5t-130 -77t-185 -28.5q-196 0 -306.5 106.5t-110.5 276.5z M444 715v239h205v-239h-205z" />
<glyph unicode="&#xc0;" horiz-adv-x="1421" d="M72 0l528 1364h221l529 -1364h-209l-105 299h-651l-104 -299h-209zM446 471h529l-264 715zM475 1677h205l86 -209h-133z" />
<glyph unicode="&#xc1;" horiz-adv-x="1421" d="M72 0l528 1364h221l529 -1364h-209l-105 299h-651l-104 -299h-209zM446 471h529l-264 715zM653 1468l86 209h205l-158 -209h-133z" />
<glyph unicode="&#xc2;" horiz-adv-x="1421" d="M72 0l528 1364h221l529 -1364h-209l-105 299h-651l-104 -299h-209zM410 1468l206 209h189l207 -209h-187l-114 134l-115 -134h-186zM446 471h529l-264 715z" />
<glyph unicode="&#xc3;" horiz-adv-x="1421" d="M72 0l528 1364h221l529 -1364h-209l-105 299h-651l-104 -299h-209zM369 1583q0 59 43.5 99t122.5 40q45 0 84.5 -15.5t93.5 -51.5q13 -9 37 -25.5t34.5 -24t28 -18.5t27 -16t21 -8.5t20.5 -3.5q41 0 41 38q0 36 -48 70l60 64q54 -20 84.5 -62t30.5 -90q0 -55 -40 -94 t-114 -39q-95 0 -213 80q-19 13 -45.5 32.5t-38.5 27.5t-28 15t-31 7q-37 0 -37 -35q0 -39 41 -62l-78 -77q-46 25 -71 65.5t-25 83.5zM446 471h529l-264 715z" />
<glyph unicode="&#xc4;" horiz-adv-x="1421" d="M72 0l528 1364h221l529 -1364h-209l-105 299h-651l-104 -299h-209zM397 1483v186h193v-186h-193zM446 471h529l-264 715zM831 1483v186h193v-186h-193z" />
<glyph unicode="&#xc5;" horiz-adv-x="1421" d="M72 0l508 1313q-60 54 -60 137q0 79 53.5 129.5t137.5 50.5q83 0 135.5 -50t52.5 -130q0 -84 -59 -137l510 -1313h-209l-105 299h-651l-104 -299h-209zM446 471h529l-264 715zM629 1450q0 -40 21 -66t61 -26t61 26t21 66t-21 66t-61 26t-61 -26t-21 -66z" />
<glyph unicode="&#xc6;" horiz-adv-x="1939" d="M72 0l528 1364h1221v-168h-934l160 -416h628v-164h-565l174 -448h543v-168h-686l-105 299h-651l-104 -299h-209zM446 471h529l-264 715z" />
<glyph unicode="&#xc7;" horiz-adv-x="1431" d="M86 682q0 145 43.5 272t125.5 224.5t211.5 154t291.5 56.5q214 0 353.5 -104t186.5 -281l-198 -78q-31 120 -121 203t-227 83q-203 0 -328 -145.5t-125 -384.5q0 -241 128.5 -385.5t350.5 -144.5q164 0 255.5 86.5t121.5 238.5l188 -74q-16 -63 -42.5 -119t-69.5 -110.5 t-98.5 -95.5t-133.5 -68t-170 -33l-26 -75q35 12 90 12q79 0 118.5 -36.5t39.5 -92.5q0 -65 -65.5 -103t-194.5 -38q-116 0 -199 51l35 72q64 -41 153 -41q54 0 86.5 15.5t32.5 41.5q0 49 -102 49q-68 0 -117 -14l53 159q-129 5 -236 44.5t-182.5 104.5t-127.5 153 t-76.5 189t-24.5 214z" />
<glyph unicode="&#xc8;" horiz-adv-x="1234" d="M174 0v1364h942v-172h-737v-408h592v-168h-592v-444h743v-172h-948zM442 1677h205l86 -209h-133z" />
<glyph unicode="&#xc9;" horiz-adv-x="1234" d="M174 0v1364h942v-172h-737v-408h592v-168h-592v-444h743v-172h-948zM561 1468l86 209h205l-158 -209h-133z" />
<glyph unicode="&#xca;" horiz-adv-x="1234" d="M174 0v1364h942v-172h-737v-408h592v-168h-592v-444h743v-172h-948zM354 1468l207 209h189l206 -209h-186l-115 134l-114 -134h-187z" />
<glyph unicode="&#xcb;" horiz-adv-x="1234" d="M174 0v1364h942v-172h-737v-408h592v-168h-592v-444h743v-172h-948zM328 1483v186h192v-186h-192zM762 1483v186h192v-186h-192z" />
<glyph unicode="&#xcc;" horiz-adv-x="573" d="M66 1677h204l86 -209h-133zM184 0v1364h205v-1364h-205z" />
<glyph unicode="&#xcd;" horiz-adv-x="573" d="M184 0v1364h205v-1364h-205zM215 1468l86 209h205l-158 -209h-133z" />
<glyph unicode="&#xce;" horiz-adv-x="573" d="M-14 1468l207 209h188l207 -209h-187l-114 134l-115 -134h-186zM184 0v1364h205v-1364h-205z" />
<glyph unicode="&#xcf;" horiz-adv-x="573" d="M-27 1483v186h193v-186h-193zM184 0v1364h205v-1364h-205zM408 1483v186h192v-186h-192z" />
<glyph unicode="&#xd0;" horiz-adv-x="1517" d="M119 602v160h164v602h501q196 0 344 -87.5t226 -242t78 -352.5t-78 -352.5t-226 -242t-344 -87.5h-501v602h-164zM487 176h277q210 0 336.5 132t126.5 374t-126.5 374t-336.5 132h-277v-426h332v-160h-332v-426z" />
<glyph unicode="&#xd1;" horiz-adv-x="1470" d="M174 0v1364h188l742 -1055v1055h192v-1364h-182l-747 1051v-1051h-193zM385 1583q0 59 43.5 99t122.5 40q45 0 84.5 -15.5t93.5 -51.5q13 -9 37 -25.5t34.5 -24t28 -18.5t27 -16t21 -8.5t20.5 -3.5q41 0 41 38q0 20 -10.5 35.5t-36.5 34.5l59 64q54 -20 84.5 -62 t30.5 -90q0 -55 -40 -94t-114 -39q-95 0 -213 80q-19 13 -45.5 32.5t-38.5 27.5t-28 15t-31 7q-37 0 -37 -35q0 -39 41 -62l-78 -77q-46 25 -71 65.5t-25 83.5z" />
<glyph unicode="&#xd2;" horiz-adv-x="1521" d="M92 682q0 144 45.5 272t129 225t211.5 153.5t284 56.5t283.5 -56.5t211 -153.5t128.5 -225t45 -272t-45 -272t-128.5 -225t-211 -153.5t-283.5 -56.5t-284 56.5t-211.5 153.5t-129 225t-45.5 272zM305 682q0 -230 126.5 -380t330.5 -150t330.5 150t126.5 380t-126.5 380 t-330.5 150t-330.5 -150t-126.5 -380zM520 1677h205l86 -209h-133z" />
<glyph unicode="&#xd3;" horiz-adv-x="1521" d="M92 682q0 144 45.5 272t129 225t211.5 153.5t284 56.5t283.5 -56.5t211 -153.5t128.5 -225t45 -272t-45 -272t-128.5 -225t-211 -153.5t-283.5 -56.5t-284 56.5t-211.5 153.5t-129 225t-45.5 272zM305 682q0 -230 126.5 -380t330.5 -150t330.5 150t126.5 380t-126.5 380 t-330.5 150t-330.5 -150t-126.5 -380zM686 1468l86 209h205l-158 -209h-133z" />
<glyph unicode="&#xd4;" horiz-adv-x="1521" d="M92 682q0 144 45.5 272t129 225t211.5 153.5t284 56.5t283.5 -56.5t211 -153.5t128.5 -225t45 -272t-45 -272t-128.5 -225t-211 -153.5t-283.5 -56.5t-284 56.5t-211.5 153.5t-129 225t-45.5 272zM305 682q0 -230 126.5 -380t330.5 -150t330.5 150t126.5 380t-126.5 380 t-330.5 150t-330.5 -150t-126.5 -380zM459 1468l207 209h188l207 -209h-187l-114 134l-115 -134h-186z" />
<glyph unicode="&#xd5;" horiz-adv-x="1521" d="M92 682q0 144 45.5 272t129 225t211.5 153.5t284 56.5t283.5 -56.5t211 -153.5t128.5 -225t45 -272t-45 -272t-128.5 -225t-211 -153.5t-283.5 -56.5t-284 56.5t-211.5 153.5t-129 225t-45.5 272zM305 682q0 -230 126.5 -380t330.5 -150t330.5 150t126.5 380t-126.5 380 t-330.5 150t-330.5 -150t-126.5 -380zM399 1583q0 59 43.5 99t122.5 40q45 0 84.5 -15.5t93.5 -51.5q13 -9 37 -25.5t34.5 -24t28 -18.5t27 -16t21 -8.5t20.5 -3.5q41 0 41 38q0 20 -10.5 35.5t-36.5 34.5l60 64q54 -20 84 -62t30 -90q0 -55 -39.5 -94t-113.5 -39 q-95 0 -213 80q-18 13 -45.5 32.5t-39.5 27.5t-28 15t-31 7q-37 0 -37 -35q0 -39 41 -62l-77 -77q-46 26 -71.5 66t-25.5 83z" />
<glyph unicode="&#xd6;" horiz-adv-x="1521" d="M92 682q0 144 45.5 272t129 225t211.5 153.5t284 56.5t283.5 -56.5t211 -153.5t128.5 -225t45 -272t-45 -272t-128.5 -225t-211 -153.5t-283.5 -56.5t-284 56.5t-211.5 153.5t-129 225t-45.5 272zM305 682q0 -230 126.5 -380t330.5 -150t330.5 150t126.5 380t-126.5 380 t-330.5 150t-330.5 -150t-126.5 -380zM446 1483v186h193v-186h-193zM881 1483v186h192v-186h-192z" />
<glyph unicode="&#xd7;" horiz-adv-x="1007" d="M113 176l280 281l-280 280l110 111l281 -281l280 281l111 -111l-281 -280l281 -281l-111 -110l-280 280l-281 -280z" />
<glyph unicode="&#xd8;" horiz-adv-x="1521" d="M92 61l148 158q-148 193 -148 463q0 144 45.5 272t129 225t211.5 153.5t284 56.5q255 0 434 -152l141 152l93 -86l-148 -158q148 -193 148 -463q0 -144 -45 -272t-128.5 -225t-211 -153.5t-283.5 -56.5q-257 0 -436 152l-144 -152zM305 682q0 -178 76 -311l680 723 q-121 118 -299 118q-204 0 -330.5 -150t-126.5 -380zM459 270q121 -118 303 -118q204 0 330.5 150t126.5 380q0 174 -78 311z" />
<glyph unicode="&#xd9;" horiz-adv-x="1482" d="M164 469v895h205v-875q0 -156 96.5 -246.5t275.5 -90.5q180 0 276.5 91t96.5 246v875h205v-895q0 -97 -38 -184.5t-108.5 -157.5t-182.5 -111t-249 -41t-249 41t-182.5 111t-108 157.5t-37.5 184.5zM532 1677h205l86 -209h-133z" />
<glyph unicode="&#xda;" horiz-adv-x="1482" d="M164 469v895h205v-875q0 -156 96.5 -246.5t275.5 -90.5q180 0 276.5 91t96.5 246v875h205v-895q0 -97 -38 -184.5t-108.5 -157.5t-182.5 -111t-249 -41t-249 41t-182.5 111t-108 157.5t-37.5 184.5zM645 1468l86 209h205l-158 -209h-133z" />
<glyph unicode="&#xdb;" horiz-adv-x="1482" d="M164 469v895h205v-875q0 -156 96.5 -246.5t275.5 -90.5q180 0 276.5 91t96.5 246v875h205v-895q0 -97 -38 -184.5t-108.5 -157.5t-182.5 -111t-249 -41t-249 41t-182.5 111t-108 157.5t-37.5 184.5zM440 1468l207 209h189l206 -209h-186l-115 134l-114 -134h-187z" />
<glyph unicode="&#xdc;" horiz-adv-x="1482" d="M164 469v895h205v-875q0 -156 96.5 -246.5t275.5 -90.5q180 0 276.5 91t96.5 246v875h205v-895q0 -97 -38 -184.5t-108.5 -157.5t-182.5 -111t-249 -41t-249 41t-182.5 111t-108 157.5t-37.5 184.5zM430 1483v186h193v-186h-193zM864 1483v186h193v-186h-193z" />
<glyph unicode="&#xdd;" horiz-adv-x="1249" d="M0 1364h236l389 -627l389 627h235l-520 -807v-557h-209v557zM551 1468l86 209h205l-158 -209h-133z" />
<glyph unicode="&#xde;" horiz-adv-x="1298" d="M174 0v1364h205v-264h395q213 0 343 -114t130 -294q0 -181 -130 -296t-343 -115h-395v-281h-205zM379 453h369q147 0 220.5 65.5t73.5 173.5t-73 172t-221 64h-369v-475z" />
<glyph unicode="&#xdf;" horiz-adv-x="1241" d="M164 0v961q0 423 418 423q51 0 101 -7.5t104.5 -28t95.5 -52t67.5 -85t26.5 -121.5q0 -67 -27 -114t-88 -110q-16 -16 -48.5 -46.5t-50.5 -48.5t-34 -46.5t-16 -56.5q0 -12 2 -22t7.5 -19t10 -15.5t16.5 -13.5t18.5 -11t24.5 -11t27 -10t32.5 -11t35.5 -12 q158 -55 223.5 -122.5t65.5 -168.5q0 -127 -80 -199.5t-246 -72.5q-123 0 -200.5 23.5t-168.5 82.5l64 129q66 -45 148 -69.5t151 -24.5q67 0 103 28t36 70q0 45 -33.5 80.5t-126.5 62.5q-176 52 -241.5 121.5t-65.5 180.5q0 117 152 249q57 49 84.5 91t27.5 92 q0 64 -52 102.5t-140 38.5q-46 0 -84.5 -13t-72 -41t-52.5 -79.5t-19 -122.5v-981h-196z" />
<glyph unicode="&#xe0;" horiz-adv-x="1118" d="M127 231q0 141 114.5 210t321.5 69q70 0 168 -10v108q0 108 -47.5 163.5t-151.5 55.5q-100 0 -157.5 -35t-57.5 -98q0 -38 21 -78l-176 -69q-29 72 -29 131q0 130 110 213.5t296 83.5q389 0 389 -393v-353q0 -54 18 -82t72 -28q23 0 51 8v-102q-14 -16 -43 -28.5 t-63 -12.5q-99 0 -153.5 50.5t-55.5 145.5q-45 -101 -124.5 -150.5t-207.5 -49.5q-135 0 -215 66.5t-80 184.5zM283 1364h200l121 -291h-119zM324 223q0 -47 33 -77.5t98 -30.5q124 0 200 75.5t76 204.5v11q-160 -9 -249.5 -31.5t-123.5 -58t-34 -93.5z" />
<glyph unicode="&#xe1;" horiz-adv-x="1118" d="M127 231q0 141 114.5 210t321.5 69q70 0 168 -10v108q0 108 -47.5 163.5t-151.5 55.5q-100 0 -157.5 -35t-57.5 -98q0 -38 21 -78l-176 -69q-29 72 -29 131q0 130 110 213.5t296 83.5q389 0 389 -393v-353q0 -54 18 -82t72 -28q23 0 51 8v-102q-14 -16 -43 -28.5 t-63 -12.5q-99 0 -153.5 50.5t-55.5 145.5q-45 -101 -124.5 -150.5t-207.5 -49.5q-135 0 -215 66.5t-80 184.5zM324 223q0 -47 33 -77.5t98 -30.5q124 0 200 75.5t76 204.5v11q-160 -9 -249.5 -31.5t-123.5 -58t-34 -93.5zM444 1073l121 291h201l-203 -291h-119z" />
<glyph unicode="&#xe2;" horiz-adv-x="1118" d="M127 231q0 141 114.5 210t321.5 69q70 0 168 -10v108q0 108 -47.5 163.5t-151.5 55.5q-100 0 -157.5 -35t-57.5 -98q0 -38 21 -78l-176 -69q-29 72 -29 131q0 130 110 213.5t296 83.5q389 0 389 -393v-353q0 -54 18 -82t72 -28q23 0 51 8v-102q-14 -16 -43 -28.5 t-63 -12.5q-99 0 -153.5 50.5t-55.5 145.5q-45 -101 -124.5 -150.5t-207.5 -49.5q-135 0 -215 66.5t-80 184.5zM264 1073l191 291h168l190 -291h-160l-114 207l-115 -207h-160zM324 223q0 -47 33 -77.5t98 -30.5q124 0 200 75.5t76 204.5v11q-160 -9 -249.5 -31.5 t-123.5 -58t-34 -93.5z" />
<glyph unicode="&#xe3;" horiz-adv-x="1118" d="M127 231q0 141 114.5 210t321.5 69q70 0 168 -10v108q0 108 -47.5 163.5t-151.5 55.5q-100 0 -157.5 -35t-57.5 -98q0 -38 21 -78l-176 -69q-29 72 -29 131q0 130 110 213.5t296 83.5q389 0 389 -393v-353q0 -54 18 -82t72 -28q23 0 51 8v-102q-14 -16 -43 -28.5 t-63 -12.5q-99 0 -153.5 50.5t-55.5 145.5q-45 -101 -124.5 -150.5t-207.5 -49.5q-135 0 -215 66.5t-80 184.5zM197 1198q0 65 46 110.5t128 45.5q51 0 88.5 -18.5t83.5 -57.5q14 -12 37 -32t33.5 -28.5t25 -19t26 -14.5t23.5 -4q28 0 42.5 15t14.5 40q0 49 -49 86l68 59 q96 -60 96 -161q0 -64 -44.5 -108t-123.5 -44q-36 0 -66.5 11.5t-49 24t-68.5 50.5q-13 10 -36 29.5t-35 28.5t-29.5 17.5t-32.5 8.5q-25 0 -39 -14t-14 -37q0 -44 40 -84l-79 -62q-86 62 -86 158zM324 223q0 -47 33 -77.5t98 -30.5q124 0 200 75.5t76 204.5v11 q-160 -9 -249.5 -31.5t-123.5 -58t-34 -93.5z" />
<glyph unicode="&#xe4;" horiz-adv-x="1118" d="M127 231q0 141 114.5 210t321.5 69q70 0 168 -10v108q0 108 -47.5 163.5t-151.5 55.5q-100 0 -157.5 -35t-57.5 -98q0 -38 21 -78l-176 -69q-29 72 -29 131q0 130 110 213.5t296 83.5q389 0 389 -393v-353q0 -54 18 -82t72 -28q23 0 51 8v-102q-14 -16 -43 -28.5 t-63 -12.5q-99 0 -153.5 50.5t-55.5 145.5q-45 -101 -124.5 -150.5t-207.5 -49.5q-135 0 -215 66.5t-80 184.5zM268 1094v204h172v-204h-172zM324 223q0 -47 33 -77.5t98 -30.5q124 0 200 75.5t76 204.5v11q-160 -9 -249.5 -31.5t-123.5 -58t-34 -93.5zM655 1094v204h172 v-204h-172z" />
<glyph unicode="&#xe5;" horiz-adv-x="1118" d="M127 231q0 141 114.5 210t321.5 69q70 0 168 -10v108q0 108 -47.5 163.5t-151.5 55.5q-100 0 -157.5 -35t-57.5 -98q0 -38 21 -78l-176 -69q-29 72 -29 131q0 130 110 213.5t296 83.5q389 0 389 -393v-353q0 -54 18 -82t72 -28q23 0 51 8v-102q-14 -16 -43 -28.5 t-63 -12.5q-99 0 -153.5 50.5t-55.5 145.5q-45 -101 -124.5 -150.5t-207.5 -49.5q-135 0 -215 66.5t-80 184.5zM324 223q0 -47 33 -77.5t98 -30.5q124 0 200 75.5t76 204.5v11q-160 -9 -249.5 -31.5t-123.5 -58t-34 -93.5zM342 1229q0 79 53.5 129.5t136.5 50.5t136 -50.5 t53 -129.5t-53 -129.5t-136 -50.5t-136.5 50.5t-53.5 129.5zM451 1229q0 -40 20.5 -66t60.5 -26t61 26t21 66t-21 66t-61 26t-60.5 -26t-20.5 -66z" />
<glyph unicode="&#xe6;" horiz-adv-x="1644" d="M127 231q0 145 121 221t336 76q79 0 147 -8v68q0 239 -199 239q-100 0 -157.5 -36t-57.5 -99q0 -41 21 -76l-176 -69q-29 76 -29 133q0 129 106 212t279 83q134 0 211 -58t107 -172q51 119 131 174.5t200 55.5q182 0 281.5 -101.5t99.5 -285.5q0 -78 -18 -166h-604 q0 -135 75.5 -217t196.5 -82q93 0 139 47.5t52 142.5l170 -47q-9 -144 -111 -215t-260 -71q-125 0 -233 81.5t-132 186.5q-32 -115 -126 -191.5t-244 -76.5q-156 0 -241 70t-85 181zM324 223q0 -47 33 -77.5t98 -30.5q148 0 212 71.5t64 208.5v31q-157 -9 -249 -37 t-125 -67.5t-33 -98.5zM928 559h428q6 35 6 68q0 96 -50.5 152.5t-142.5 56.5q-106 0 -168.5 -78.5t-72.5 -198.5z" />
<glyph unicode="&#xe7;" horiz-adv-x="1034" d="M86 477q0 224 122 361t343 137q160 0 260.5 -80.5t118.5 -214.5l-174 -53q-12 89 -68 142.5t-141 53.5q-125 0 -192.5 -97t-67.5 -249q0 -148 77 -247t205 -99q184 0 217 203l166 -55q-56 -286 -360 -297l-29 -80q35 12 90 12q79 0 118.5 -36.5t39.5 -92.5 q0 -63 -71 -102t-189 -39q-116 0 -199 51l35 72q64 -41 154 -41q54 0 86 15.5t32 41.5q0 49 -102 49q-68 0 -117 -14l56 166q-191 20 -300.5 154.5t-109.5 338.5z" />
<glyph unicode="&#xe8;" horiz-adv-x="1013" d="M86 477q0 225 125.5 361.5t325.5 136.5q182 0 281.5 -101.5t99.5 -287.5q0 -71 -19 -164h-604q0 -135 75.5 -217t196.5 -82q93 0 139 47.5t52 142.5l170 -47q-9 -144 -111 -215t-260 -71q-218 0 -344.5 129t-126.5 368zM279 1364h200l121 -291h-119zM297 559h428 q6 35 6 66q0 96 -50 153.5t-142 57.5q-106 0 -169.5 -78.5t-72.5 -198.5z" />
<glyph unicode="&#xe9;" horiz-adv-x="1013" d="M86 477q0 225 125.5 361.5t325.5 136.5q182 0 281.5 -101.5t99.5 -287.5q0 -71 -19 -164h-604q0 -135 75.5 -217t196.5 -82q93 0 139 47.5t52 142.5l170 -47q-9 -144 -111 -215t-260 -71q-218 0 -344.5 129t-126.5 368zM297 559h428q6 35 6 66q0 96 -50 153.5t-142 57.5 q-106 0 -169.5 -78.5t-72.5 -198.5zM426 1073l121 291h201l-203 -291h-119z" />
<glyph unicode="&#xea;" horiz-adv-x="1013" d="M86 477q0 225 125.5 361.5t325.5 136.5q182 0 281.5 -101.5t99.5 -287.5q0 -71 -19 -164h-604q0 -135 75.5 -217t196.5 -82q93 0 139 47.5t52 142.5l170 -47q-9 -144 -111 -215t-260 -71q-218 0 -344.5 129t-126.5 368zM262 1073l191 291h168l190 -291h-160l-114 207 l-115 -207h-160zM297 559h428q6 35 6 66q0 96 -50 153.5t-142 57.5q-106 0 -169.5 -78.5t-72.5 -198.5z" />
<glyph unicode="&#xeb;" horiz-adv-x="1013" d="M86 477q0 225 125.5 361.5t325.5 136.5q182 0 281.5 -101.5t99.5 -287.5q0 -71 -19 -164h-604q0 -135 75.5 -217t196.5 -82q93 0 139 47.5t52 142.5l170 -47q-9 -144 -111 -215t-260 -71q-218 0 -344.5 129t-126.5 368zM252 1094v204h172v-204h-172zM297 559h428 q6 35 6 66q0 96 -50 153.5t-142 57.5q-106 0 -169.5 -78.5t-72.5 -198.5zM639 1094v204h172v-204h-172z" />
<glyph unicode="&#xec;" horiz-adv-x="524" d="M2 1364h201l121 -291h-119zM164 0v954h196v-954h-196z" />
<glyph unicode="&#xed;" horiz-adv-x="524" d="M164 0v954h196v-954h-196zM203 1073l121 291h200l-202 -291h-119z" />
<glyph unicode="&#xee;" horiz-adv-x="524" d="M-12 1073l190 291h168l191 -291h-160l-115 207l-115 -207h-159zM164 0v954h196v-954h-196z" />
<glyph unicode="&#xef;" horiz-adv-x="524" d="M-16 1094v204h172v-204h-172zM164 0v954h196v-954h-196zM371 1094v204h172v-204h-172z" />
<glyph unicode="&#xf0;" horiz-adv-x="1120" d="M143 395q0 79 23 152t66.5 132.5t115 95.5t160.5 36q109 0 190 -58t121 -153q-15 231 -145 420l-191 -133l-86 119l183 129q-104 110 -283 229h217q99 -51 188 -143l154 106l86 -119l-145 -102q90 -129 140 -286.5t50 -321.5q0 -235 -111.5 -376.5t-310.5 -141.5 q-106 0 -189.5 35.5t-133 95.5t-74.5 132.5t-25 151.5zM334 395q0 -119 58.5 -192.5t168.5 -73.5q109 0 172.5 71.5t63.5 194.5q0 116 -66.5 191.5t-167.5 75.5q-109 0 -169 -72.5t-60 -194.5z" />
<glyph unicode="&#xf1;" horiz-adv-x="1165" d="M164 0v954h117l49 -356q18 163 110 270t238 107q162 0 248 -101.5t86 -277.5v-596h-197v582q0 107 -47.5 161t-132.5 54t-148 -69t-95 -183t-32 -256v-289h-196zM240 1198q0 65 46 110.5t128 45.5q51 0 88.5 -18.5t83.5 -57.5q14 -12 37 -32t33.5 -28.5t25 -19t26 -14.5 t23.5 -4q28 0 42.5 15t14.5 40q0 49 -49 86l68 59q96 -60 96 -161q0 -64 -44.5 -108t-123.5 -44q-36 0 -66.5 11.5t-49 24t-68.5 50.5q-13 10 -36 29.5t-35 28.5t-29.5 17.5t-32.5 8.5q-25 0 -39 -14t-14 -37q0 -43 41 -84l-80 -62q-86 62 -86 158z" />
<glyph unicode="&#xf2;" horiz-adv-x="1089" d="M82 477q0 142 63 257t169 178t231 63t231 -63t169 -178t63 -257t-63 -256.5t-169 -177.5t-231 -63t-231 63t-169 177.5t-63 256.5zM270 1364h201l121 -291h-119zM279 477q0 -146 75 -244t191 -98t191 98t75 244t-75 244t-191 98t-191 -98t-75 -244z" />
<glyph unicode="&#xf3;" horiz-adv-x="1089" d="M82 477q0 142 63 257t169 178t231 63t231 -63t169 -178t63 -257t-63 -256.5t-169 -177.5t-231 -63t-231 63t-169 177.5t-63 256.5zM279 477q0 -146 75 -244t191 -98t191 98t75 244t-75 244t-191 98t-191 -98t-75 -244zM471 1073l121 291h201l-203 -291h-119z" />
<glyph unicode="&#xf4;" horiz-adv-x="1089" d="M82 477q0 142 63 257t169 178t231 63t231 -63t169 -178t63 -257t-63 -256.5t-169 -177.5t-231 -63t-231 63t-169 177.5t-63 256.5zM270 1073l191 291h168l190 -291h-160l-114 207l-115 -207h-160zM279 477q0 -146 75 -244t191 -98t191 98t75 244t-75 244t-191 98 t-191 -98t-75 -244z" />
<glyph unicode="&#xf5;" horiz-adv-x="1089" d="M82 477q0 142 63 257t169 178t231 63t231 -63t169 -178t63 -257t-63 -256.5t-169 -177.5t-231 -63t-231 63t-169 177.5t-63 256.5zM201 1198q0 65 46 110.5t128 45.5q51 0 88.5 -18.5t83.5 -57.5q14 -12 37 -32t33.5 -28.5t25 -19t26 -14.5t23.5 -4q28 0 43 15.5t15 39.5 q0 48 -50 86l68 59q96 -60 96 -161q0 -64 -44.5 -108t-123.5 -44q-36 0 -66.5 11.5t-49 24t-68.5 50.5q-13 10 -36 29.5t-35 28.5t-29.5 17.5t-32.5 8.5q-25 0 -39 -14t-14 -37q0 -43 41 -84l-80 -62q-86 62 -86 158zM279 477q0 -146 75 -244t191 -98t191 98t75 244t-75 244 t-191 98t-191 -98t-75 -244z" />
<glyph unicode="&#xf6;" horiz-adv-x="1089" d="M82 477q0 142 63 257t169 178t231 63t231 -63t169 -178t63 -257t-63 -256.5t-169 -177.5t-231 -63t-231 63t-169 177.5t-63 256.5zM266 1094v204h172v-204h-172zM279 477q0 -146 75 -244t191 -98t191 98t75 244t-75 244t-191 98t-191 -98t-75 -244zM653 1094v204h172 v-204h-172z" />
<glyph unicode="&#xf7;" horiz-adv-x="1216" d="M133 406v143h950v-143h-950zM506 0v229h205v-229h-205zM506 725v229h205v-229h-205z" />
<glyph unicode="&#xf8;" horiz-adv-x="1110" d="M92 47l103 111q-103 137 -103 319q0 142 63 257t169 178t231 63q166 0 291 -109l100 109l72 -68l-105 -112q105 -134 105 -318q0 -142 -63 -256.5t-169 -177.5t-231 -63q-170 0 -293 108l-100 -108zM289 477q0 -100 35 -178l405 440q-73 80 -174 80q-116 0 -191 -98 t-75 -244zM379 215q71 -80 176 -80q116 0 191 98t75 244q0 103 -37 178z" />
<glyph unicode="&#xf9;" horiz-adv-x="1165" d="M154 358v596h196v-581q0 -107 47.5 -161t132.5 -54t148 69t95 183t32 256v288h196v-954h-116l-49 356q-18 -163 -110.5 -269.5t-238.5 -106.5q-162 0 -247.5 101t-85.5 277zM338 1364h201l120 -291h-118z" />
<glyph unicode="&#xfa;" horiz-adv-x="1165" d="M154 358v596h196v-581q0 -107 47.5 -161t132.5 -54t148 69t95 183t32 256v288h196v-954h-116l-49 356q-18 -163 -110.5 -269.5t-238.5 -106.5q-162 0 -247.5 101t-85.5 277zM492 1073l120 291h201l-203 -291h-118z" />
<glyph unicode="&#xfb;" horiz-adv-x="1165" d="M154 358v596h196v-581q0 -107 47.5 -161t132.5 -54t148 69t95 183t32 256v288h196v-954h-116l-49 356q-18 -163 -110.5 -269.5t-238.5 -106.5q-162 0 -247.5 101t-85.5 277zM317 1073l191 291h168l190 -291h-159l-115 207l-115 -207h-160z" />
<glyph unicode="&#xfc;" horiz-adv-x="1165" d="M154 358v596h196v-581q0 -107 47.5 -161t132.5 -54t148 69t95 183t32 256v288h196v-954h-116l-49 356q-18 -163 -110.5 -269.5t-238.5 -106.5q-162 0 -247.5 101t-85.5 277zM305 1094v204h172v-204h-172zM692 1094v204h172v-204h-172z" />
<glyph unicode="&#xfd;" horiz-adv-x="946" d="M0 954h201l272 -718l272 718h201q-325 -768 -409 -954q-52 -114 -89 -178.5t-81.5 -107t-92.5 -56.5t-120 -14q-82 0 -125 28l8 135q49 -18 88 -18q50 0 80.5 8.5t60 41t53 77.5t62.5 135zM377 1073l121 291h200l-202 -291h-119z" />
<glyph unicode="&#xfe;" horiz-adv-x="1136" d="M164 -336v1700h196v-598q39 93 115 151t178 58q129 0 221.5 -68.5t136.5 -179.5t44 -250q0 -138 -42.5 -249.5t-130 -179.5t-206.5 -68q-118 0 -204.5 70t-111.5 163v-549h-196zM360 477q0 -140 76 -239t178 -99q110 0 177 94t67 244q0 154 -64.5 246t-177.5 92 q-105 0 -180.5 -94.5t-75.5 -243.5z" />
<glyph unicode="&#xff;" horiz-adv-x="946" d="M0 954h201l272 -718l272 718h201q-325 -768 -409 -954q-52 -114 -89 -178.5t-81.5 -107t-92.5 -56.5t-120 -14q-82 0 -125 28l8 135q49 -18 88 -18q50 0 80.5 8.5t60 41t53 77.5t62.5 135zM203 1094v204h172v-204h-172zM590 1094v204h172v-204h-172z" />
<glyph unicode="&#x152;" horiz-adv-x="2283" d="M92 682q0 144 45.5 272t129 225t211.5 153.5t284 56.5q151 0 269.5 -66t191.5 -164v205h942v-172h-738v-408h592v-168h-592v-444h744v-172h-948v203q-64 -97 -187.5 -162.5t-273.5 -65.5q-156 0 -284 56.5t-211.5 153.5t-129 225t-45.5 272zM305 682q0 -230 126.5 -380 t330.5 -150t330.5 150t126.5 380t-126.5 380t-330.5 150t-330.5 -150t-126.5 -380z" />
<glyph unicode="&#x153;" horiz-adv-x="1738" d="M82 477q0 142 63 257t169 178t231 63q236 0 358 -217q111 217 359 217q182 0 281 -101.5t99 -287.5q0 -76 -18 -164h-604q0 -135 75.5 -217t196.5 -82q93 0 139 47.5t52 142.5l170 -47q-9 -144 -111 -215t-260 -71q-126 0 -230 57.5t-151 152.5q-45 -92 -136 -151 t-220 -59q-125 0 -231 63t-169 177.5t-63 256.5zM279 477q0 -146 75 -244t191 -98t191 98t75 244t-75 244t-191 98t-191 -98t-75 -244zM1022 559h428q6 35 6 66q0 96 -50 153.5t-142 57.5q-106 0 -169.5 -78.5t-72.5 -198.5z" />
<glyph unicode="&#x178;" horiz-adv-x="1249" d="M0 1364h236l389 -627l389 627h235l-520 -807v-557h-209v557zM313 1483v186h193v-186h-193zM748 1483v186h192v-186h-192z" />
<glyph unicode="&#x2c6;" horiz-adv-x="794" d="M123 1073l190 291h168l191 -291h-160l-115 207l-114 -207h-160z" />
<glyph unicode="&#x2dc;" horiz-adv-x="899" d="M123 1198q0 65 46 110.5t128 45.5q51 0 88.5 -18.5t83.5 -57.5q14 -12 37 -32t33.5 -28.5t25 -19t26 -14.5t23.5 -4q28 0 43 15.5t15 39.5q0 49 -49 86l67 59q96 -60 96 -161q0 -64 -44.5 -108t-123.5 -44q-36 0 -66.5 11.5t-49 24t-68.5 50.5q-13 10 -36 29.5t-35 28.5 t-29.5 17.5t-32.5 8.5q-25 0 -39 -14t-14 -37q0 -43 41 -84l-80 -62q-86 62 -86 158z" />
<glyph unicode="&#x2000;" horiz-adv-x="865" />
<glyph unicode="&#x2001;" horiz-adv-x="1731" />
<glyph unicode="&#x2002;" horiz-adv-x="865" />
<glyph unicode="&#x2003;" horiz-adv-x="1731" />
<glyph unicode="&#x2004;" horiz-adv-x="577" />
<glyph unicode="&#x2005;" horiz-adv-x="432" />
<glyph unicode="&#x2006;" horiz-adv-x="288" />
<glyph unicode="&#x2007;" horiz-adv-x="288" />
<glyph unicode="&#x2008;" horiz-adv-x="216" />
<glyph unicode="&#x2009;" horiz-adv-x="346" />
<glyph unicode="&#x200a;" horiz-adv-x="96" />
<glyph unicode="&#x2010;" horiz-adv-x="1003" d="M143 471v154h717v-154h-717z" />
<glyph unicode="&#x2011;" horiz-adv-x="1003" d="M143 471v154h717v-154h-717z" />
<glyph unicode="&#x2012;" horiz-adv-x="1003" d="M143 471v154h717v-154h-717z" />
<glyph unicode="&#x2013;" horiz-adv-x="1181" d="M143 471v154h895v-154h-895z" />
<glyph unicode="&#x2014;" horiz-adv-x="1503" d="M143 471v154h1217v-154h-1217z" />
<glyph unicode="&#x2018;" horiz-adv-x="491" d="M143 911v199q0 216 197 279l29 -72q-64 -31 -88.5 -70.5t-24.5 -95.5h92v-240h-205z" />
<glyph unicode="&#x2019;" horiz-adv-x="477" d="M119 958q64 30 88 69.5t24 96.5h-92v240h205v-199q0 -215 -197 -278z" />
<glyph unicode="&#x201a;" d="M154 -166q64 30 88 69.5t24 96.5h-92v240h205v-199q0 -216 -197 -279z" />
<glyph unicode="&#x201c;" horiz-adv-x="874" d="M143 911v199q0 216 197 279l29 -72q-64 -31 -88.5 -70.5t-24.5 -95.5h92v-240h-205zM526 911v199q0 216 197 279l29 -72q-64 -31 -88.5 -70.5t-24.5 -95.5h92v-240h-205z" />
<glyph unicode="&#x201d;" horiz-adv-x="860" d="M119 958q64 30 88 69.5t24 96.5h-92v240h205v-199q0 -215 -197 -278zM502 958q64 30 88 69.5t24 96.5h-92v240h205v-199q0 -215 -197 -278z" />
<glyph unicode="&#x201e;" horiz-adv-x="935" d="M154 -166q64 30 88 69.5t24 96.5h-92v240h205v-199q0 -216 -197 -279zM537 -166q64 30 88 69.5t24 96.5h-92v240h205v-199q0 -216 -197 -279z" />
<glyph unicode="&#x2022;" horiz-adv-x="724" d="M113 692q0 103 73 176.5t176 73.5t176.5 -73.5t73.5 -176.5t-73.5 -176.5t-176.5 -73.5t-176 73.5t-73 176.5z" />
<glyph unicode="&#x2026;" horiz-adv-x="1658" d="M174 0v240h205v-240h-205zM727 0v240h205v-240h-205zM1280 0v240h205v-240h-205z" />
<glyph unicode="&#x202f;" horiz-adv-x="346" />
<glyph unicode="&#x2039;" horiz-adv-x="804" d="M102 428v98l560 383v-182l-410 -250l410 -250v-182z" />
<glyph unicode="&#x203a;" horiz-adv-x="804" d="M143 45v182l410 250l-410 250v182l559 -383v-98z" />
<glyph unicode="&#x205f;" horiz-adv-x="432" />
<glyph unicode="&#x20ac;" horiz-adv-x="1511" d="M82 463v117h207q-2 27 -2 82q0 54 2 81h-207v117h221q41 221 177 352t374 131q136 0 240 -53t162 -135t83 -188l-174 -70q-25 120 -106 206.5t-211 86.5q-145 0 -229 -86.5t-113 -243.5h383v-117h-397q-3 -40 -3 -81q0 -42 3 -82h397v-117h-381q35 -156 126.5 -243 t239.5 -87q290 0 347 356l168 -53q-11 -68 -33.5 -130t-64 -123t-97.5 -105t-138.5 -71t-181.5 -27q-120 0 -218.5 36.5t-168 102t-115 152t-67.5 192.5h-223z" />
<glyph unicode="&#x2122;" horiz-adv-x="1187" d="M82 1286v78h410v-78h-166v-405h-86v405h-158zM559 881v483h119l149 -403l150 403h119v-483h-82v389l-150 -389h-73l-150 389v-389h-82z" />
<glyph unicode="&#x25fc;" horiz-adv-x="952" d="M0 0v952h952v-952h-952z" />
</font>
</defs>
</svg>
