<?xml version="1.0" standalone="no"?>
<!DOCTYPE svg PUBLIC "-//W3C//DTD SVG 1.1//EN" "http://www.w3.org/Graphics/SVG/1.1/DTD/svg11.dtd" >
<svg xmlns="http://www.w3.org/2000/svg">
<metadata></metadata>
<defs>
<font id="mapleregular" horiz-adv-x="552" >
<font-face units-per-em="2048" ascent="1536" descent="-512" />
<missing-glyph horiz-adv-x="440" />
<glyph unicode="&#xfb01;" horiz-adv-x="1185" d="M51 854v84h170q-39 113 -39 192q0 118 66 185t196 67q137 0 224 -73l-50 -78q-64 51 -145 51q-74 0 -110.5 -43t-36.5 -117q0 -97 43 -184h262v-84h-262v-854h-152v854h-166zM864 0v938h154v-938h-154zM864 1147v215h154v-215h-154z" />
<glyph unicode="&#xfb02;" horiz-adv-x="1185" d="M51 854v84h170q-41 121 -41 192q0 117 67 184.5t197 67.5q137 0 224 -73l-50 -78q-64 51 -145 51q-74 0 -111.5 -43.5t-37.5 -116.5q0 -85 45 -184h239v-84h-239v-854h-152v854h-166zM864 0v1362h154v-1362h-154z" />
<glyph unicode="&#xfb03;" horiz-adv-x="1847" d="M84 854v82h166q-37 127 -37 192q0 117 66.5 184.5t193.5 67.5q135 0 225 -73l-43 -78q-67 51 -149 51q-76 0 -113 -43t-37 -117q0 -94 43 -184h295h170q-41 131 -41 192q0 117 67 184.5t197 67.5q137 0 224 -73l-43 -78q-71 51 -152 51q-74 0 -109.5 -43t-35.5 -117 q0 -89 39 -184h264v-82h-264v-854h-152v854h-164h-295v-854h-151v854h-164zM1483 0v936h149v-936h-149zM1483 1145v217h149v-217h-149z" />
<glyph unicode="&#xfb04;" horiz-adv-x="1847" d="M84 854v82h166q-37 127 -37 192q0 117 66.5 184.5t193.5 67.5q135 0 225 -73l-43 -78q-67 51 -149 51q-76 0 -113 -43t-37 -117q0 -94 43 -184h295h170q-41 131 -41 192q0 117 67 184.5t197 67.5q137 0 224 -73l-43 -78q-71 51 -152 51q-74 0 -109.5 -43t-35.5 -117 q0 -89 39 -184h264v-82h-264v-854h-152v854h-164h-295v-854h-151v854h-164zM1483 0v1360h149v-1360h-149z" />
<glyph horiz-adv-x="0" />
<glyph horiz-adv-x="682" />
<glyph unicode=" "  horiz-adv-x="440" />
<glyph unicode="&#x09;" horiz-adv-x="440" />
<glyph unicode="&#xa0;" horiz-adv-x="440" />
<glyph unicode="!" horiz-adv-x="569" d="M199 918v444h176v-444l-86 -531q-8 42 -15.5 83.5t-15.5 90t-14 80.5q-17 96 -45 277zM207 0v199h160v-199h-160z" />
<glyph unicode="&#x22;" horiz-adv-x="851" d="M170 870v492h102v-492h-102zM586 870v492h100v-492h-100z" />
<glyph unicode="#" horiz-adv-x="1478" d="M133 369q10 50 12 73h261l67 443h-260q1 11 4 27t4 20q1 5 3 14.5t3 14.5h258q6 32 15.5 96t13.5 86q27 168 29 176h86l-58 -358h476q4 25 11 75.5t11 73.5q14 103 33 209h86l-58 -358h265q-1 -9 -4.5 -21.5t-4.5 -17.5q-5 -30 -6 -37h-262l-67 -443h262q-1 -6 -2 -11 t-2 -10.5t-2 -8.5q-5 -32 -7 -43h-262q-13 -94 -28 -187q-5 -28 -13.5 -90t-13.5 -92h-86l57 369h-477q-3 -18 -8 -57t-8 -56q-19 -135 -39 -256h-86l57 369h-260zM489 442h478l67 443h-475z" />
<glyph unicode="$" horiz-adv-x="1204" d="M152 223q36 35 73 70l4 4q69 -86 183.5 -152.5t230.5 -66.5q131 0 200.5 59.5t69.5 161.5q0 91 -65 161t-217 140q-231 108 -325.5 203.5t-94.5 226.5q0 133 102.5 215t278.5 96v211h113v-219q209 -45 354 -203q-12 -16 -49 -57q-4 -4 -14 -16t-15 -17q-184 197 -371 197 q-125 0 -191.5 -51t-66.5 -154q0 -99 72.5 -166.5t234.5 -144.5q207 -102 300.5 -197t93.5 -217q0 -58 -23.5 -111.5t-68.5 -99.5t-118 -76.5t-165 -37.5v-215h-115v221q-113 22 -223.5 87t-187.5 148z" />
<glyph unicode="%" horiz-adv-x="1865" d="M129 977q0 90 37 172t113.5 137t175.5 55q100 0 176.5 -55t113.5 -136.5t37 -172.5q0 -92 -37 -174t-113.5 -136.5t-176.5 -54.5q-99 0 -175 54.5t-113.5 136.5t-37.5 174zM254 977q0 -115 55 -199t146 -84q94 0 149 83.5t55 199.5q0 114 -55 198.5t-149 84.5 q-91 0 -146 -84.5t-55 -198.5zM539 0q7 12 18 35t18 35q476 872 676 1249h97l-713 -1319h-96zM1098 342q0 91 37 172.5t113.5 137t176.5 55.5t176 -55.5t113 -137t37 -172.5q0 -92 -37 -173.5t-113 -135t-176 -53.5t-176.5 53.5t-113.5 135t-37 173.5zM1221 342 q0 -114 56 -198.5t148 -84.5q91 0 147 85t56 198q0 114 -56 199.5t-147 85.5q-92 0 -148 -85.5t-56 -199.5z" />
<glyph unicode="&#x26;" horiz-adv-x="1626" d="M137 352q0 84 36.5 156t101.5 124t144 89t173 61q-129 206 -129 359q0 112 79.5 176.5t231.5 64.5q124 0 192 -66t68 -175q0 -99 -72.5 -197t-211.5 -162q5 -9 17 -28.5t17 -28.5q6 -10 16 -25t16.5 -26.5t10.5 -20.5q4 -8 39 -67q3 -4 22 -32.5t30 -49.5q20 -34 71 -117 q10 -16 31 -49t29 -47q75 153 75 262q0 110 -53 190l80 58q74 -92 74 -228q0 -177 -125 -360q95 -152 203 -152q73 0 111 39t38 95q0 25 -12 54t-31 48q3 5 7 13.5t7 13.5q2 3 6.5 11t6.5 11q50 -13 81 -59.5t31 -104.5q0 -85 -67.5 -146t-202.5 -61q-83 0 -141.5 31 t-126.5 111q-172 -142 -402 -142q-223 0 -347 104.5t-124 272.5zM274 356q0 -125 87.5 -212t246.5 -87q183 0 353 136q-74 110 -152 231q-60 98 -61 100q-3 5 -11.5 18.5t-11.5 20.5q-9 16 -27 45.5t-26 42.5l-22 33q-22 34 -32 51q-41 -20 -65 -32.5t-65 -36.5t-66.5 -44 t-56.5 -51t-48.5 -61t-30 -70.5t-12.5 -83.5zM608 1137q0 -129 113 -303q95 47 148 129t53 163q0 74 -39.5 123t-108.5 49q-84 0 -125 -43.5t-41 -117.5z" />
<glyph unicode="'" horiz-adv-x="452" d="M176 870v492h103v-492h-103z" />
<glyph unicode="(" horiz-adv-x="714" d="M160 608q0 233 125.5 487t339.5 468l69 -64q-379 -453 -379 -891q0 -455 375 -889q-12 -10 -51 -49l-14 -14q-214 216 -339.5 468.5t-125.5 483.5z" />
<glyph unicode=")" horiz-adv-x="714" d="M27 1497l67 66q213 -214 339 -469t126 -486t-125.5 -484.5t-339.5 -469.5q-8 6 -26 24l-39 39q374 433 374 891q0 453 -376 889z" />
<glyph unicode="*" horiz-adv-x="1089" d="M166 1108q2 -2 4 -2q-2 -2 -2 -4zM170 1106q10 19 29 48.5t26 41.5q1 1 3 4t4 7.5t4 6.5l215 -196q-29 9 -83 26.5t-83 26.5q-38 13 -115 35zM172 813q10 3 274 90q-6 -6 -13.5 -14.5t-16.5 -16.5v-2q-173 -156 -180 -163q-33 56 -41 71q-2 3 -9.5 15t-13.5 20zM233 705 l3 2q1 0 2 -1t2 -1h-7zM481 922l8 8q3 3 12.5 11t12.5 11q-2 1 -8 3t-8 3q-1 0 -2 1.5t-2 1.5l20 8q-4 4 -16 14.5t-17 15.5l43 -16q0 2 -1 10.5t-1 10.5v4l19 -19q0 2 3.5 15.5t4.5 21.5q1 -7 3.5 -17.5t4.5 -19.5l16 17l-6 -21l45 12q-16 -12 -28 -28q6 -5 16 -8l-20 -7 q4 -4 16.5 -14.5t17.5 -15.5l-49 14q0 -12 2 -18l-10 12q-7 -39 -8 -45l-10 43q-3 -2 -8.5 -7.5t-8.5 -7.5l2 21q-36 -12 -43 -14zM487 563q13 62 62 279q14 -69 51 -226q2 -12 6.5 -30t5.5 -23h-125zM487 1362h125l-65 -293q-17 73 -35 160q-6 27 -14 73.5t-11 59.5z M612 997q6 4 17 15l2 -8zM641 905q29 -10 283 -92q-8 -16 -66 -104zM643 1016q47 44 92 84q14 13 58.5 52t66.5 60q5 -9 37 -57q2 -4 11.5 -22t15.5 -27z" />
<glyph unicode="+" horiz-adv-x="1216" d="M143 418v100h410v420h119v-420h407v-100h-407v-418h-119v418h-410z" />
<glyph unicode="," d="M184 -211q109 66 109 211h-94v199h159v-183q0 -85 -37.5 -153t-123.5 -101q-9 18 -9 21q-4 4 -4 6z" />
<glyph unicode="-" horiz-adv-x="700" d="M158 487v109h397v-109h-397z" />
<glyph unicode="." d="M199 0v199h159v-199h-159z" />
<glyph unicode="/" horiz-adv-x="1003" d="M135 -348q63 179 174.5 502.5t143.5 414.5q89 248 319 918h100l-632 -1835h-105z" />
<glyph unicode="0" horiz-adv-x="1150" d="M125 659q0 105 14.5 200.5t49 184.5t86 154t129.5 104t176 39q97 0 175.5 -39t129 -104t84.5 -154t48.5 -184.5t14.5 -200.5q0 -104 -14.5 -199t-48.5 -184t-84.5 -153.5t-129 -103.5t-175.5 -39t-175.5 39t-130 103.5t-86 153.5t-49 184t-14.5 199zM279 659 q0 -567 301 -567q299 0 299 567q0 566 -299 566q-301 0 -301 -566z" />
<glyph unicode="1" horiz-adv-x="733" d="M49 1100v76h31q99 0 194.5 38.5t161.5 104.5h86v-1319h-151v1100h-322z" />
<glyph unicode="2" horiz-adv-x="1116" d="M135 975q0 159 113 262.5t313 103.5q189 0 302.5 -97.5t113.5 -256.5q0 -122 -64 -239.5t-211 -260.5q-181 -181 -438 -370h713v-117h-830v127q76 65 285 258q13 12 39 37t39 37q5 5 21.5 19.5t21.5 19.5q136 131 203 240.5t67 228.5q0 125 -67 191.5t-199 66.5 q-141 0 -215 -77t-74 -204q0 -94 35 -184l-133 39q-35 87 -35 176z" />
<glyph unicode="3" horiz-adv-x="1101" d="M119 309q0 43 8 82q10 1 35.5 2t36.5 2q12 1 24.5 2t27.5 2t23 2q-10 -39 -10 -90q0 -107 70.5 -170t204.5 -63q146 0 218 82.5t72 201.5q0 145 -90 217t-262 72h-49v105h31q160 0 242.5 68.5t82.5 187.5q0 108 -69.5 167.5t-190.5 59.5q-109 0 -173 -52t-64 -140 q0 -46 12 -86l-137 22q-12 41 -12 76q0 123 105.5 202.5t276.5 79.5q181 0 292.5 -79.5t111.5 -221.5q0 -66 -29.5 -127.5t-97.5 -115t-166 -76.5l2 -25q158 -12 248 -106.5t90 -229.5q0 -42 -10 -84.5t-30.5 -86t-56.5 -80.5t-83.5 -66.5t-116.5 -46t-151 -16.5 q-206 0 -311 92.5t-105 236.5z" />
<glyph unicode="4" horiz-adv-x="1142" d="M72 319v115q64 87 178 246.5t141 196.5q20 28 138.5 193t177.5 249h163v-889h207v-111h-207v-319h-147v319h-651zM203 430h520v744z" />
<glyph unicode="5" horiz-adv-x="1058" d="M145 315l123 29q3 -122 71 -196t200 -74q68 0 120.5 30t83.5 81.5t46.5 115t15.5 135.5q0 49 -6.5 93t-23.5 89t-44 78t-72 53.5t-104 20.5q-85 0 -149 -56t-95 -136q-7 2 -145 34q1 14 4 41t4 41q12 108 31.5 313.5t30.5 311.5h682v-107h-578l-53 -524l20 -14 q35 79 111.5 136.5t165.5 57.5q94 0 167.5 -34t118.5 -93t68 -135.5t23 -165.5q0 -88 -24.5 -168t-73.5 -146.5t-132.5 -106t-191.5 -39.5q-176 0 -279 88.5t-115 246.5z" />
<glyph unicode="6" horiz-adv-x="1099" d="M125 608q0 147 33 278.5t95 233.5t159.5 161.5t216.5 59.5q161 0 247.5 -82t92.5 -210l-148 -33q-1 4 -2 4l2 6q0 98 -48.5 153.5t-149.5 55.5q-108 0 -188.5 -89t-122.5 -235.5t-50 -337.5l23 -10q53 117 140.5 189.5t197.5 72.5q182 0 275 -112.5t93 -302.5 q0 -58 -14 -115.5t-47 -115t-80 -101.5t-119.5 -71t-159.5 -27q-97 0 -173 32.5t-126.5 88.5t-84 136.5t-48 172t-14.5 198.5zM303 389q0 -144 72.5 -223.5t191.5 -79.5q61 0 108.5 17t78.5 46.5t51 71.5t28.5 88.5t8.5 100.5q0 62 -15.5 115.5t-47 96.5t-84 68t-120.5 25 q-113 0 -192.5 -90t-79.5 -236z" />
<glyph unicode="7" horiz-adv-x="911" d="M29 1204v115h858v-117q-113 -135 -191.5 -254.5t-140 -258.5t-91.5 -295t-30 -337q0 -3 1 -13t1 -17v-27h-147q9 744 487 1204h-747z" />
<glyph unicode="8" horiz-adv-x="1142" d="M129 362q0 119 93.5 214t238.5 131q-273 120 -273 317q0 144 106.5 230.5t280.5 86.5q173 0 280.5 -86.5t107.5 -230.5q0 -192 -275 -317q140 -35 236 -131t96 -214q0 -174 -121.5 -278t-323.5 -104q-203 0 -324.5 104t-121.5 278zM276 360q0 -123 80 -200.5t219 -77.5 q138 0 217.5 77.5t79.5 200.5q0 127 -80.5 210t-216.5 83q-137 0 -218 -83t-81 -210zM332 1010q0 -115 67.5 -185.5t175.5 -70.5q107 0 174.5 70.5t67.5 185.5q0 102 -67 166.5t-175 64.5q-109 0 -176 -64.5t-67 -166.5z" />
<glyph unicode="9" horiz-adv-x="1110" d="M125 915q0 59 16 118.5t50 115t82.5 98t119 68.5t154.5 26q96 0 172 -32.5t126.5 -89t83.5 -137t47.5 -172t14.5 -199.5q0 -113 -14.5 -215t-48.5 -197.5t-85 -165t-130 -111.5t-178 -42q-166 0 -265 83t-108 211l131 31q3 -102 67.5 -162.5t169.5 -60.5q81 0 143.5 50.5 t100.5 141.5t58 208.5t22 260.5l-25 9q-38 -110 -130.5 -184t-204.5 -74q-170 0 -269.5 120t-99.5 301zM274 911q0 -63 15 -117.5t45.5 -99.5t84 -70.5t124.5 -25.5q109 0 189.5 96t80.5 236q0 137 -70.5 219t-191.5 82q-71 0 -126 -27t-87 -73.5t-48 -102t-16 -117.5z" />
<glyph unicode=":" horiz-adv-x="532" d="M188 0v199h160v-199h-160zM188 598v197h160v-197h-160z" />
<glyph unicode=";" horiz-adv-x="532" d="M172 -211q61 36 86 88t25 123h-95v199h160v-183q0 -84 -38 -152.5t-124 -101.5q-10 20 -10 21q-4 4 -4 6zM188 598v197h160v-197h-160z" />
<glyph unicode="&#x3c;" horiz-adv-x="1046" d="M117 428v84q64 36 194.5 107t196.5 108q57 31 121.5 67t142 80t121.5 68v-127l-696 -346q83 -39 354 -174q50 -26 172 -87l170 -85v-125q-55 31 -156 87t-125 69q-447 248 -495 274z" />
<glyph unicode="=" horiz-adv-x="1142" d="M166 217v92h817v-92h-817zM166 616v93h817v-93h-817z" />
<glyph unicode="&#x3e;" horiz-adv-x="1046" d="M158 -2v123l698 348l-698 346v125q220 -122 321 -178q72 -40 225 -123t232 -127v-84q-201 -109 -389 -215q-300 -167 -389 -215z" />
<glyph unicode="?" horiz-adv-x="1110" d="M168 1044q0 144 112 243t304 99t299.5 -103t107.5 -267q0 -175 -95.5 -321t-305.5 -279q-25 31 -27 37q-7 8 -19 25.5t-16 23.5q157 114 228 239.5t71 272.5q0 114 -65.5 183t-179.5 69q-126 0 -192 -65t-66 -171q0 -102 41 -182q-64 -31 -107 -53q-90 120 -90 249z M477 0v199h162v-199h-162z" />
<glyph unicode="@" horiz-adv-x="1511" d="M150 461q0 120 43 227q46 117 120 197q84 90 199 137q117 51 268 51q133 0 226 -37q99 -34 176 -104q75 -66 114 -164q41 -89 41 -213q0 -149 -63 -240q-36 -48 -86 -75q-52 -27 -123 -27q-51 0 -87 21t-50.5 50.5t-22 59.5t-7.5 51l1 21q-23 -89 -89.5 -146t-143.5 -57 q-96 0 -142 61q-39 51 -39 136q0 150 74 239q73 86 184 86q65 0 116 -43.5t61 -111.5l53 143h41l-49 -270h-2q-5 -62 -5 -68q0 -106 113 -106q48 0 84.5 25t57 66t30.5 88t10 97q0 198 -130.5 319t-342.5 121q-125 0 -228.5 -47t-169 -123.5t-101 -171t-35.5 -192.5 q0 -244 154.5 -393.5t406.5 -149.5q247 0 448 139l39 -65q-118 -77 -233 -111q-118 -37 -262 -37q-304 0 -484 183q-78 81 -122 196q-43 107 -43 238zM588 416q0 -72 29.5 -101.5t72.5 -29.5q75 0 131 75q58 71 58 172q0 60 -31 95t-82 35q-85 0 -131 -76q-47 -65 -47 -170z " />
<glyph unicode="A" horiz-adv-x="1421" d="M88 0q131 332 266 680q180 463 267 682h188q136 -339 268 -682q236 -608 264 -680h-165l-107 309h-711q-6 -18 -18.5 -56t-17.5 -52q-61 -181 -68 -201h-166zM406 436h618l-309 838z" />
<glyph unicode="B" horiz-adv-x="1327" d="M186 0v1362h539q214 0 335.5 -79.5t121.5 -238.5q0 -245 -338 -327l4 -29h4q168 0 276 -91q110 -92 109 -237q0 -78 -24.5 -141.5t-77.5 -113.5t-145 -77.5t-218 -27.5h-586zM340 119h422q158 0 236.5 72t78.5 196q0 254 -356 254h-381v-522zM340 760h367q147 0 230 69.5 t83 184.5q0 112 -71 169.5t-226 57.5h-383v-481z" />
<glyph unicode="C" horiz-adv-x="1431" d="M92 680q0 146 43.5 273t125.5 224t211.5 153t291.5 56q193 0 330.5 -99.5t197.5 -258.5q-52 -17 -104 -39q-18 -8 -53 -22q-36 126 -133 207t-244 81q-222 0 -358 -158t-136 -417q0 -261 139 -417.5t381 -156.5q334 0 410 326l145 -55q-19 -62 -48.5 -117.5t-77 -108.5 t-107 -91.5t-142.5 -61.5t-180 -23q-171 0 -305.5 56t-218 153.5t-126 223.5t-42.5 272z" />
<glyph unicode="D" horiz-adv-x="1409" d="M184 0v1362h494q147 0 268.5 -51t204 -141t127.5 -216t45 -274q0 -147 -45 -272.5t-127.5 -215.5t-204 -141t-268.5 -51h-494zM344 131h313q228 0 366 144t138 405q0 262 -137.5 405.5t-366.5 143.5h-313v-1098z" />
<glyph unicode="E" horiz-adv-x="1234" d="M188 0v1362h922v-129h-762v-471h613v-123h-613v-512h770v-127h-930z" />
<glyph unicode="F" horiz-adv-x="1159" d="M188 0v1362h930v-137h-770v-482h619v-133h-619v-610h-160z" />
<glyph unicode="G" horiz-adv-x="1527" d="M98 680q0 323 187.5 514.5t509.5 191.5q199 0 338.5 -93t197.5 -244l-145 -58q-43 121 -143 190.5t-238 69.5q-249 0 -392 -148.5t-143 -422.5q0 -264 132.5 -419t377.5 -155q188 0 307 129t119 318h-291v131h451v-684h-100l-19 301l-24 8q-18 -59 -56.5 -116.5t-95 -107 t-137 -80t-170.5 -30.5q-164 0 -293.5 56t-209.5 153.5t-121.5 223.5t-41.5 272z" />
<glyph unicode="H" horiz-adv-x="1462" d="M184 0v1362h162v-600h778v600h164v-1362h-164v631h-778v-631h-162z" />
<glyph unicode="I" horiz-adv-x="573" d="M209 0v1362h160v-1362h-160z" />
<glyph unicode="J" horiz-adv-x="1075" d="M86 311q0 80 43 164q64 -23 147 -47q-24 -60 -24 -121q0 -91 60.5 -146t174.5 -55q130 0 192 84t62 218v954h164v-946q0 -72 -13.5 -135t-45 -120t-79.5 -97.5t-122 -64.5t-168 -24q-174 0 -282.5 97.5t-108.5 238.5z" />
<glyph unicode="K" horiz-adv-x="1347" d="M184 0v1362h162v-733q35 37 157 165.5t187 198.5q65 69 344 369h191l-514 -559q387 -557 432 -621q54 -79 129 -182h-189l-473 698l-264 -276v-422h-162z" />
<glyph unicode="L" horiz-adv-x="1161" d="M188 0v1362h160v-1231h725v-131h-885z" />
<glyph unicode="M" horiz-adv-x="1781" d="M180 0v1362h258l459 -1235q26 70 106.5 289t124.5 336q138 365 228 610h258v-1362h-144v1202l-47 6q-75 -199 -228 -604t-228 -604h-142l-456 1208l-47 -6v-1202h-142z" />
<glyph unicode="N" horiz-adv-x="1470" d="M184 0v1362h158l805 -1149v1149h149v-1362h-151l-813 1143v-1143h-148z" />
<glyph unicode="O" horiz-adv-x="1521" d="M98 680q0 145 45 273t128.5 224.5t211 152.5t283.5 56q125 0 232.5 -36.5t186.5 -101.5t135 -153t84 -193.5t28 -221.5q0 -144 -45 -271.5t-127.5 -224.5t-210 -153t-283.5 -56t-283.5 56t-211 153t-128.5 224.5t-45 271.5zM268 680q0 -163 61 -293.5t175 -205.5t262 -75 q223 0 361.5 162.5t138.5 411.5q0 250 -138.5 412.5t-361.5 162.5q-148 0 -262 -75t-175 -205.5t-61 -294.5z" />
<glyph unicode="P" horiz-adv-x="1271" d="M186 0v1362h594q210 0 336.5 -111t126.5 -286q0 -176 -126.5 -288t-336.5 -112h-434v-565h-160zM346 692h408q165 0 247 74t82 199q0 124 -81.5 196t-247.5 72h-408v-541z" />
<glyph unicode="Q" horiz-adv-x="1521" d="M98 680q0 145 45 273t128.5 224.5t211 152.5t283.5 56q125 0 232.5 -36.5t186.5 -101.5t135 -153t84 -193.5t28 -221.5q0 -182 -71 -334t-213 -252.5t-333 -116.5v-79q0 -83 34 -120.5t124 -37.5q102 0 207 31q5 -31 16 -84q-119 -56 -252 -56q-144 0 -212 70.5 t-68 196.5v86q-176 29 -305.5 130t-195 247.5t-65.5 318.5zM268 680q0 -163 61 -293.5t175 -205.5t262 -75q223 0 361.5 162.5t138.5 411.5q0 250 -138.5 412.5t-361.5 162.5q-148 0 -262 -75t-175 -205.5t-61 -294.5z" />
<glyph unicode="R" horiz-adv-x="1396" d="M184 0v1362h654q118 0 208.5 -30.5t143 -83t78.5 -115t26 -132.5q0 -150 -114.5 -247.5t-286.5 -118.5v-25q111 -7 173 -81t97 -212q52 -226 109 -317h-170q-34 70 -80 221q-6 33 -25 92v-2q-1 4 -4 14.5t-4 14.5q-5 15 -10.5 40.5t-7.5 33.5v-2q-9 36 -10 41 q-30 116 -162 116h-453v-569h-162zM346 690h455q163 0 247.5 83t84.5 206q0 254 -332 254h-455v-543z" />
<glyph unicode="S" horiz-adv-x="1331" d="M133 244q17 17 53 49l47 47q220 -256 510 -256q148 0 230 73t82 185q0 102 -75.5 159.5t-227.5 86.5q-105 22 -185 47.5t-154 62.5t-122 83t-76.5 109.5t-28.5 141.5q0 156 130 255t366 99q293 0 524 -206l-80 -99q-80 80 -204.5 138.5t-243.5 58.5q-158 0 -244 -65 t-86 -187q0 -108 84 -173t295 -110q129 -28 216 -59.5t151 -77t93.5 -107t29.5 -145.5q0 -166 -124.5 -272.5t-361.5 -106.5q-171 0 -328 71t-270 198z" />
<glyph unicode="T" horiz-adv-x="1179" d="M18 1229v133h1149v-133h-493v-1229h-162v1229h-494z" />
<glyph unicode="U" horiz-adv-x="1482" d="M172 459v903h162v-881q0 -172 106.5 -273.5t304.5 -101.5t305 102t107 273v881h162v-903q0 -94 -37.5 -180.5t-108 -154.5t-181.5 -108.5t-247 -40.5t-247 40.5t-181 108.5t-107.5 154.5t-37.5 180.5z" />
<glyph unicode="V" horiz-adv-x="1247" d="M39 1362h160l430 -1202q104 303 229 643q80 218 201 559h155l-501 -1362h-166q-72 180 -129 338q-164 442 -379 1024z" />
<glyph unicode="W" horiz-adv-x="1974" d="M49 1362h156l334 -1239q193 672 366 1239h176l373 -1239q83 317 168 629q21 79 77 293.5t83 316.5h153l-385 -1362h-198l-359 1255q-27 -98 -89.5 -313t-92.5 -321q-23 -84 -176 -621h-195q-28 98 -86.5 298.5t-85.5 299.5q-37 127 -109.5 382t-109.5 382z" />
<glyph unicode="X" horiz-adv-x="1458" d="M123 0l520 705q-17 24 -89.5 124.5t-109.5 153.5q-21 29 -118 167.5t-150 211.5h172l385 -567q326 479 385 567h174l-467 -657q149 -197 291 -394q26 -36 71 -98.5t83 -114.5t73 -98h-172l-438 610q-2 -3 -190 -268q-36 -47 -79 -107t-94 -131t-75 -104h-172z" />
<glyph unicode="Y" horiz-adv-x="1249" d="M27 1362h184l418 -674l418 674h182l-518 -803v-559h-164v559q-111 167 -180 275q-57 88 -340 528z" />
<glyph unicode="Z" horiz-adv-x="1347" d="M174 0v129l854 1110h-842v123h998v-133l-850 -1108h870v-121h-1030z" />
<glyph unicode="[" horiz-adv-x="651" d="M195 -328v1833h360v-84h-207v-1661h207v-88h-360z" />
<glyph unicode="\" horiz-adv-x="1003" d="M137 1487h101q217 -633 319 -918q67 -193 315 -917h-100z" />
<glyph unicode="]" horiz-adv-x="651" d="M100 -240h207v1661h-207v84h361v-1833h-361v88z" />
<glyph unicode="^" horiz-adv-x="983" d="M135 854q104 181 144 252q12 22 65 114t80 142h143l287 -508h-123l-237 496q-6 -13 -27.5 -57t-30.5 -64q-158 -329 -178 -375h-123z" />
<glyph unicode="_" horiz-adv-x="962" d="M8 -76h953v-30h-953v30z" />
<glyph unicode="`" horiz-adv-x="608" d="M188 1362h142l53 -129q10 -24 28 -67.5t23 -55.5h-72z" />
<glyph unicode="a" horiz-adv-x="1118" d="M139 215q0 133 111.5 197.5t314.5 64.5q88 0 199 -12v139q0 124 -55.5 188t-176.5 64q-114 0 -179.5 -43.5t-65.5 -118.5q0 -42 10 -67q-49 -21 -53 -23q-52 -21 -80 -31q-19 55 -19 103q0 124 107.5 203t288.5 79q377 0 377 -380v-365q0 -70 23.5 -105.5t94.5 -35.5 q15 0 23 2l4 -66q-28 -24 -84 -24q-90 0 -143.5 55.5t-55.5 148.5l-22 13q-98 -221 -340 -221q-128 0 -203.5 61.5t-75.5 173.5zM293 207q0 -61 40 -100t120 -39q139 0 225 85.5t86 229.5v39q-185 -10 -289 -36.5t-143 -68t-39 -110.5z" />
<glyph unicode="b" horiz-adv-x="1136" d="M176 0v1362h154v-639l22 -10q23 91 119 168t211 77q116 0 200.5 -67t125.5 -176t41 -246q0 -136 -45 -245.5t-137 -176.5t-218 -67q-68 0 -130 33t-103.5 82t-67.5 103t-31 99l-24 2q-2 -13 -9 -67.5t-12 -86.5q-3 -21 -9.5 -71.5t-10.5 -73.5h-76zM330 469 q0 -167 82 -272t200 -105q125 0 205 104.5t80 272.5t-80 271.5t-205 103.5q-118 0 -200 -104.5t-82 -270.5z" />
<glyph unicode="c" horiz-adv-x="1024" d="M98 469q0 221 119.5 355t337.5 134q148 0 245 -70.5t122 -189.5q-14 -4 -36 -10t-30 -8q-22 -8 -70 -23q-24 90 -85 142.5t-150 52.5q-142 0 -218.5 -107.5t-76.5 -275.5q0 -164 87.5 -274.5t231.5 -110.5q193 0 242 205q8 -2 19 -6.5t16 -6.5q13 -4 27.5 -8.5t33 -9 t31.5 -8.5q-64 -270 -375 -270q-218 0 -344.5 135.5t-126.5 353.5z" />
<glyph unicode="d" horiz-adv-x="1136" d="M94 469q0 136 41 245.5t126 176.5t200 67q114 0 210 -83.5t120 -176.5l22 9v655h154v-1362h-74l-45 299l-25 -2q-5 -45 -32 -98.5t-69.5 -103t-106 -82.5t-132.5 -33q-124 0 -213.5 67t-132.5 176t-43 246zM248 469q0 -170 74 -273.5t200 -103.5q119 0 205 105.5 t86 271.5q0 155 -86 265t-203 110q-124 0 -200 -104t-76 -271z" />
<glyph unicode="e" horiz-adv-x="1013" d="M98 469q0 222 123.5 355.5t319.5 133.5q177 0 273.5 -98t96.5 -278q0 -77 -14 -146h-631q0 -162 85 -261t222 -99q102 0 155 46.5t65 143.5l127 -37q-19 -127 -116 -188t-241 -61q-215 0 -340 127t-125 362zM266 526h484l4 4q12 59 12 103q0 106 -61 168.5t-162 62.5 q-121 0 -193.5 -95.5t-83.5 -242.5z" />
<glyph unicode="f" horiz-adv-x="651" d="M57 854v84h168q-39 124 -39 192q0 117 67 184.5t196 67.5q136 0 223 -73l-43 -78q-67 51 -150 51q-75 0 -111 -43t-36 -117q0 -94 41 -184h264v-84h-264v-854h-152v854h-164z" />
<glyph unicode="g" horiz-adv-x="1091" d="M68 -135q0 79 80.5 129t209.5 55l4 25q-243 49 -243 178q0 50 67 87.5t166 53.5q-83 57 -127.5 125t-44.5 137q0 133 110 217t288 84q110 0 213 -41q40 55 40 103q0 55 -40 90q36 27 88 72l4 4q65 -40 65 -103q0 -43 -37 -87t-114 -79q180 -113 180 -260 q0 -124 -108 -212.5t-291 -88.5q-127 0 -220 41q-39 -17 -66.5 -46t-27.5 -64q0 -117 193 -117h209q397 0 397 -248q0 -138 -139 -213.5t-361 -75.5q-111 0 -199 13t-155.5 40t-104 73t-36.5 108zM229 -111q0 -92 90.5 -139t249.5 -47t250.5 54t91.5 147q0 72 -58 111.5 t-169 39.5h-162q-293 0 -293 -166zM336 655q0 -90 66 -155.5t176 -65.5q109 0 174 65.5t65 155.5q0 91 -64.5 155t-174.5 64q-111 0 -176.5 -64t-65.5 -155z" />
<glyph unicode="h" horiz-adv-x="1165" d="M176 0v1362h154v-715l26 -4q24 130 116 222.5t212 92.5q156 0 239 -98t83 -268v-592h-154v578q0 121 -56.5 183t-154.5 62q-143 0 -227 -145.5t-84 -382.5v-295h-154z" />
<glyph unicode="i" horiz-adv-x="524" d="M188 0v938h152v-938h-152zM188 1147v215h152v-215h-152z" />
<glyph unicode="j" horiz-adv-x="514" d="M6 -352l4 80q18 -2 64 -2q116 0 116 122v1090h152v-1067q0 -120 -47.5 -180t-161.5 -60q-80 0 -127 17zM190 1147v215h152v-215h-152z" />
<glyph unicode="k" horiz-adv-x="1060" d="M176 0v1362h156v-899q74 82 289 301q95 94 165 174h185l-346 -350q41 -65 130.5 -210.5t131.5 -211.5q21 -32 58.5 -91t47.5 -75h-174l-295 494l-192 -203v-291h-156z" />
<glyph unicode="l" horiz-adv-x="524" d="M188 0v1362h152v-1362h-152z" />
<glyph unicode="m" horiz-adv-x="1816" d="M168 0v938h74l47 -379h26q16 161 117.5 280t243.5 119q147 0 227 -102t86 -268l27 -2q14 152 110.5 262t223.5 110q155 0 237 -98t82 -268v-592h-153v578q0 122 -56 183.5t-155 61.5q-149 0 -229.5 -151t-80.5 -406v-266h-153v578q0 122 -56 183.5t-155 61.5 q-96 0 -167 -74t-106.5 -197.5t-35.5 -277.5v-274h-154z" />
<glyph unicode="n" horiz-adv-x="1165" d="M176 0v938h74l49 -379h27q10 104 57 194t127 147.5t174 57.5q156 0 239 -98t83 -268v-592h-154v578q0 121 -56.5 183t-154.5 62q-96 0 -167.5 -74t-107.5 -197.5t-36 -277.5v-274h-154z" />
<glyph unicode="o" horiz-adv-x="1089" d="M94 469q0 140 62 253t166 174.5t227 61.5q91 0 174 -36.5t144.5 -100t97.5 -155.5t36 -197q0 -139 -61.5 -252t-165 -175t-225.5 -62q-123 0 -227 62t-166 175t-62 252zM248 469q0 -161 85 -271t216 -110q129 0 214 110t85 271t-85 270t-214 109q-131 0 -216 -109 t-85 -270z" />
<glyph unicode="p" horiz-adv-x="1136" d="M176 -348v1286h74l45 -297l24 2q5 45 32 98t69.5 102t106 82t132.5 33q94 0 169.5 -38.5t123 -105.5t72.5 -155t25 -190q0 -137 -41 -246t-125.5 -176t-200.5 -67q-115 0 -198 70t-107 163l-47 -6v-555h-154zM330 469q0 -155 86 -266t202 -111q124 0 201.5 106t77.5 271 q0 170 -74.5 272.5t-201.5 102.5q-119 0 -205 -105t-86 -270z" />
<glyph unicode="q" horiz-adv-x="1136" d="M94 469q0 136 45.5 245.5t138 176.5t218.5 67q67 0 128 -33t102 -82t66.5 -102.5t30.5 -99.5l25 -2q2 13 8.5 65t11.5 80q7 49 25 154h74v-1286h-154v577l-22 11q-24 -94 -120 -177t-210 -83q-115 0 -200 67t-126 176.5t-41 245.5zM248 469q0 -168 78.5 -272.5 t203.5 -104.5q118 0 200.5 105.5t82.5 271.5t-82 270.5t-201 104.5q-125 0 -203.5 -103.5t-78.5 -271.5z" />
<glyph unicode="r" horiz-adv-x="866" d="M180 0v938h76l51 -412h27q10 195 90.5 313.5t202.5 118.5q96 0 147 -56.5t51 -149.5q0 -85 -45 -187q-13 -1 -35 -2t-34 -2q-40 -4 -56 -4q31 95 31 156q0 129 -113 129q-61 0 -108.5 -59.5t-75 -156t-41.5 -205t-14 -220.5v-201h-154z" />
<glyph unicode="s" horiz-adv-x="985" d="M125 154q40 54 68 82q170 -162 352 -162q94 0 141 36.5t47 98.5q0 114 -246 186q-187 57 -261 132t-74 182q0 110 95 179.5t247 69.5q230 0 389 -159l-70 -78q-152 141 -319 141q-87 0 -140 -35.5t-53 -103.5q0 -73 55 -112.5t203 -84.5q163 -54 242.5 -119t79.5 -161 q0 -124 -91.5 -195t-263.5 -71q-116 0 -223.5 50t-177.5 124z" />
<glyph unicode="t" horiz-adv-x="696" d="M37 854v84h170v281q116 16 151 22v-303h258v-84h-258v-610q0 -71 28.5 -114.5t107.5 -43.5q74 0 129 8l-2 -84q-65 -30 -175 -30q-239 0 -239 264v610h-170z" />
<glyph unicode="u" horiz-adv-x="1165" d="M166 346v592h153v-578q0 -121 56.5 -184t154.5 -63q96 0 167.5 74.5t108 198.5t36.5 278v274h153v-938h-71l-52 379h-26q-16 -162 -117 -280.5t-242 -118.5q-155 0 -238 97.5t-83 268.5z" />
<glyph unicode="v" horiz-adv-x="946" d="M25 938h149l301 -797q69 181 227 602q13 37 40.5 108t33.5 87h152l-398 -938h-108q-139 335 -295 694q-27 62 -102 244z" />
<glyph unicode="w" horiz-adv-x="1478" d="M27 938h137l244 -801q15 46 70.5 217t84.5 258q52 156 107 326h147l262 -801q9 29 44.5 147t54.5 181q26 89 77 253t68 220h137q-31 -92 -88 -253t-76 -214q-55 -148 -168 -471h-118l-267 872q-129 -434 -266 -872h-119q-12 33 -58.5 166.5t-72.5 204.5q-99 268 -200 567 z" />
<glyph unicode="x" horiz-adv-x="1015" d="M68 0l364 483q-32 46 -196 269q-64 85 -136 186h154l256 -385q61 86 143 211q17 26 57 84.5t60 89.5h156l-336 -455q17 -23 364 -483h-151l-293 414q-51 -74 -205 -291q-53 -73 -88 -123h-149z" />
<glyph unicode="y" horiz-adv-x="946" d="M25 938h149l301 -793q46 127 197 521q81 209 104 272h154q-301 -702 -412 -952q-50 -106 -87 -169.5t-81 -107.5t-92 -61t-115 -17q-61 0 -102 17l6 92q29 -10 68 -10t66 4t52.5 18t43.5 32t40.5 55.5t41.5 78t49 109.5q-75 183 -162 389q-120 277 -221 522z" />
<glyph unicode="z" horiz-adv-x="964" d="M127 0v94l582 748h-562v96h707v-113l-565 -731h571v-94h-733z" />
<glyph unicode="{" horiz-adv-x="663" d="M111 557v68q53 1 86.5 15t50.5 43.5t22.5 62.5t5.5 85v449q0 114 60 169.5t192 55.5h39v-84h-22q-58 0 -87.5 -28.5t-29.5 -106.5v-356q0 -79 -8 -128.5t-31 -90.5t-66 -64t-112 -35v-45q56 -10 94 -28t62.5 -42t38 -62t18 -80t4.5 -103v-356q0 -80 29.5 -109t87.5 -29 h22v-86h-39q-131 0 -191.5 57t-60.5 173v446q0 95 -37.5 148.5t-127.5 60.5z" />
<glyph unicode="|" horiz-adv-x="475" d="M211 -348v1939h57v-1939h-57z" />
<glyph unicode="}" horiz-adv-x="663" d="M100 -242h23q58 0 87.5 29t29.5 109v356q0 61 4.5 103t18 80t38 62t62.5 42t94 28v45q-69 12 -112 35t-66 64t-31 90.5t-8 128.5v356q0 78 -29.5 106.5t-87.5 28.5h-23v84h37q133 0 193.5 -55.5t60.5 -169.5v-449q0 -95 37.5 -147t128.5 -59v-68q-101 -3 -133.5 -53 t-32.5 -156v-446q0 -116 -60.5 -173t-193.5 -57h-37v86z" />
<glyph unicode="~" horiz-adv-x="983" d="M158 494q0 62 36.5 103.5t108.5 41.5q39 0 80 -13.5t65 -26.5t64 -38q105 -67 160 -67q45 0 67.5 24t22.5 66q0 31 -8 55h65q21 -53 21 -96q0 -68 -37.5 -111t-116.5 -43q-61 0 -203 84v-2q-1 1 -6 4t-6 4q-99 60 -143 60q-42 0 -63 -22.5t-21 -61.5q0 -26 12 -66h-70 q-28 48 -28 105zM815 651l4 6q4 -4 4 -8q0 -1 1 -1t1 -1h-4q-4 2 -6 4z" />
<glyph unicode="&#xa1;" horiz-adv-x="569" d="M199 12q30 200 51 326q5 31 17.5 101.5t17.5 105.5l90 -533v-360h-176v360zM207 739v199h160v-199h-160z" />
<glyph unicode="&#xa2;" horiz-adv-x="1081" d="M125 659q0 200 104.5 331t296.5 155v217h107v-215q126 -17 208.5 -86t104.5 -172q-30 -8 -78 -25q-45 -15 -55 -18q-24 89 -85.5 142.5t-149.5 53.5q-142 0 -218.5 -107.5t-76.5 -275.5q0 -165 87 -274t232 -109q197 0 242 201q18 -5 47.5 -14t46.5 -14q4 -2 9.5 -4 t13 -5t10.5 -4q-26 -118 -108.5 -183.5t-229.5 -84.5v-211h-107v215q-189 32 -295 162.5t-106 324.5z" />
<glyph unicode="&#xa3;" horiz-adv-x="1370" d="M115 164q0 93 64 144.5t169 51.5q98 0 209 -53q-3 169 -59 260h-269v78h228q-70 88 -116 188.5t-46 176.5q0 150 101 240.5t296 90.5q172 0 272.5 -77.5t100.5 -206.5q0 -104 -51 -228q-33 12 -113 41q41 87 41 156q0 100 -66 156.5t-186 56.5q-118 0 -188 -59t-70 -179 q0 -81 43.5 -175.5t114.5 -180.5h330q-5 -30 -5 -39q-1 -7 -2 -19.5t-2 -19.5h-284q47 -107 47 -205q0 -58 -15 -126q113 -99 183.5 -142t150.5 -43q87 0 128.5 47t41.5 117q0 119 -112 172q21 37 47 70h-2l12 12q81 -20 125.5 -83t44.5 -157q0 -107 -69 -178t-214 -71 q-105 0 -186.5 41t-183.5 131q-96 -172 -285 -172q-106 0 -165.5 51t-59.5 133zM221 166q0 -55 32.5 -88t94.5 -33q73 0 120 46.5t77 131.5q-103 66 -187 66q-60 0 -98.5 -33t-38.5 -90z" />
<glyph unicode="&#xa4;" horiz-adv-x="1179" d="M199 231l153 150q-82 154 -82 297q0 142 80 299l-149 149q21 16 59 64l146 -137q85 69 188 69q101 0 186 -69l146 143l-10 17q1 -1 14 -17q18 -24 24 -31q6 -6 17 -19t18 -20l-153 -149q82 -161 82 -299q0 -137 -84 -295q107 -102 157 -152q-25 -22 -51 -51 q-12 -16 -14 -18l-146 143q-85 -69 -186 -69q-103 0 -188 69l-142 -143q-5 5 -11 12.5t-5 7.5q-33 37 -49 49zM377 678q0 -371 217 -371q215 0 215 371q0 373 -215 373q-217 0 -217 -373z" />
<glyph unicode="&#xa5;" horiz-adv-x="1210" d="M90 1319h170l350 -674q22 45 73 141t71 136q17 32 93.5 178t113.5 219h165l-317 -549h260v-86h-305l-84 -143v-123h389v-84h-389v-334h-139v334h-391v84h391v123l-86 143h-305v86h258q-79 139 -158 272q-96 165 -160 277z" />
<glyph unicode="&#xa6;" horiz-adv-x="475" d="M211 -348v817h57v-817h-57zM211 776v815h57v-815h-57z" />
<glyph unicode="&#xa7;" horiz-adv-x="1249" d="M150 -133q12 13 33.5 34.5t29.5 30.5q85 -95 205 -155t252 -60q150 0 226.5 52.5t76.5 148.5q0 47 -20 82.5t-64.5 63.5t-92 47.5t-126.5 44.5q-106 35 -177.5 63t-135 62t-99 69t-56 78.5t-20.5 97.5q0 92 84.5 159.5t222.5 84.5l3 8q-9 3 -32 11.5t-32 11.5 q-99 43 -152 123t-53 170q0 135 106 213.5t310 78.5q258 0 424 -145q-32 -46 -51 -65q-6 -9 -8 -11q-71 52 -171.5 92.5t-197.5 40.5q-135 0 -208 -52.5t-73 -145.5q0 -87 75 -146.5t251 -117.5q214 -69 310.5 -151t96.5 -193q0 -90 -59.5 -168t-163.5 -138 q98 -34 168 -102.5t70 -155.5q0 -135 -117 -216t-328 -81q-136 0 -282 69t-225 167zM313 528q0 -83 59.5 -131t209.5 -100l219 -78q70 40 108.5 105t38.5 131q0 46 -9.5 78.5t-36 64t-75.5 57.5t-127 52l-180 57q-207 -76 -207 -236z" />
<glyph unicode="&#xa8;" horiz-adv-x="845" d="M160 1133v161h129v-161h-129zM563 1133v161h127v-161h-127z" />
<glyph unicode="&#xa9;" horiz-adv-x="1601" d="M96 680q0 192 93 354t256 257t360 95t360 -95t255.5 -257t92.5 -354q0 -143 -54.5 -273t-148.5 -225t-226 -151t-279 -56t-279 56t-226 151t-149 225t-55 273zM152 680q0 -136 50.5 -258.5t136.5 -211t207.5 -140.5t258.5 -52t258.5 52t207.5 140.5t136.5 211t50.5 258.5 q0 183 -85 335t-235.5 240t-332.5 88t-332.5 -88t-235.5 -240t-85 -335zM512 680q0 142 90 237t223 95q93 0 157.5 -46t90.5 -130q-54 -22 -67 -25q-19 60 -67 100.5t-118 40.5q-103 0 -167 -75.5t-64 -196.5q0 -120 63 -195t168 -75q96 0 152.5 49t64.5 139q45 -18 60 -23 q-8 -94 -81.5 -158.5t-195.5 -64.5q-134 0 -221.5 94t-87.5 234z" />
<glyph unicode="&#xaa;" horiz-adv-x="718" d="M141 1020q0 58 57 89.5t156 31.5q31 0 49 -2q2 0 7.5 -1t7.5 -1h41v80q0 70 -30 104.5t-95 34.5q-62 0 -98.5 -25t-36.5 -67q0 -11 4 -27q-23 -8 -53 -23q-5 13 -5 37q0 62 51.5 98.5t141.5 36.5q178 0 178 -184v-184q0 -39 14.5 -59.5t57.5 -20.5h4v-20q-5 -5 -31 -5 q-41 0 -65 39t-29 111l-8 2l-6 -12q6 21 6 47l-25 26q-130 -2 -181.5 -22t-51.5 -82q0 -34 22 -58t66 -24q69 0 112 37q-52 -64 -125 -64q-63 0 -99 27.5t-36 79.5zM401 977q30 33 52 76q-16 -50 -52 -76z" />
<glyph unicode="&#xab;" horiz-adv-x="1351" d="M111 430v76q51 37 184 127q181 126 346 235v-127l-448 -272q22 -14 66.5 -41.5t62.5 -38.5q85 -54 319 -192v-129q-140 98 -262 182q-109 76 -268 180zM678 430v76q71 53 182 127q208 143 346 235v-127l-450 -272q219 -134 450 -272v-129q-226 158 -260 182 q-39 27 -268 180z" />
<glyph unicode="&#xac;" horiz-adv-x="1226" d="M133 555v100h936v-520h-119v420h-817z" />
<glyph unicode="&#xad;" horiz-adv-x="700" d="M158 487v109h397v-109h-397z" />
<glyph unicode="&#xae;" horiz-adv-x="976" d="M137 1040q0 90 40.5 168.5t122.5 129.5t189 51q163 0 258 -104t95 -245q0 -89 -39.5 -166t-121.5 -127.5t-192 -50.5q-107 0 -189 50t-122.5 127.5t-40.5 166.5zM158 1040q0 -87 37 -160.5t114 -121t180 -47.5t180 47.5t113.5 121t36.5 160.5q0 137 -88 235.5t-242 98.5 t-242.5 -98.5t-88.5 -235.5zM389 887v303h123q54 0 80 -20.5t26 -53.5q0 -35 -20 -57.5t-57 -26.5v-2q24 -4 34 -21t15 -51q10 -37 22 -71h-22q-29 94 -29 104q-11 29 -43 29h-106v-133h-23zM412 1040h106q40 0 60 20.5t20 49.5q0 64 -80 64h-106v-134z" />
<glyph unicode="&#xaf;" horiz-adv-x="833" d="M139 1161v88h559v-88h-559z" />
<glyph unicode="&#xb0;" horiz-adv-x="700" d="M121 1163q0 96 67.5 159.5t163.5 63.5q97 0 164.5 -63.5t67.5 -159.5q0 -94 -68 -157.5t-164 -63.5t-163.5 63.5t-67.5 157.5zM195 1163q0 -71 45 -119.5t112 -48.5q68 0 113 47.5t45 120.5q0 77 -44.5 122.5t-113.5 45.5q-68 0 -112.5 -47t-44.5 -121z" />
<glyph unicode="&#xb1;" horiz-adv-x="1216" d="M143 0v86h410v371h-410v96h410v385h119v-385h407v-96h-407v-371h407v-86h-936z" />
<glyph unicode="&#xb2;" d="M199 594v197h159v-197h-159z" />
<glyph unicode="&#xb3;" d="M199 594v197h159v-197h-159z" />
<glyph unicode="&#xb4;" horiz-adv-x="608" d="M174 1110q6 13 30.5 68t35.5 82q6 14 21 48.5t24 53.5h139l-174 -252h-76z" />
<glyph unicode="&#xb5;" horiz-adv-x="1165" d="M166 -348v1286h153v-590q0 -115 57 -175t154 -60q96 0 167.5 74.5t108 198.5t36.5 278v274h153v-938h-71l-52 381h-10q-10 -103 -61.5 -195t-135 -149t-178.5 -57q-86 0 -168 32v-360h-153z" />
<glyph unicode="&#xb6;" horiz-adv-x="1267" d="M102 940q0 203 163.5 312.5t449.5 109.5h375v-1362h-113v1286h-182v-1286h-113v514q-108 6 -209 36t-185 81.5t-135 131.5t-51 177zM307 944q0 -84 40.5 -157t127.5 -125.5t207 -65.5v690q-164 0 -269.5 -95.5t-105.5 -246.5z" />
<glyph unicode="&#xb7;" d="M199 594v197h159v-197h-159z" />
<glyph unicode="&#xb8;" horiz-adv-x="724" d="M160 -332q2 4 6.5 13.5t7.5 15.5q89 -33 148 -33q67 0 107 23.5t40 62.5q0 78 -129 78q-53 0 -84 -4q2 6 8 22.5t8 24.5q17 41 41 113h47l-55 -150q77 27 133 27q68 0 104 -31.5t36 -77.5q0 -59 -63 -90t-181 -31q-87 0 -174 37z" />
<glyph unicode="&#xb9;" d="M199 594v197h159v-197h-159z" />
<glyph unicode="&#xba;" horiz-adv-x="686" d="M121 1149q0 104 65.5 170.5t159.5 66.5q93 0 158 -66.5t65 -170.5q0 -102 -65 -169t-158 -67q-94 0 -159.5 66.5t-65.5 169.5zM180 1149q0 -86 46.5 -143.5t119.5 -57.5q72 0 118 57.5t46 143.5q0 89 -45.5 146t-118.5 57t-119.5 -57.5t-46.5 -145.5z" />
<glyph unicode="&#xbb;" horiz-adv-x="1351" d="M152 68v129l452 272l-452 274v125q105 -69 264 -178q176 -119 266 -184v-76q-32 -21 -93.5 -63t-92.5 -64q-181 -128 -344 -235zM719 68v129l448 272l-448 272v127q197 -132 264 -178q139 -94 264 -184v-76q-121 -82 -184 -127q-137 -97 -344 -235z" />
<glyph unicode="&#xbc;" d="M199 594v197h159v-197h-159z" />
<glyph unicode="&#xbd;" d="M199 594v197h159v-197h-159z" />
<glyph unicode="&#xbe;" d="M199 594v197h159v-197h-159z" />
<glyph unicode="&#xbf;" horiz-adv-x="1097" d="M125 2q0 160 108.5 302t284.5 251q27 -36 31 -43q25 -35 31 -43q-95 -74 -154.5 -137.5t-98 -147.5t-38.5 -180q0 -114 66 -182t180 -68q127 0 189 63t62 165q0 73 -26 141q20 9 48.5 23t35.5 18l10 6q11 5 16 10q68 -103 68 -221q0 -65 -24.5 -123t-72.5 -104.5 t-127.5 -73.5t-181.5 -27q-192 0 -299.5 102.5t-107.5 268.5zM469 739v199h162v-199h-162z" />
<glyph unicode="&#xc0;" horiz-adv-x="1421" d="M88 0q131 332 266 680q180 463 267 682h188q136 -339 268 -682q236 -608 264 -680h-165l-107 309h-711q-6 -18 -18.5 -56t-17.5 -52q-61 -181 -68 -201h-166zM406 436h618l-309 838zM522 1686h144q14 -32 36 -88t31 -78h-86z" />
<glyph unicode="&#xc1;" horiz-adv-x="1421" d="M88 0q131 332 266 680q180 463 267 682h188q136 -339 268 -682q236 -608 264 -680h-165l-107 309h-711q-6 -18 -18.5 -56t-17.5 -52q-61 -181 -68 -201h-166zM406 436h618l-309 838zM694 1520q43 113 68 166h147l-129 -166h-86z" />
<glyph unicode="&#xc2;" horiz-adv-x="1421" d="M88 0q131 332 266 680q180 463 267 682h188q136 -339 268 -682q236 -608 264 -680h-165l-107 309h-711q-6 -18 -18.5 -56t-17.5 -52q-61 -181 -68 -201h-166zM406 436h618l-309 838zM459 1520q24 24 66 65t63 62q29 29 41 39h172l168 -166h-121l-131 153 q-61 -67 -135 -153h-123z" />
<glyph unicode="&#xc3;" horiz-adv-x="1421" d="M88 0q131 332 266 680q180 463 267 682h188q136 -339 268 -682q236 -608 264 -680h-165l-107 309h-711q-6 -18 -18.5 -56t-17.5 -52q-61 -181 -68 -201h-166zM385 1614q0 50 38 84.5t107 34.5q43 0 81.5 -15t90.5 -51l37 -25q103 -79 150 -79q69 0 69 67q0 35 -36 76 l30 33q37 -22 62.5 -59t25.5 -72q0 -45 -35 -78t-98 -33q-96 0 -207 78q-14 8 -34 24v-2q-2 2 -12.5 11.5t-12.5 11.5q-29 24 -50.5 34.5t-51.5 10.5q-66 0 -66 -63q0 -32 31 -66q-6 -6 -23.5 -22.5t-23.5 -22.5q-32 22 -52 55.5t-20 67.5zM406 436h618l-309 838z" />
<glyph unicode="&#xc4;" horiz-adv-x="1421" d="M88 0q131 332 266 680q180 463 267 682h188q136 -339 268 -682q236 -608 264 -680h-165l-107 309h-711q-6 -18 -18.5 -56t-17.5 -52q-61 -181 -68 -201h-166zM406 436h618l-309 838zM416 1534v143h149v-143h-149zM864 1534v143h150v-143h-150z" />
<glyph unicode="&#xc5;" horiz-adv-x="1421" d="M88 0l524 1343q-67 58 -67 134q0 70 48 115.5t122 45.5t121 -45.5t47 -115.5q0 -79 -64 -136q48 -124 233.5 -605t286.5 -736h-163l-107 309h-711q-6 -18 -18.5 -56t-17.5 -52q-61 -181 -68 -201h-166zM406 436h618l-309 838zM606 1477q0 -54 28 -87.5t81 -33.5 t80.5 33.5t27.5 87.5q0 52 -27.5 85t-80.5 33t-81 -33t-28 -85z" />
<glyph unicode="&#xc6;" horiz-adv-x="1939" d="M82 0q51 132 142 366.5t122 313.5q33 85 125 320t141 362h1219v-125h-977l182 -479h645v-119h-596l199 -516h553v-123h-668l-108 309h-709q-43 -127 -49 -145q-32 -102 -55 -164h-166zM397 436h621l-309 838z" />
<glyph unicode="&#xc7;" horiz-adv-x="1431" d="M92 680q0 146 43.5 273t125.5 224t211.5 153t291.5 56q193 0 330.5 -99.5t197.5 -258.5q-52 -17 -104 -39q-18 -8 -53 -22q-36 126 -133 207t-244 81q-222 0 -358 -158t-136 -417q0 -261 139 -417.5t381 -156.5q334 0 410 326q18 -9 61 -22q65 -22 84 -31 q-21 -75 -59.5 -140t-99.5 -123.5t-154 -95.5t-209 -43l-45 -141q74 25 133 25q68 0 102.5 -31.5t34.5 -77.5q0 -56 -61.5 -88.5t-183.5 -32.5q-90 0 -170 37q2 4 6.5 13.5t7.5 15.5q80 -33 145 -33q66 0 108 24t42 62q0 78 -133 78q-53 0 -82 -4l53 151q-169 7 -301.5 65.5 t-214.5 155.5t-124 219.5t-42 264.5z" />
<glyph unicode="&#xc8;" horiz-adv-x="1234" d="M188 0v1362h922v-129h-762v-471h613v-123h-613v-512h770v-127h-930zM492 1686h141q6 -14 31 -74.5t38 -91.5h-88z" />
<glyph unicode="&#xc9;" horiz-adv-x="1234" d="M188 0v1362h922v-129h-762v-471h613v-123h-613v-512h770v-127h-930zM600 1520q8 22 21.5 53t19.5 47q4 9 13 31t14 35h145l-125 -166h-88z" />
<glyph unicode="&#xca;" horiz-adv-x="1234" d="M188 0v1362h922v-129h-762v-471h613v-123h-613v-512h770v-127h-930zM403 1520l127 127q7 6 22 20t21 19h172l168 -166h-120l-134 153q-32 -41 -73 -88q-20 -25 -60 -65h-123z" />
<glyph unicode="&#xcb;" horiz-adv-x="1234" d="M188 0v1362h922v-129h-762v-471h613v-123h-613v-512h770v-127h-930zM346 1534v143h148v-143h-148zM795 1534v143h149v-143h-149z" />
<glyph unicode="&#xcc;" horiz-adv-x="573" d="M113 1686h143q14 -32 37 -89.5t31 -76.5h-86zM211 0v1362h160v-1362h-160z" />
<glyph unicode="&#xcd;" horiz-adv-x="573" d="M207 0v1362h160v-1362h-160zM252 1520q49 126 67 166h146l-127 -166h-86z" />
<glyph unicode="&#xce;" horiz-adv-x="573" d="M33 1520l127 127q19 19 43 39h172l168 -166h-121l-133 153q-23 -30 -74 -88q-12 -15 -34.5 -39t-24.5 -26h-123zM209 0v1362h160v-1362h-160z" />
<glyph unicode="&#xcf;" horiz-adv-x="573" d="M-10 1534v143h147v-143h-147zM209 0v1362h160v-1362h-160zM438 1534v143h150v-143h-150z" />
<glyph unicode="&#xd0;" horiz-adv-x="1517" d="M125 625v112h170v625h493q196 0 343.5 -87.5t225 -242t77.5 -352.5q0 -197 -77.5 -351t-225 -241.5t-343.5 -87.5h-493v625h-170zM457 131h311q229 0 367.5 144t138.5 405q0 262 -138.5 405.5t-367.5 143.5h-311v-492h342v-112h-342v-494z" />
<glyph unicode="&#xd1;" horiz-adv-x="1470" d="M184 0v1362h158l805 -1149v1149h149v-1362h-151l-813 1143v-1143h-148zM401 1614q0 50 39 84.5t109 34.5q75 0 170 -66l37 -25q103 -79 151 -79q68 0 68 67q0 33 -37 76l31 33q37 -22 61.5 -59t24.5 -72q0 -45 -34 -78t-97 -33q-55 0 -102.5 19t-104.5 59q-18 10 -35 24 v-2q-2 2 -11.5 10.5t-11.5 10.5q-24 18 -36 26t-31 14.5t-39 6.5q-64 0 -64 -63q0 -32 31 -66q-6 -6 -23.5 -22.5t-23.5 -22.5q-32 22 -52 55.5t-20 67.5z" />
<glyph unicode="&#xd2;" horiz-adv-x="1521" d="M98 680q0 145 45 273t128.5 224.5t211 152.5t283.5 56q125 0 232.5 -36.5t186.5 -101.5t135 -153t84 -193.5t28 -221.5q0 -144 -45 -271.5t-127.5 -224.5t-210 -153t-283.5 -56t-283.5 56t-211 153t-128.5 224.5t-45 271.5zM268 680q0 -163 61 -293.5t175 -205.5t262 -75 q223 0 361.5 162.5t138.5 411.5q0 250 -138.5 412.5t-361.5 162.5q-148 0 -262 -75t-175 -205.5t-61 -294.5zM569 1686h142q14 -32 36 -88t31 -78h-86z" />
<glyph unicode="&#xd3;" horiz-adv-x="1521" d="M98 680q0 145 45 273t128.5 224.5t211 152.5t283.5 56q125 0 232.5 -36.5t186.5 -101.5t135 -153t84 -193.5t28 -221.5q0 -144 -45 -271.5t-127.5 -224.5t-210 -153t-283.5 -56t-283.5 56t-211 153t-128.5 224.5t-45 271.5zM268 680q0 -163 61 -293.5t175 -205.5t262 -75 q223 0 361.5 162.5t138.5 411.5q0 250 -138.5 412.5t-361.5 162.5q-148 0 -262 -75t-175 -205.5t-61 -294.5zM725 1520q8 22 21.5 53t19.5 47q4 9 13 31t14 35h149l-129 -166h-88z" />
<glyph unicode="&#xd4;" horiz-adv-x="1521" d="M98 680q0 145 45 273t128.5 224.5t211 152.5t283.5 56q125 0 232.5 -36.5t186.5 -101.5t135 -153t84 -193.5t28 -221.5q0 -144 -45 -271.5t-127.5 -224.5t-210 -153t-283.5 -56t-283.5 56t-211 153t-128.5 224.5t-45 271.5zM268 680q0 -163 61 -293.5t175 -205.5t262 -75 q223 0 361.5 162.5t138.5 411.5q0 250 -138.5 412.5t-361.5 162.5q-148 0 -262 -75t-175 -205.5t-61 -294.5zM508 1520q49 47 129 127q29 29 41 39h172l168 -166h-119l-133 153q-61 -67 -135 -153h-123z" />
<glyph unicode="&#xd5;" horiz-adv-x="1521" d="M98 680q0 145 45 273t128.5 224.5t211 152.5t283.5 56q125 0 232.5 -36.5t186.5 -101.5t135 -153t84 -193.5t28 -221.5q0 -144 -45 -271.5t-127.5 -224.5t-210 -153t-283.5 -56t-283.5 56t-211 153t-128.5 224.5t-45 271.5zM268 680q0 -163 61 -293.5t175 -205.5t262 -75 q223 0 361.5 162.5t138.5 411.5q0 250 -138.5 412.5t-361.5 162.5q-148 0 -262 -75t-175 -205.5t-61 -294.5zM416 1614q0 50 38.5 84.5t108.5 34.5q75 0 170 -66l37 -25q103 -79 152 -79q67 0 67 67q0 33 -37 76l31 33q37 -22 61.5 -59t24.5 -72q0 -45 -34 -78t-99 -33 q-94 0 -207 78q-6 5 -17 12.5t-14 9.5q-9 6 -16 13q-64 55 -115 55q-65 0 -65 -63q0 -33 33 -66q-6 -6 -24 -22.5t-24 -22.5q-32 22 -51.5 55.5t-19.5 67.5z" />
<glyph unicode="&#xd6;" horiz-adv-x="1521" d="M98 680q0 145 45 273t128.5 224.5t211 152.5t283.5 56q125 0 232.5 -36.5t186.5 -101.5t135 -153t84 -193.5t28 -221.5q0 -144 -45 -271.5t-127.5 -224.5t-210 -153t-283.5 -56t-283.5 56t-211 153t-128.5 224.5t-45 271.5zM268 680q0 -163 61 -293.5t175 -205.5t262 -75 q223 0 361.5 162.5t138.5 411.5q0 250 -138.5 412.5t-361.5 162.5q-148 0 -262 -75t-175 -205.5t-61 -294.5zM465 1534v143h149v-143h-149zM915 1534v143h148v-143h-148z" />
<glyph unicode="&#xd7;" horiz-adv-x="1007" d="M135 156l291 290q-140 145 -291 291l82 80l289 -291l291 291q6 -5 22.5 -21.5t35.5 -36t22 -22.5l-289 -291q132 -127 289 -290l-80 -80l-291 291l-289 -291q-7 8 -43.5 43t-38.5 37z" />
<glyph unicode="&#xd8;" horiz-adv-x="1521" d="M98 680q0 145 45 273t128.5 224.5t211 152.5t283.5 56q258 0 451 -165q17 19 53.5 58.5t54.5 57.5l39 39q30 -24 59 -53l-149 -164q158 -205 158 -479q0 -144 -45 -271.5t-127.5 -224.5t-210 -153t-283.5 -56q-258 0 -453 164q-15 -15 -48.5 -51.5t-39.5 -42.5 q-36 -41 -59 -61q-10 7 -19 16q-6 6 -20 19t-21 20l152 162q-160 204 -160 479zM268 680q0 -192 99 -363l743 789q-152 149 -344 149q-148 0 -262 -75t-175 -205.5t-61 -294.5zM418 256q150 -150 348 -150q223 0 361.5 162.5t138.5 411.5q0 184 -101 364z" />
<glyph unicode="&#xd9;" horiz-adv-x="1482" d="M172 459v903h162v-881q0 -172 106.5 -273.5t304.5 -101.5t305 102t107 273v881h162v-903q0 -94 -37.5 -180.5t-108 -154.5t-181.5 -108.5t-247 -40.5t-247 40.5t-181 108.5t-107.5 154.5t-37.5 180.5zM584 1686h139q54 -129 70 -166h-88z" />
<glyph unicode="&#xda;" horiz-adv-x="1482" d="M172 459v903h162v-881q0 -172 106.5 -273.5t304.5 -101.5t305 102t107 273v881h162v-903q0 -94 -37.5 -180.5t-108 -154.5t-181.5 -108.5t-247 -40.5t-247 40.5t-181 108.5t-107.5 154.5t-37.5 180.5zM684 1520q9 23 22.5 57t20.5 53q13 26 25 56h147l-129 -166h-86z" />
<glyph unicode="&#xdb;" horiz-adv-x="1482" d="M172 459v903h162v-881q0 -172 106.5 -273.5t304.5 -101.5t305 102t107 273v881h162v-903q0 -94 -37.5 -180.5t-108 -154.5t-181.5 -108.5t-247 -40.5t-247 40.5t-181 108.5t-107.5 154.5t-37.5 180.5zM489 1520q49 47 129 127q29 29 41 39h172l168 -166h-120l-131 153 q-86 -95 -136 -153h-123z" />
<glyph unicode="&#xdc;" horiz-adv-x="1482" d="M172 459v903h162v-881q0 -172 106.5 -273.5t304.5 -101.5t305 102t107 273v881h162v-903q0 -94 -37.5 -180.5t-108 -154.5t-181.5 -108.5t-247 -40.5t-247 40.5t-181 108.5t-107.5 154.5t-37.5 180.5zM449 1534v143h149v-143h-149zM899 1534v143h148v-143h-148z" />
<glyph unicode="&#xdd;" horiz-adv-x="1249" d="M27 1362h184l418 -674l415 674h185l-518 -803v-559h-164v559q-111 167 -180 275q-57 88 -340 528zM590 1520q8 22 21.5 53t19.5 47q4 9 12.5 31t13.5 35h148l-127 -166h-88z" />
<glyph unicode="&#xde;" horiz-adv-x="1298" d="M186 0v1362h160v-275h434q210 0 336.5 -110t126.5 -285q0 -177 -126.5 -289t-336.5 -112h-434v-291h-160zM346 418h408q165 0 247 74.5t82 199.5q0 123 -82 196t-247 73h-408v-543z" />
<glyph unicode="&#xdf;" horiz-adv-x="1241" d="M174 0v969q0 413 410 413q49 0 97 -7t101 -26.5t93 -49.5t66 -81t26 -116q0 -64 -26 -109.5t-85 -105.5q-2 -3 -20 -17q-4 -3 -14.5 -12t-14.5 -12q-39 -35 -58.5 -55t-38 -54.5t-18.5 -70.5q0 -58 36 -85t128 -59l16 -6q3 -1 9 -2t8 -2q132 -54 207 -123.5t75 -152.5 q0 -121 -75.5 -188.5t-235.5 -67.5q-120 0 -193 20t-157 72q8 17 23.5 45t21.5 41q70 -40 150 -62t147 -22q84 0 128 36.5t44 92.5q0 50 -44.5 96.5t-139.5 75.5q-299 105 -299 287q0 106 147 241v-2q64 57 94.5 103t30.5 104q0 78 -61 126t-162 48q-53 0 -97.5 -14.5 t-83 -46.5t-60 -91t-21.5 -139v-991h-154z" />
<glyph unicode="&#xe0;" horiz-adv-x="1118" d="M139 215q0 133 111.5 197.5t314.5 64.5q88 0 199 -12v139q0 124 -55.5 188t-176.5 64q-114 0 -179.5 -43.5t-65.5 -118.5q0 -42 10 -67q-49 -21 -53 -23q-52 -21 -80 -31q-19 55 -19 103q0 124 107.5 203t288.5 79q377 0 377 -380v-365q0 -70 23.5 -105.5t94.5 -35.5 q15 0 23 2l4 -66q-28 -24 -84 -24q-90 0 -143.5 55.5t-55.5 148.5l-22 13q-98 -221 -340 -221q-128 0 -203.5 61.5t-75.5 173.5zM293 207q0 -61 40 -100t120 -39q139 0 225 85.5t86 229.5v39q-185 -10 -289 -36.5t-143 -68t-39 -110.5zM324 1362h141l53 -129q11 -22 53 -123 h-73z" />
<glyph unicode="&#xe1;" horiz-adv-x="1118" d="M139 215q0 133 111.5 197.5t314.5 64.5q88 0 199 -12v139q0 124 -55.5 188t-176.5 64q-114 0 -179.5 -43.5t-65.5 -118.5q0 -42 10 -67q-49 -21 -53 -23q-52 -21 -80 -31q-19 55 -19 103q0 124 107.5 203t288.5 79q377 0 377 -380v-365q0 -70 23.5 -105.5t94.5 -35.5 q15 0 23 2l4 -66q-28 -24 -84 -24q-90 0 -143.5 55.5t-55.5 148.5l-22 13q-98 -221 -340 -221q-128 0 -203.5 61.5t-75.5 173.5zM293 207q0 -61 40 -100t120 -39q139 0 225 85.5t86 229.5v39q-185 -10 -289 -36.5t-143 -68t-39 -110.5zM477 1110q12 31 36 84t30 66 q6 14 21 48.5t24 53.5h139l-174 -252h-76z" />
<glyph unicode="&#xe2;" horiz-adv-x="1118" d="M139 215q0 133 111.5 197.5t314.5 64.5q88 0 199 -12v139q0 124 -55.5 188t-176.5 64q-114 0 -179.5 -43.5t-65.5 -118.5q0 -42 10 -67q-49 -21 -53 -23q-52 -21 -80 -31q-19 55 -19 103q0 124 107.5 203t288.5 79q377 0 377 -380v-365q0 -70 23.5 -105.5t94.5 -35.5 q15 0 23 2l4 -66q-28 -24 -84 -24q-90 0 -143.5 55.5t-55.5 148.5l-22 13q-98 -221 -340 -221q-128 0 -203.5 61.5t-75.5 173.5zM293 207q0 -61 40 -100t120 -39q139 0 225 85.5t86 229.5v39q-185 -10 -289 -36.5t-143 -68t-39 -110.5zM305 1110q14 20 26.5 40t26.5 43 t23 36q74 118 84 133h149l164 -252h-100l-137 246q-62 -112 -97 -170q-20 -35 -41 -76h-98z" />
<glyph unicode="&#xe3;" horiz-adv-x="1118" d="M139 215q0 133 111.5 197.5t314.5 64.5q88 0 199 -12v139q0 124 -55.5 188t-176.5 64q-114 0 -179.5 -43.5t-65.5 -118.5q0 -42 10 -67q-49 -21 -53 -23q-52 -21 -80 -31q-19 55 -19 103q0 124 107.5 203t288.5 79q377 0 377 -380v-365q0 -70 23.5 -105.5t94.5 -35.5 q15 0 23 2l4 -66q-28 -24 -84 -24q-90 0 -143.5 55.5t-55.5 148.5l-22 13q-98 -221 -340 -221q-128 0 -203.5 61.5t-75.5 173.5zM213 1214q0 59 40.5 98.5t113.5 39.5q47 0 81.5 -18t79.5 -56q24 -17 33 -31q36 -31 51.5 -43t38.5 -23.5t43 -11.5q41 0 62.5 23t21.5 59 q0 43 -35 90l31 33q33 -26 52.5 -64t19.5 -75q0 -56 -39 -93.5t-109 -37.5q-43 0 -78.5 18.5t-97.5 65.5l-39 33q-2 2 -11 9.5t-11 9t-10 8t-11 8.5l-10.5 7t-11.5 6.5t-10.5 5t-12 4.5t-12 2t-12.5 1q-38 0 -59 -23t-21 -57q0 -43 28 -84q-21 -19 -47 -35q-59 56 -59 131z M293 207q0 -61 40 -100t120 -39q139 0 225 85.5t86 229.5v39q-185 -10 -289 -36.5t-143 -68t-39 -110.5z" />
<glyph unicode="&#xe4;" horiz-adv-x="1118" d="M139 215q0 133 111.5 197.5t314.5 64.5q88 0 199 -12v139q0 124 -55.5 188t-176.5 64q-114 0 -179.5 -43.5t-65.5 -118.5q0 -42 10 -67q-49 -21 -53 -23q-52 -21 -80 -31q-19 55 -19 103q0 124 107.5 203t288.5 79q377 0 377 -380v-365q0 -70 23.5 -105.5t94.5 -35.5 q15 0 23 2l4 -66q-28 -24 -84 -24q-90 0 -143.5 55.5t-55.5 148.5l-22 13q-98 -221 -340 -221q-128 0 -203.5 61.5t-75.5 173.5zM287 1133v161h125v-161h-125zM293 207q0 -61 40 -100t120 -39q139 0 225 85.5t86 229.5v39q-185 -10 -289 -36.5t-143 -68t-39 -110.5z M686 1133v161h127v-161h-127z" />
<glyph unicode="&#xe5;" horiz-adv-x="1118" d="M139 215q0 133 111.5 197.5t314.5 64.5q88 0 199 -12v139q0 124 -55.5 188t-176.5 64q-114 0 -179.5 -43.5t-65.5 -118.5q0 -42 10 -67q-49 -21 -53 -23q-52 -21 -80 -31q-19 55 -19 103q0 124 107.5 203t288.5 79q377 0 377 -380v-365q0 -70 23.5 -105.5t94.5 -35.5 q15 0 23 2l4 -66q-28 -24 -84 -24q-90 0 -143.5 55.5t-55.5 148.5l-22 13q-98 -221 -340 -221q-128 0 -203.5 61.5t-75.5 173.5zM293 207q0 -61 40 -100t120 -39q139 0 225 85.5t86 229.5v39q-185 -10 -289 -36.5t-143 -68t-39 -110.5zM362 1245q0 73 48 118.5t122 45.5 q75 0 122.5 -45.5t47.5 -118.5q0 -71 -47.5 -115.5t-122.5 -44.5q-74 0 -122 45t-48 115zM424 1245q0 -54 27.5 -86.5t80.5 -32.5q55 0 84 33t29 86q0 55 -29 89t-84 34q-53 0 -80.5 -34t-27.5 -89z" />
<glyph unicode="&#xe6;" horiz-adv-x="1644" d="M131 215q0 137 119 209t330 72q84 0 178 -11v99q0 272 -232 272q-115 0 -181 -44.5t-66 -119.5q0 -35 10 -65q-2 -1 -10.5 -4.5t-10.5 -4.5q-95 -39 -112 -45q-19 55 -19 105q0 123 103 201.5t270 78.5q130 0 208 -74t116 -218q65 151 149 221.5t201 70.5 q177 0 272.5 -97.5t95.5 -276.5q0 -74 -14 -148h-629q0 -162 85 -261t220 -99q103 0 156.5 46t65.5 144l125 -37q-16 -127 -113 -188t-244 -61q-120 0 -225 82t-129 188l-47 2q-32 -117 -124 -194.5t-237 -77.5q-148 0 -229.5 65t-81.5 170zM285 207q0 -61 40 -100t119 -39 q166 0 240 81.5t74 233.5v59q-138 -7 -232 -26.5t-146 -50.5t-73.5 -69t-21.5 -89zM909 526h496q6 38 6 99q0 109 -59 174t-166 65q-121 0 -193.5 -95.5t-83.5 -242.5z" />
<glyph unicode="&#xe7;" horiz-adv-x="1034" d="M98 469q0 221 120 355t339 134q147 0 243.5 -70.5t121.5 -189.5q-14 -4 -36 -10t-30 -8q-22 -8 -70 -23q-24 90 -85 142.5t-150 52.5q-142 0 -218.5 -107.5t-76.5 -275.5q0 -164 87.5 -274.5t231.5 -110.5q197 0 242 203q19 -6 58 -17t67 -20q-32 -127 -119 -194.5 t-245 -73.5l-52 -150q84 29 136 29q68 0 102.5 -31.5t34.5 -77.5q0 -54 -66 -87.5t-176 -33.5q-91 0 -174 37q2 4 6.5 13.5t7.5 15.5q85 -33 148 -33q67 0 107 23.5t40 62.5q0 78 -129 78q-57 0 -86 -4l53 158q-201 20 -316.5 153t-115.5 334z" />
<glyph unicode="&#xe8;" horiz-adv-x="1013" d="M98 469q0 222 123.5 355.5t319.5 133.5q177 0 273.5 -98t96.5 -278q0 -77 -14 -146h-631q0 -162 85 -261t222 -99q102 0 155 46.5t65 143.5l127 -37q-19 -127 -116 -188t-241 -61q-215 0 -340 127t-125 362zM266 526h484l4 4q12 59 12 103q0 106 -61 168.5t-162 62.5 q-121 0 -193.5 -95.5t-83.5 -242.5zM322 1362h141l53 -129q33 -74 53 -123h-73z" />
<glyph unicode="&#xe9;" horiz-adv-x="1013" d="M98 469q0 222 123.5 355.5t319.5 133.5q177 0 273.5 -98t96.5 -278q0 -77 -14 -146h-631q0 -162 85 -261t222 -99q102 0 155 46.5t65 143.5l127 -37q-19 -127 -116 -188t-241 -61q-215 0 -340 127t-125 362zM266 526h484l4 4q12 59 12 103q0 106 -61 168.5t-162 62.5 q-121 0 -193.5 -95.5t-83.5 -242.5zM461 1110q10 28 32.5 78t30.5 72q3 6 47 102h140l-176 -252h-74z" />
<glyph unicode="&#xea;" horiz-adv-x="1013" d="M98 469q0 222 123.5 355.5t319.5 133.5q177 0 273.5 -98t96.5 -278q0 -77 -14 -146h-631q0 -162 85 -261t222 -99q102 0 155 46.5t65 143.5l127 -37q-19 -127 -116 -188t-241 -61q-215 0 -340 127t-125 362zM266 526h484l4 4q12 59 12 103q0 106 -61 168.5t-162 62.5 q-121 0 -193.5 -95.5t-83.5 -242.5zM305 1110q19 28 101 160q11 18 33.5 51t27.5 41h147l164 -252h-100l-137 246q-61 -114 -76 -139q-8 -15 -29 -52.5t-30 -54.5h-101z" />
<glyph unicode="&#xeb;" horiz-adv-x="1013" d="M98 469q0 222 123.5 355.5t319.5 133.5q177 0 273.5 -98t96.5 -278q0 -77 -14 -146h-631q0 -162 85 -261t222 -99q102 0 155 46.5t65 143.5l127 -37q-19 -127 -116 -188t-241 -61q-215 0 -340 127t-125 362zM266 526h484l4 4q12 59 12 103q0 106 -61 168.5t-162 62.5 q-121 0 -193.5 -95.5t-83.5 -242.5zM272 1133v161h127v-161h-127zM672 1133v161h127v-161h-127z" />
<glyph unicode="&#xec;" horiz-adv-x="524" d="M45 1362h143q9 -21 52 -129q34 -78 51 -123h-72zM190 0v938h152v-938h-152z" />
<glyph unicode="&#xed;" horiz-adv-x="524" d="M186 0v938h152v-938h-152zM238 1110q25 69 57 137q35 82 49 115h139l-172 -252h-73z" />
<glyph unicode="&#xee;" horiz-adv-x="524" d="M29 1110q18 26 43.5 67.5t31.5 51.5q62 99 86 133h148l164 -252h-101l-137 246q-8 -13 -40.5 -73t-51.5 -91q-32 -58 -45 -82h-98zM188 0v938h152v-938h-152z" />
<glyph unicode="&#xef;" horiz-adv-x="524" d="M0 1133v161h127v-161h-127zM188 0v938h152v-938h-152zM401 1133v161h127v-161h-127z" />
<glyph unicode="&#xf0;" horiz-adv-x="1120" d="M156 383q0 61 13.5 119t42.5 110t70 91t99 62t127 23q105 0 185 -58t118 -152l45 10q-14 253 -166 479q-12 -9 -69 -49q-17 -11 -63 -42.5t-69 -47.5q-6 9 -18 24.5t-18 24.5q-4 6 -11.5 16.5t-11.5 16.5l193 133q-103 114 -248 219h131q116 -60 203 -156q43 28 84 60 q11 7 35.5 24.5t35.5 24.5q3 -4 6.5 -9.5t6.5 -9.5q7 -9 22.5 -29t24.5 -34l-152 -107q99 -141 154 -306t55 -331q0 -230 -109 -369.5t-303 -139.5q-104 0 -185.5 35t-130 93t-73 128.5t-24.5 146.5zM303 383q0 -133 68 -217t194 -84q123 0 196 82t73 219q0 132 -75.5 216.5 t-191.5 84.5q-125 0 -194.5 -81.5t-69.5 -219.5z" />
<glyph unicode="&#xf1;" horiz-adv-x="1165" d="M176 0v938h74l49 -379h27q10 104 57 194t127 147.5t174 57.5q156 0 239 -98t83 -268v-592h-154v578q0 121 -56.5 183t-154.5 62q-96 0 -167.5 -74t-107.5 -197.5t-36 -277.5v-274h-154zM256 1214q0 59 41.5 98.5t114.5 39.5q45 0 80.5 -18t82.5 -56q23 -19 23 -18l33 -35 q29 -23 39 -31t30 -16.5t39 -8.5q41 0 62.5 23t21.5 59q0 43 -35 90l31 33q33 -26 52.5 -64t19.5 -75q0 -55 -39.5 -93t-108.5 -38q-43 0 -79 19t-95 65l-41 33q-2 2 -11 9.5t-11 9t-10 8t-11 8.5l-10.5 7t-11.5 6.5t-10.5 5t-12 4.5t-12 2t-12.5 1q-38 0 -59 -23t-21 -57 q0 -42 29 -84q-8 -7 -13.5 -10t-9.5 -6q-2 -2 -11 -9t-12 -10q-63 60 -63 131z" />
<glyph unicode="&#xf2;" horiz-adv-x="1089" d="M94 469q0 140 62 253t166 174.5t227 61.5q91 0 174 -36.5t144.5 -100t97.5 -155.5t36 -197q0 -139 -61.5 -252t-165 -175t-225.5 -62q-123 0 -227 62t-166 175t-62 252zM248 469q0 -161 85 -271t216 -110q129 0 214 110t85 271t-85 270t-214 109q-131 0 -216 -109 t-85 -270zM313 1362h142q10 -25 27.5 -70t23.5 -59q47 -108 53 -123h-74z" />
<glyph unicode="&#xf3;" horiz-adv-x="1089" d="M94 469q0 140 62 253t166 174.5t227 61.5q91 0 174 -36.5t144.5 -100t97.5 -155.5t36 -197q0 -139 -61.5 -252t-165 -175t-225.5 -62q-123 0 -227 62t-166 175t-62 252zM248 469q0 -161 85 -271t216 -110q129 0 214 110t85 271t-85 270t-214 109q-131 0 -216 -109 t-85 -270zM506 1110q10 28 33 78t32 72q6 14 21 48.5t24 53.5h140l-172 -252h-78z" />
<glyph unicode="&#xf4;" horiz-adv-x="1089" d="M94 469q0 140 62 253t166 174.5t227 61.5q91 0 174 -36.5t144.5 -100t97.5 -155.5t36 -197q0 -139 -61.5 -252t-165 -175t-225.5 -62q-123 0 -227 62t-166 175t-62 252zM248 469q0 -161 85 -271t216 -110q129 0 214 110t85 271t-85 270t-214 109q-131 0 -216 -109 t-85 -270zM313 1110q14 20 26.5 40t26.5 43t23 36q74 118 84 133h150l163 -252h-100l-137 246q-15 -24 -47 -83t-45 -81q-32 -58 -45 -82h-99z" />
<glyph unicode="&#xf5;" horiz-adv-x="1089" d="M94 469q0 140 62 253t166 174.5t227 61.5q91 0 174 -36.5t144.5 -100t97.5 -155.5t36 -197q0 -139 -61.5 -252t-165 -175t-225.5 -62q-123 0 -227 62t-166 175t-62 252zM217 1214q0 59 41.5 98.5t114.5 39.5q47 0 82 -18t80 -56q22 -15 32 -31q36 -31 51.5 -43 t38.5 -23.5t43 -11.5q41 0 62.5 23t21.5 59q0 44 -34 90l32 33q33 -26 51.5 -63.5t18.5 -75.5q0 -56 -38.5 -93.5t-108.5 -37.5q-43 0 -79.5 19t-97.5 65l-39 33q-2 2 -11 9.5t-11 9t-10 8t-11 8.5l-10.5 7t-11.5 6.5t-10.5 5t-12 4.5t-12 2t-12.5 1q-38 0 -59 -23t-21 -57 q0 -42 29 -84q-21 -19 -47 -35q-62 59 -62 131zM248 469q0 -161 85 -271t216 -110q129 0 214 110t85 271t-85 270t-214 109q-131 0 -216 -109t-85 -270z" />
<glyph unicode="&#xf6;" horiz-adv-x="1089" d="M94 469q0 140 62 253t166 174.5t227 61.5q91 0 174 -36.5t144.5 -100t97.5 -155.5t36 -197q0 -139 -61.5 -252t-165 -175t-225.5 -62q-123 0 -227 62t-166 175t-62 252zM248 469q0 -161 85 -271t216 -110q129 0 214 110t85 271t-85 270t-214 109q-131 0 -216 -109 t-85 -270zM285 1133v161h127v-161h-127zM686 1133v161h127v-161h-127z" />
<glyph unicode="&#xf7;" horiz-adv-x="1216" d="M143 420v96h936v-96h-936zM530 0v188h162v-188h-162zM530 750v188h162v-188h-162z" />
<glyph unicode="&#xf8;" horiz-adv-x="1110" d="M104 469q0 140 62 253t166 174.5t227 61.5q164 0 299 -120q4 4 15 15.5t21 21.5t19 18q17 23 52 57q6 -6 13 -12t9 -8q3 -3 8.5 -7.5t8.5 -7.5l-105 -116q113 -141 113 -330q0 -210 -132.5 -349.5t-320.5 -139.5q-166 0 -303 118q-7 -7 -25.5 -26.5t-27.5 -28.5 q-14 -16 -53 -55q-19 19 -23 22q-3 3 -8 7.5t-8 7.5l106 112q-113 144 -113 332zM258 469q0 -114 53 -229l459 499q-101 109 -211 109q-131 0 -216 -109t-85 -270zM342 197q92 -109 217 -109q129 0 214 110t85 271q0 117 -55 227z" />
<glyph unicode="&#xf9;" horiz-adv-x="1165" d="M166 346v592h153v-578q0 -121 56.5 -184t154.5 -63q96 0 167.5 74.5t108 198.5t36.5 278v274h153v-938h-71l-52 379h-26q-16 -162 -117 -280.5t-242 -118.5q-155 0 -238 97.5t-83 268.5zM381 1362h141l56 -129q10 -24 28 -67.5t23 -55.5h-72z" />
<glyph unicode="&#xfa;" horiz-adv-x="1165" d="M166 346v592h153v-578q0 -121 56.5 -184t154.5 -63q96 0 167.5 74.5t108 198.5t36.5 278v274h153v-938h-71l-52 379h-26q-16 -162 -117 -280.5t-242 -118.5q-155 0 -238 97.5t-83 268.5zM526 1110q6 13 30.5 68t35.5 82q6 14 21 48.5t24 53.5h139l-174 -252h-76z" />
<glyph unicode="&#xfb;" horiz-adv-x="1165" d="M166 346v592h153v-578q0 -121 56.5 -184t154.5 -63q96 0 167.5 74.5t108 198.5t36.5 278v274h153v-938h-71l-52 379h-26q-16 -162 -117 -280.5t-242 -118.5q-155 0 -238 97.5t-83 268.5zM360 1110q14 20 26.5 40t26.5 43t23 36q74 118 84 133h150l164 -252h-101l-137 246 q-34 -67 -96 -170q-20 -35 -41 -76h-99z" />
<glyph unicode="&#xfc;" horiz-adv-x="1165" d="M166 346v592h153v-578q0 -121 56.5 -184t154.5 -63q96 0 167.5 74.5t108 198.5t36.5 278v274h153v-938h-71l-52 379h-26q-16 -162 -117 -280.5t-242 -118.5q-155 0 -238 97.5t-83 268.5zM324 1133v161h127v-161h-127zM725 1133v161h127v-161h-127z" />
<glyph unicode="&#xfd;" horiz-adv-x="946" d="M25 938h149l301 -793q46 127 197 521q81 209 104 272h154q-301 -702 -412 -952q-50 -106 -87 -169.5t-81 -107.5t-92 -61t-115 -17q-61 0 -102 17l8 92q33 -10 66 -10q39 0 66 4t52.5 18t43.5 32t40.5 55.5t41.5 78t49 109.5q-75 183 -162 389q-120 277 -221 522z M412 1110q10 28 32.5 78t30.5 72q6 14 21 48.5t24 53.5h142l-177 -252h-73z" />
<glyph unicode="&#xfe;" horiz-adv-x="1136" d="M176 -348v1710h154v-606l45 -11q37 95 110.5 154t173.5 59q94 0 169.5 -38.5t123 -105.5t72.5 -155t25 -190q0 -137 -41 -246t-125.5 -176t-200.5 -67q-115 0 -198 70t-107 163l-47 -6v-555h-154zM330 469q0 -155 86 -266t202 -111q124 0 201.5 106t77.5 271 q0 170 -74.5 272.5t-201.5 102.5q-119 0 -205 -105t-86 -270z" />
<glyph unicode="&#xff;" horiz-adv-x="946" d="M25 938h149l301 -793q46 127 197 521q81 209 104 272h154q-301 -702 -412 -952q-50 -106 -87 -169.5t-81 -107.5t-92 -61t-115 -17q-61 0 -102 17l8 92q33 -10 66 -10q39 0 66 4t52.5 18t43.5 32t40.5 55.5t41.5 78t49 109.5q-75 183 -162 389q-120 277 -221 522z M221 1133v161h127v-161h-127zM623 1133v161h127v-161h-127z" />
<glyph unicode="&#x152;" horiz-adv-x="2283" d="M86 680q0 145 45.5 273t129 224.5t211.5 152.5t284 56q148 0 277 -82t227 -206v264h923v-129h-764v-471h613v-123h-613v-512h770v-127h-929v270q-84 -128 -219 -211.5t-285 -83.5q-156 0 -284 56t-211.5 153t-129 224.5t-45.5 271.5zM258 680q0 -163 61 -293.5 t175 -205.5t262 -75t262 75t175.5 205.5t61.5 293.5q0 164 -61.5 294.5t-175.5 205.5t-262 75t-262 -75t-175 -205.5t-61 -294.5z" />
<glyph unicode="&#x153;" horiz-adv-x="1738" d="M84 469q0 140 62 253t166 174.5t227 61.5q222 0 372 -256q130 256 371 256q175 0 272 -98t97 -278q0 -70 -15 -146h-630q0 -162 85.5 -261t221.5 -99q102 0 154.5 46t64.5 144l127 -37q-11 -86 -62.5 -143t-125 -81.5t-168.5 -24.5q-125 0 -232.5 67.5t-161.5 181.5 q-56 -110 -150 -179.5t-220 -69.5q-123 0 -227 62t-166 175t-62 252zM238 469q0 -161 85 -271t216 -110q130 0 214.5 109.5t84.5 271.5t-84 270.5t-215 108.5t-216 -109t-85 -270zM1006 526h493q8 50 8 97q0 109 -59 175t-164 66q-122 0 -194.5 -95.5t-83.5 -242.5z" />
<glyph unicode="&#x178;" horiz-adv-x="1249" d="M27 1362h184l418 -674l415 674h185l-518 -803v-559h-164v559q-111 167 -180 275q-57 88 -340 528zM332 1534v143h147v-143h-147zM780 1534v143h150v-143h-150z" />
<glyph unicode="&#x2c6;" horiz-adv-x="794" d="M164 1110q14 19 78 119q74 118 84 133h147l166 -252h-100l-140 246q-11 -20 -42.5 -78t-47.5 -86q-32 -58 -45 -82h-100z" />
<glyph unicode="&#x2dc;" horiz-adv-x="899" d="M139 1214q0 59 41.5 98.5t114.5 39.5q47 0 82 -18t80 -56q3 -3 7.5 -7t7.5 -6.5t6.5 -6t6 -5.5t4.5 -3.5t3 -1.5v-1q36 -31 51.5 -43t38 -23.5t41.5 -11.5q41 0 62.5 23t21.5 59q0 43 -35 90l33 33q33 -26 51 -63.5t18 -75.5q0 -56 -38.5 -93.5t-108.5 -37.5 q-44 0 -81 19.5t-95 64.5l-39 33q-27 23 -38 31.5t-33 19t-42 10.5q-38 0 -59 -23t-21 -57q0 -42 29 -84q-21 -19 -47 -35q-62 56 -62 131z" />
<glyph unicode="&#x2000;" horiz-adv-x="869" />
<glyph unicode="&#x2001;" horiz-adv-x="1739" />
<glyph unicode="&#x2002;" horiz-adv-x="869" />
<glyph unicode="&#x2003;" horiz-adv-x="1739" />
<glyph unicode="&#x2004;" horiz-adv-x="579" />
<glyph unicode="&#x2005;" horiz-adv-x="434" />
<glyph unicode="&#x2006;" horiz-adv-x="289" />
<glyph unicode="&#x2007;" horiz-adv-x="289" />
<glyph unicode="&#x2008;" horiz-adv-x="217" />
<glyph unicode="&#x2009;" horiz-adv-x="347" />
<glyph unicode="&#x200a;" horiz-adv-x="96" />
<glyph unicode="&#x2010;" horiz-adv-x="700" d="M158 487v109h397v-109h-397z" />
<glyph unicode="&#x2011;" horiz-adv-x="700" d="M158 487v109h397v-109h-397z" />
<glyph unicode="&#x2012;" horiz-adv-x="700" d="M158 487v109h397v-109h-397z" />
<glyph unicode="&#x2013;" horiz-adv-x="1181" d="M156 487v109h876v-109h-876z" />
<glyph unicode="&#x2014;" horiz-adv-x="1503" d="M152 487v109h1208v-109h-1208z" />
<glyph unicode="&#x2018;" horiz-adv-x="491" d="M166 944v180q0 84 39 152.5t125 101.5q1 -2 2 -6t2 -6q2 -2 8 -14q-109 -67 -109 -211h95v-197h-162z" />
<glyph unicode="&#x2019;" horiz-adv-x="477" d="M147 954q111 63 111 209h-96v199h162v-182q0 -185 -164 -252q-8 12 -8 20q-5 5 -5 6z" />
<glyph unicode="&#x201a;" d="M184 -211q109 66 109 211h-94v199h159v-183q0 -85 -37.5 -153t-123.5 -101q-9 18 -9 21q-4 4 -4 6z" />
<glyph unicode="&#x201c;" horiz-adv-x="874" d="M160 944v180q0 83 39.5 151.5t124.5 102.5l4 -8q2 -6 8 -18q-63 -34 -86 -85t-23 -126h95v-197h-162zM557 944v180q0 83 39 151.5t125 102.5q1 -2 2 -6t2 -6q2 -2 8 -14q-110 -63 -110 -211h96v-197h-162z" />
<glyph unicode="&#x201d;" horiz-adv-x="860" d="M141 954q113 62 113 209h-98v199h163v-182q0 -185 -165 -252q-9 14 -9 20q-4 4 -4 6zM539 954q61 35 85.5 86.5t24.5 122.5h-94v199h160v-182q0 -82 -38.5 -149t-123.5 -103q-4 13 -14 26z" />
<glyph unicode="&#x201e;" horiz-adv-x="935" d="M176 -211q113 64 113 211h-96v199h161v-183q0 -83 -39 -151.5t-125 -102.5q-8 16 -8 21q-1 1 -2.5 2t-2.5 2t-1 2zM573 -211q61 36 86 88t25 123h-94v199h160v-183q0 -83 -38.5 -151.5t-123.5 -102.5q-4 13 -15 27z" />
<glyph unicode="&#x2022;" horiz-adv-x="724" d="M131 692q0 96 69 165t165 69t164.5 -69t68.5 -165q0 -97 -68 -166t-165 -69t-165.5 69t-68.5 166z" />
<glyph unicode="&#x2026;" horiz-adv-x="1658" d="M182 0v199h160v-199h-160zM754 0v199h161v-199h-161zM1327 0v199h160v-199h-160z" />
<glyph unicode="&#x202f;" horiz-adv-x="347" />
<glyph unicode="&#x2039;" horiz-adv-x="804" d="M119 430v76q79 56 184 127q181 126 346 235v-127l-448 -272q372 -227 448 -272v-129q-140 98 -262 182q-109 76 -268 180z" />
<glyph unicode="&#x203a;" horiz-adv-x="804" d="M160 68v129l450 272l-450 274v125q105 -69 264 -178q176 -119 266 -184v-76q-31 -21 -92.5 -63t-93.5 -64q-181 -128 -344 -235z" />
<glyph unicode="&#x205f;" horiz-adv-x="434" />
<glyph unicode="&#x20ac;" horiz-adv-x="1511" d="M88 479v72h217q-4 54 -4 108q0 53 4 111h-217v70h227q20 111 62 200t107 157.5t161 106t217 37.5q96 0 177.5 -28.5t138.5 -78t96 -111t59 -132.5q-49 -21 -133 -53q-33 122 -121.5 207.5t-222.5 85.5q-160 0 -255 -103t-130 -288h401v-70h-409q-4 -58 -4 -111 q0 -54 4 -108h409v-72h-401q43 -185 146.5 -289t265.5 -104q315 0 381 360q18 -5 67 -22q8 -3 58 -18q-12 -65 -35 -124t-64.5 -115t-97 -97t-135 -65.5t-174.5 -24.5q-118 0 -216 37.5t-167.5 105.5t-115.5 157.5t-69 198.5h-227z" />
<glyph unicode="&#x2122;" horiz-adv-x="1187" d="M92 1331v31h373v-31h-170v-418h-39v418h-164zM588 913v449h78l168 -449h-15l-151 396l-47 -6v-390h-33zM834 913h8q-4 -8 -4 -12zM842 913q20 53 66.5 175.5t66.5 175.5q12 29 39 98h78v-449h-35v390l-45 6l-154 -396h-16z" />
<glyph unicode="&#x25fc;" horiz-adv-x="942" d="M0 0v942h942v-942h-942z" />
</font>
</defs>
</svg>
